SplineFontDB: 3.2
FontName: ArchitaliaTextMedium-Regular
FullName: Architalia Text Medium Regular
FamilyName: Architalia Text Medium
Weight: Regular
Copyright: Copyright (c) 2023 Architalia.
Version: 1.00
ItalicAngle: 0
UnderlinePosition: -204
UnderlineWidth: 102
Ascent: 1638
Descent: 410
InvalidEm: 0
sfntRevision: 0x00010000
woffMajor: 1
woffMinor: 0
LayerCount: 2
Layer: 0 1 "Back" 1
Layer: 1 1 "Fore" 0
XUID: [1021 754 2037647438 3985446]
StyleMap: 0x0040
FSType: 4
OS2Version: 3
OS2_WeightWidthSlopeOnly: 0
OS2_UseTypoMetrics: 0
CreationTime: 1254995832
ModificationTime: 1689341826
PfmFamily: 17
TTFWeight: 400
TTFWidth: 5
LineGap: 0
VLineGap: 0
Panose: 2 11 5 6 4 2 2 2 2 4
OS2TypoAscent: 1638
OS2TypoAOffset: 0
OS2TypoDescent: -410
OS2TypoDOffset: 0
OS2TypoLinegap: 0
OS2WinAscent: 1819
OS2WinAOffset: 0
OS2WinDescent: 480
OS2WinDOffset: 0
HheadAscent: 1819
HheadAOffset: 0
HheadDescent: -480
HheadDOffset: 0
OS2SubXSize: 1434
OS2SubYSize: 1331
OS2SubXOff: 0
OS2SubYOff: 287
OS2SupXSize: 1434
OS2SupYSize: 1331
OS2SupXOff: 0
OS2SupYOff: 977
OS2StrikeYSize: 102
OS2StrikeYPos: 512
OS2CapHeight: 1331
OS2XHeight: 989
OS2Vendor: 'DAMA'
OS2CodePages: 00000001.00000000
OS2UnicodeRanges: 8000002f.0000000a.00000000.00000000
MarkAttachClasses: 1
DEI: 91125
TtTable: prep
PUSHW_1
 511
SCANCTRL
PUSHB_1
 1
SCANTYPE
SVTCA[y-axis]
MPPEM
PUSHB_1
 8
LT
IF
PUSHB_2
 1
 1
INSTCTRL
EIF
PUSHB_2
 70
 6
CALL
IF
POP
PUSHB_1
 16
EIF
MPPEM
PUSHB_1
 20
GT
IF
POP
PUSHB_1
 128
EIF
SCVTCI
PUSHB_1
 6
CALL
NOT
IF
SVTCA[y-axis]
PUSHB_1
 3
DUP
RCVT
PUSHB_1
 3
CALL
WCVTP
PUSHB_1
 7
DUP
RCVT
PUSHB_3
 3
 201
 2
CALL
PUSHB_1
 3
CALL
WCVTP
PUSHB_1
 6
DUP
RCVT
PUSHB_3
 7
 113
 2
CALL
PUSHB_1
 3
CALL
WCVTP
PUSHB_1
 5
DUP
RCVT
PUSHB_3
 6
 54
 2
CALL
PUSHB_1
 3
CALL
WCVTP
PUSHB_1
 4
DUP
RCVT
PUSHB_3
 5
 45
 2
CALL
PUSHB_1
 3
CALL
WCVTP
SVTCA[x-axis]
PUSHB_1
 8
DUP
RCVT
PUSHB_1
 3
CALL
WCVTP
PUSHB_1
 9
DUP
RCVT
PUSHB_3
 8
 41
 2
CALL
PUSHB_2
 3
 70
SROUND
CALL
WCVTP
PUSHB_1
 10
DUP
RCVT
PUSHB_3
 9
 41
 2
CALL
PUSHB_2

StartChar: .notdef
Encoding: 65536 -1 0
Width: 748
GlyphClass: 1
Flags: W
LayerCount: 2
Fore
SplineSet
68 0 m 1,0,-1
 68 1365 l 1,1,-1
 612 1365 l 1,2,-1
 612 0 l 1,3,-1
 68 0 l 1,0,-1
136 68 m 1,4,-1
 544 68 l 1,5,-1
 544 1297 l 1,6,-1
 136 1297 l 1,7,-1
 136 68 l 1,4,-1
EndSplineSet
EndChar

StartChar: exclam
Encoding: 33 33 4
Width: 573
GlyphClass: 2
Flags: W
LayerCount: 2
Fore
SplineSet
154 115 m 0,0,1
 154 170 154 170 193.5 209 c 128,-1,2
 233 248 233 248 287 248 c 0,3,4
 342 248 342 248 381 209 c 128,-1,5
 420 170 420 170 420 115 c 0,6,7
 420 62 420 62 381 22 c 128,-1,8
 342 -18 342 -18 287 -18 c 0,9,10
 234 -18 234 -18 194 21.5 c 128,-1,11
 154 61 154 61 154 115 c 0,0,1
160 1227 m 1,12,-1
 160 1239 l 2,13,14
 160 1280 160 1280 190.5 1307.5 c 128,-1,15
 221 1335 221 1335 291 1335 c 0,16,17
 328 1335 328 1335 363.5 1331 c 128,-1,18
 399 1327 399 1327 418 1323 c 1,19,-1
 367 526 l 2,20,21
 365 501 365 501 348.5 482 c 128,-1,22
 332 463 332 463 291 463 c 0,23,24
 258 463 258 463 217 477 c 1,25,-1
 160 1227 l 1,12,-1
EndSplineSet
EndChar

StartChar: quotedbl
Encoding: 34 34 5
Width: 798
GlyphClass: 2
Flags: W
LayerCount: 2
Fore
SplineSet
115 1243 m 1,0,-1
 115 1255 l 2,1,2
 115 1290 115 1290 140.5 1312.5 c 128,-1,3
 166 1335 166 1335 225 1335 c 0,4,5
 295 1335 295 1335 332 1325 c 1,6,-1
 291 844 l 2,7,8
 289 821 289 821 273.5 804.5 c 128,-1,9
 258 788 258 788 221 788 c 0,10,11
 194 788 194 788 156 801 c 1,12,-1
 115 1243 l 1,0,-1
473 1243 m 1,13,-1
 473 1255 l 2,14,15
 473 1290 473 1290 498.5 1312.5 c 128,-1,16
 524 1335 524 1335 584 1335 c 0,17,18
 615 1335 615 1335 644.5 1332 c 128,-1,19
 674 1329 674 1329 690 1325 c 1,20,-1
 649 844 l 2,21,22
 647 821 647 821 632 804.5 c 128,-1,23
 617 788 617 788 580 788 c 0,24,25
 553 788 553 788 514 801 c 1,26,-1
 473 1243 l 1,13,-1
EndSplineSet
EndChar

StartChar: numbersign
Encoding: 35 35 6
Width: 1241
GlyphClass: 2
Flags: W
LayerCount: 2
Fore
SplineSet
47 422 m 0,0,1
 47 469 47 469 67.5 488.5 c 128,-1,2
 88 508 88 508 117 508 c 2,3,-1
 272 508 l 1,4,-1
 346 807 l 1,5,-1
 150 807 l 1,6,7
 148 819 148 819 144.5 839.5 c 128,-1,8
 141 860 141 860 141 883 c 0,9,10
 141 932 141 932 161.5 950.5 c 128,-1,11
 182 969 182 969 211 969 c 2,12,-1
 381 969 l 1,13,-1
 457 1292 l 2,14,15
 467 1323 467 1323 490.5 1331 c 128,-1,16
 514 1339 514 1339 545 1339 c 0,17,18
 602 1339 602 1339 637 1325 c 1,19,-1
 551 969 l 1,20,-1
 823 969 l 1,21,-1
 899 1292 l 2,22,23
 909 1323 909 1323 932.5 1331 c 128,-1,24
 956 1339 956 1339 987 1339 c 0,25,26
 1044 1339 1044 1339 1079 1325 c 1,27,-1
 993 969 l 1,28,-1
 1184 969 l 1,29,30
 1186 957 1186 957 1188 936 c 128,-1,31
 1190 915 1190 915 1190 893 c 0,32,33
 1190 844 1190 844 1170.5 825.5 c 128,-1,34
 1151 807 1151 807 1122 807 c 2,35,-1
 958 807 l 1,36,-1
 887 508 l 1,37,-1
 1094 508 l 1,38,39
 1096 494 1096 494 1099 473.5 c 128,-1,40
 1102 453 1102 453 1102 430 c 0,41,42
 1102 383 1102 383 1081.5 364.5 c 128,-1,43
 1061 346 1061 346 1032 346 c 2,44,-1
 850 346 l 1,45,-1
 774 35 l 2,46,47
 764 6 764 6 740.5 -3 c 128,-1,48
 717 -12 717 -12 688 -12 c 0,49,50
 661 -12 661 -12 637.5 -8 c 128,-1,51
 614 -4 614 -4 596 2 c 1,52,-1
 678 346 l 1,53,-1
 408 346 l 1,54,-1
 334 37 l 2,55,56
 324 6 324 6 300.5 -3 c 128,-1,57
 277 -12 277 -12 246 -12 c 0,58,59
 219 -12 219 -12 195.5 -8 c 128,-1,60
 172 -4 172 -4 154 2 c 1,61,-1
 236 346 l 1,62,-1
 55 346 l 1,63,64
 53 358 53 358 50 378.5 c 128,-1,65
 47 399 47 399 47 422 c 0,0,1
444 508 m 1,66,-1
 715 508 l 1,67,-1
 788 807 l 1,68,-1
 516 807 l 1,69,-1
 444 508 l 1,66,-1
EndSplineSet
EndChar

StartChar: dollar
Encoding: 36 36 7
Width: 1241
GlyphClass: 2
Flags: W
LayerCount: 2
Fore
SplineSet
129 98 m 0,0,1
 129 166 129 166 152.5 208 c 128,-1,2
 176 250 176 250 231 250 c 0,3,4
 256 250 256 250 283.5 241.5 c 128,-1,5
 311 233 311 233 347 223 c 128,-1,6
 383 213 383 213 430 205 c 128,-1,7
 477 197 477 197 541 197 c 1,8,-1
 541 580 l 1,9,-1
 494 594 l 2,10,11
 396 625 396 625 327 665 c 128,-1,12
 258 705 258 705 216 754 c 128,-1,13
 174 803 174 803 155.5 859 c 128,-1,14
 137 915 137 915 137 981 c 0,15,16
 137 1038 137 1038 156.5 1097.5 c 128,-1,17
 176 1157 176 1157 222 1206 c 128,-1,18
 268 1255 268 1255 346 1290 c 128,-1,19
 424 1325 424 1325 541 1335 c 1,20,-1
 541 1466 l 2,21,22
 541 1489 541 1489 552 1510.5 c 128,-1,23
 563 1532 563 1532 604 1532 c 0,24,25
 637 1532 637 1532 680 1518 c 1,26,-1
 680 1335 l 1,27,28
 766 1329 766 1329 855 1312.5 c 128,-1,29
 944 1296 944 1296 1038 1262 c 1,30,-1
 1038 1235 l 2,31,32
 1038 1163 1038 1163 1014.5 1124 c 128,-1,33
 991 1085 991 1085 936 1085 c 0,34,35
 913 1085 913 1085 891.5 1092.5 c 128,-1,36
 870 1100 870 1100 840.5 1109 c 128,-1,37
 811 1118 811 1118 773 1126.5 c 128,-1,38
 735 1135 735 1135 680 1137 c 1,39,-1
 680 774 l 1,40,-1
 741 756 l 2,41,42
 921 703 921 703 1011.5 612.5 c 128,-1,43
 1102 522 1102 522 1102 381 c 0,44,45
 1102 219 1102 219 1001.5 116.5 c 128,-1,46
 901 14 901 14 680 -6 c 1,47,-1
 680 -143 l 2,48,49
 680 -166 680 -166 668.5 -187.5 c 128,-1,50
 657 -209 657 -209 616 -209 c 0,51,52
 583 -209 583 -209 541 -195 c 1,53,-1
 541 -6 l 1,54,55
 449 -2 449 -2 342.5 15.5 c 128,-1,56
 236 33 236 33 131 70 c 1,57,58
 131 78 131 78 130 84 c 128,-1,59
 129 90 129 90 129 98 c 0,0,1
354 983 m 0,60,61
 354 922 354 922 395 878 c 128,-1,62
 436 834 436 834 541 807 c 1,63,-1
 541 1137 l 1,64,65
 488 1135 488 1135 452 1119.5 c 128,-1,66
 416 1104 416 1104 394.5 1082.5 c 128,-1,67
 373 1061 373 1061 363.5 1034.5 c 128,-1,68
 354 1008 354 1008 354 983 c 0,60,61
680 195 m 1,69,70
 778 205 778 205 823 251 c 128,-1,71
 868 297 868 297 868 367 c 0,72,73
 868 441 868 441 817 481.5 c 128,-1,74
 766 522 766 522 680 547 c 1,75,-1
 680 195 l 1,69,70
EndSplineSet
EndChar

StartChar: percent
Encoding: 37 37 8
Width: 1449
GlyphClass: 2
Flags: W
LayerCount: 2
Fore
SplineSet
31 987 m 256,0,1
 31 1079 31 1079 55.5 1148 c 128,-1,2
 80 1217 80 1217 122 1263 c 128,-1,3
 164 1309 164 1309 220 1331.5 c 128,-1,4
 276 1354 276 1354 338 1354 c 0,5,6
 399 1354 399 1354 455.5 1331.5 c 128,-1,7
 512 1309 512 1309 555 1263 c 128,-1,8
 598 1217 598 1217 622.5 1148 c 128,-1,9
 647 1079 647 1079 647 987 c 256,10,11
 647 895 647 895 622.5 826.5 c 128,-1,12
 598 758 598 758 555 712 c 128,-1,13
 512 666 512 666 455.5 643.5 c 128,-1,14
 399 621 399 621 338 621 c 256,15,16
 277 621 277 621 220.5 643.5 c 128,-1,17
 164 666 164 666 122 712 c 128,-1,18
 80 758 80 758 55.5 826.5 c 128,-1,19
 31 895 31 895 31 987 c 256,0,1
223 989 m 256,20,21
 223 878 223 878 254 827 c 128,-1,22
 285 776 285 776 338 776 c 0,23,24
 389 776 389 776 422 827.5 c 128,-1,25
 455 879 455 879 455 989 c 0,26,27
 455 1100 455 1100 422 1148 c 128,-1,28
 389 1196 389 1196 338 1196 c 0,29,30
 285 1196 285 1196 254 1148 c 128,-1,31
 223 1100 223 1100 223 989 c 256,20,21
274 18 m 1,32,-1
 1014 1292 l 2,33,34
 1024 1310 1024 1310 1044.5 1324.5 c 128,-1,35
 1065 1339 1065 1339 1096 1339 c 256,36,37
 1127 1339 1127 1339 1147 1328 c 128,-1,38
 1167 1317 1167 1317 1178 1311 c 1,39,-1
 440 37 l 2,40,41
 426 12 426 12 403.5 1 c 128,-1,42
 381 -10 381 -10 354 -10 c 0,43,44
 331 -10 331 -10 311 -1 c 128,-1,45
 291 8 291 8 274 18 c 1,32,-1
803 354 m 256,46,47
 803 446 803 446 827.5 515 c 128,-1,48
 852 584 852 584 894 630 c 128,-1,49
 936 676 936 676 992.5 698.5 c 128,-1,50
 1049 721 1049 721 1110 721 c 256,51,52
 1171 721 1171 721 1227.5 698.5 c 128,-1,53
 1284 676 1284 676 1327 630 c 128,-1,54
 1370 584 1370 584 1394.5 515 c 128,-1,55
 1419 446 1419 446 1419 354 c 256,56,57
 1419 262 1419 262 1394.5 193.5 c 128,-1,58
 1370 125 1370 125 1327 79 c 128,-1,59
 1284 33 1284 33 1227.5 10.5 c 128,-1,60
 1171 -12 1171 -12 1110 -12 c 256,61,62
 1049 -12 1049 -12 992.5 10.5 c 128,-1,63
 936 33 936 33 894 79 c 128,-1,64
 852 125 852 125 827.5 193.5 c 128,-1,65
 803 262 803 262 803 354 c 256,46,47
995 356 m 256,66,67
 995 245 995 245 1026 194 c 128,-1,68
 1057 143 1057 143 1110 143 c 0,69,70
 1161 143 1161 143 1194 194.5 c 128,-1,71
 1227 246 1227 246 1227 356 c 0,72,73
 1227 467 1227 467 1194 515 c 128,-1,74
 1161 563 1161 563 1110 563 c 0,75,76
 1057 563 1057 563 1026 515 c 128,-1,77
 995 467 995 467 995 356 c 256,66,67
EndSplineSet
EndChar

StartChar: ampersand
Encoding: 38 38 9
Width: 1337
GlyphClass: 2
Flags: W
LayerCount: 2
Fore
SplineSet
70 381 m 0,0,1
 70 510 70 510 140.5 605 c 128,-1,2
 211 700 211 700 352 748 c 1,3,4
 295 811 295 811 264 873.5 c 128,-1,5
 233 936 233 936 233 1012 c 0,6,7
 233 1073 233 1073 258 1133.5 c 128,-1,8
 283 1194 283 1194 332 1240 c 128,-1,9
 381 1286 381 1286 455.5 1314.5 c 128,-1,10
 530 1343 530 1343 633 1343 c 0,11,12
 739 1343 739 1343 825 1319.5 c 128,-1,13
 911 1296 911 1296 983 1264 c 1,14,15
 985 1252 985 1252 986 1239.5 c 128,-1,16
 987 1227 987 1227 987 1217 c 0,17,18
 987 1158 987 1158 959.5 1126 c 128,-1,19
 932 1094 932 1094 887 1094 c 0,20,21
 862 1094 862 1094 839.5 1101 c 128,-1,22
 817 1108 817 1108 789.5 1117 c 128,-1,23
 762 1126 762 1126 726 1133.5 c 128,-1,24
 690 1141 690 1141 639 1141 c 0,25,26
 541 1141 541 1141 501 1097 c 128,-1,27
 461 1053 461 1053 461 989 c 0,28,29
 461 944 461 944 483.5 901 c 128,-1,30
 506 858 506 858 567 797 c 2,31,-1
 887 473 l 1,32,-1
 1030 739 l 2,33,34
 1048 774 1048 774 1081 789.5 c 128,-1,35
 1114 805 1114 805 1153 805 c 0,36,37
 1182 805 1182 805 1213.5 798 c 128,-1,38
 1245 791 1245 791 1268 780 c 1,39,-1
 1024 338 l 1,40,-1
 1327 23 l 1,41,42
 1296 7 1296 7 1255 -2.5 c 128,-1,43
 1214 -12 1214 -12 1180 -12 c 0,44,45
 1119 -12 1119 -12 1084 8.5 c 128,-1,46
 1049 29 1049 29 1006 76 c 2,47,-1
 913 176 l 1,48,49
 852 92 852 92 756.5 37 c 128,-1,50
 661 -18 661 -18 516 -18 c 0,51,52
 405 -18 405 -18 321.5 13.5 c 128,-1,53
 238 45 238 45 182.5 100.5 c 128,-1,54
 127 156 127 156 98.5 228.5 c 128,-1,55
 70 301 70 301 70 381 c 0,0,1
291 403 m 0,56,57
 291 358 291 358 307.5 318.5 c 128,-1,58
 324 279 324 279 353.5 248 c 128,-1,59
 383 217 383 217 427 199.5 c 128,-1,60
 471 182 471 182 526 182 c 0,61,62
 624 182 624 182 684.5 217 c 128,-1,63
 745 252 745 252 782 311 c 1,64,-1
 467 633 l 1,65,66
 291 561 291 561 291 403 c 0,56,57
EndSplineSet
EndChar

StartChar: quotesingle
Encoding: 39 39 10
Width: 440
GlyphClass: 2
Flags: W
LayerCount: 2
Fore
SplineSet
115 1243 m 1,0,-1
 115 1255 l 2,1,2
 115 1290 115 1290 140.5 1312.5 c 128,-1,3
 166 1335 166 1335 225 1335 c 0,4,5
 295 1335 295 1335 332 1325 c 1,6,-1
 291 844 l 2,7,8
 289 821 289 821 273.5 804.5 c 128,-1,9
 258 788 258 788 221 788 c 0,10,11
 194 788 194 788 156 801 c 1,12,-1
 115 1243 l 1,0,-1
EndSplineSet
EndChar

StartChar: parenleft
Encoding: 40 40 11
Width: 751
GlyphClass: 2
Flags: W
LayerCount: 2
Fore
SplineSet
78 473 m 256,0,1
 78 633 78 633 123 772 c 128,-1,2
 168 911 168 911 242.5 1024 c 128,-1,3
 317 1137 317 1137 412.5 1222 c 128,-1,4
 508 1307 508 1307 608 1358 c 1,5,6
 653 1338 653 1338 672.5 1308 c 128,-1,7
 692 1278 692 1278 692 1249 c 0,8,9
 692 1202 692 1202 657 1178 c 0,10,11
 489 1061 489 1061 396 890 c 128,-1,12
 303 719 303 719 303 473 c 0,13,14
 303 231 303 231 393 59 c 128,-1,15
 483 -113 483 -113 657 -231 c 0,16,17
 690 -256 690 -256 690 -299 c 0,18,19
 690 -328 690 -328 671.5 -358 c 128,-1,20
 653 -388 653 -388 606 -408 c 1,21,22
 504 -353 504 -353 408.5 -268.5 c 128,-1,23
 313 -184 313 -184 239.5 -72.5 c 128,-1,24
 166 39 166 39 122 176 c 128,-1,25
 78 313 78 313 78 473 c 256,0,1
EndSplineSet
EndChar

StartChar: parenright
Encoding: 41 41 12
Width: 751
GlyphClass: 2
Flags: W
LayerCount: 2
Fore
SplineSet
57 1249 m 0,0,1
 57 1278 57 1278 76.5 1307.5 c 128,-1,2
 96 1337 96 1337 141 1358 c 1,3,4
 241 1307 241 1307 336.5 1222 c 128,-1,5
 432 1137 432 1137 507 1024 c 128,-1,6
 582 911 582 911 627 772 c 128,-1,7
 672 633 672 633 672 473 c 256,8,9
 672 313 672 313 628 176 c 128,-1,10
 584 39 584 39 510 -72.5 c 128,-1,11
 436 -184 436 -184 340.5 -268.5 c 128,-1,12
 245 -353 245 -353 143 -408 c 1,13,14
 96 -388 96 -388 77.5 -358 c 128,-1,15
 59 -328 59 -328 59 -299 c 0,16,17
 59 -252 59 -252 92 -231 c 0,18,19
 266 -114 266 -114 356 58.5 c 128,-1,20
 446 231 446 231 446 473 c 0,21,22
 446 719 446 719 353 890 c 128,-1,23
 260 1061 260 1061 92 1178 c 0,24,25
 57 1203 57 1203 57 1249 c 0,0,1
EndSplineSet
EndChar

StartChar: asterisk
Encoding: 42 42 13
Width: 690
GlyphClass: 2
Flags: W
LayerCount: 2
Fore
SplineSet
-4 1108 m 0,0,1
 -4 1141 -4 1141 17.5 1162.5 c 128,-1,2
 39 1184 39 1184 80 1184 c 0,3,4
 115 1184 115 1184 145 1169 c 2,5,-1
 297 1102 l 1,6,-1
 268 1364 l 1,7,8
 284 1380 284 1380 303 1386.5 c 128,-1,9
 322 1393 322 1393 340 1393 c 0,10,11
 373 1393 373 1393 397.5 1370.5 c 128,-1,12
 422 1348 422 1348 422 1300 c 0,13,14
 422 1296 422 1296 421 1291 c 128,-1,15
 420 1286 420 1286 420 1280 c 2,16,-1
 397 1102 l 1,17,-1
 643 1190 l 1,18,19
 694 1157 694 1157 694 1106 c 0,20,21
 694 1077 694 1077 671.5 1054.5 c 128,-1,22
 649 1032 649 1032 600 1028 c 2,23,-1
 416 1014 l 1,24,-1
 610 803 l 1,25,26
 606 762 606 762 581.5 737.5 c 128,-1,27
 557 713 557 713 524 713 c 0,28,29
 501 713 501 713 478 729 c 128,-1,30
 455 745 455 745 436 780 c 2,31,-1
 346 952 l 1,32,-1
 207 715 l 1,33,-1
 195 715 l 2,34,35
 154 715 154 715 127 737.5 c 128,-1,36
 100 760 100 760 100 795 c 0,37,38
 100 836 100 836 143 883 c 2,39,-1
 270 1014 l 1,40,-1
 10 1055 l 1,41,42
 -4 1088 -4 1088 -4 1108 c 0,0,1
EndSplineSet
EndChar

StartChar: plus
Encoding: 43 43 14
Width: 1241
GlyphClass: 2
Flags: W
LayerCount: 2
Fore
SplineSet
113 530 m 0,0,1
 113 587 113 587 136.5 606 c 128,-1,2
 160 625 160 625 197 625 c 2,3,-1
 522 625 l 1,4,-1
 522 971 l 2,5,6
 522 1006 522 1006 542.5 1028.5 c 128,-1,7
 563 1051 563 1051 618 1051 c 0,8,9
 645 1051 645 1051 670.5 1047.5 c 128,-1,10
 696 1044 696 1044 711 1042 c 1,11,-1
 711 625 l 1,12,-1
 1118 625 l 1,13,14
 1126 594 1126 594 1126 535 c 0,15,16
 1126 478 1126 478 1102.5 459 c 128,-1,17
 1079 440 1079 440 1042 440 c 2,18,-1
 711 440 l 1,19,-1
 711 78 l 2,20,21
 711 43 711 43 690 20.5 c 128,-1,22
 669 -2 669 -2 614 -2 c 0,23,24
 587 -2 587 -2 562 1 c 128,-1,25
 537 4 537 4 522 6 c 1,26,-1
 522 440 l 1,27,-1
 121 440 l 1,28,29
 113 471 113 471 113 530 c 0,0,1
EndSplineSet
EndChar

StartChar: comma
Encoding: 44 44 15
Width: 374
GlyphClass: 2
Flags: W
LayerCount: 2
Fore
SplineSet
8 -233 m 1,0,-1
 125 137 l 2,1,2
 150 219 150 219 221 219 c 0,3,4
 262 219 262 219 285.5 193.5 c 128,-1,5
 309 168 309 168 309 123 c 0,6,7
 309 88 309 88 297 43 c 128,-1,8
 285 -2 285 -2 276 -20 c 0,9,10
 229 -133 229 -133 163.5 -183 c 128,-1,11
 98 -233 98 -233 23 -233 c 2,12,-1
 8 -233 l 1,0,-1
EndSplineSet
EndChar

StartChar: hyphen
Encoding: 45 45 16
Width: 727
GlyphClass: 2
Flags: W
LayerCount: 2
Fore
SplineSet
55 520 m 0,0,1
 55 579 55 579 80.5 602 c 128,-1,2
 106 625 106 625 143 625 c 2,3,-1
 664 625 l 1,4,5
 666 609 666 609 669 583 c 128,-1,6
 672 557 672 557 672 530 c 0,7,8
 672 471 672 471 647.5 447.5 c 128,-1,9
 623 424 623 424 586 424 c 2,10,-1
 66 424 l 1,11,12
 64 440 64 440 59.5 466 c 128,-1,13
 55 492 55 492 55 520 c 0,0,1
EndSplineSet
EndChar

StartChar: period
Encoding: 46 46 17
Width: 407
GlyphClass: 2
Flags: W
LayerCount: 2
Fore
SplineSet
70 115 m 0,0,1
 70 170 70 170 108.5 209 c 128,-1,2
 147 248 147 248 201 248 c 0,3,4
 256 248 256 248 296 209 c 128,-1,5
 336 170 336 170 336 115 c 0,6,7
 336 62 336 62 296 23 c 128,-1,8
 256 -16 256 -16 201 -16 c 0,9,10
 148 -16 148 -16 109 22.5 c 128,-1,11
 70 61 70 61 70 115 c 0,0,1
EndSplineSet
EndChar

StartChar: slash
Encoding: 47 47 18
Width: 663
GlyphClass: 2
Flags: W
LayerCount: 2
Fore
SplineSet
39 -66 m 1,0,-1
 426 1305 l 2,1,2
 438 1342 438 1342 467 1353 c 128,-1,3
 496 1364 496 1364 532 1364 c 0,4,5
 598 1364 598 1364 641 1343 c 1,6,-1
 254 -25 l 2,7,8
 244 -64 244 -64 214 -74 c 128,-1,9
 184 -84 184 -84 147 -84 c 0,10,11
 114 -84 114 -84 87.5 -79 c 128,-1,12
 61 -74 61 -74 39 -66 c 1,0,-1
EndSplineSet
EndChar

StartChar: zero
Encoding: 48 48 19
Width: 1259
GlyphClass: 2
Flags: W
LayerCount: 2
Fore
SplineSet
92 666 m 256,0,1
 92 838 92 838 132 967 c 128,-1,2
 172 1096 172 1096 242.5 1182 c 128,-1,3
 313 1268 313 1268 411.5 1311 c 128,-1,4
 510 1354 510 1354 627 1354 c 256,5,6
 744 1354 744 1354 843 1311 c 128,-1,7
 942 1268 942 1268 1014.5 1182 c 128,-1,8
 1087 1096 1087 1096 1127 967 c 128,-1,9
 1167 838 1167 838 1167 666 c 256,10,11
 1167 494 1167 494 1127 365 c 128,-1,12
 1087 236 1087 236 1014.5 149.5 c 128,-1,13
 942 63 942 63 843 20 c 128,-1,14
 744 -23 744 -23 627 -23 c 256,15,16
 510 -23 510 -23 411.5 20 c 128,-1,17
 313 63 313 63 242.5 149.5 c 128,-1,18
 172 236 172 236 132 365 c 128,-1,19
 92 494 92 494 92 666 c 256,0,1
326 666 m 256,20,21
 326 408 326 408 406 289 c 128,-1,22
 486 170 486 170 627 170 c 256,23,24
 768 170 768 170 852 291 c 128,-1,25
 936 412 936 412 936 666 c 256,26,27
 936 920 936 920 852 1040.5 c 128,-1,28
 768 1161 768 1161 627 1161 c 256,29,30
 486 1161 486 1161 406 1042.5 c 128,-1,31
 326 924 326 924 326 666 c 256,20,21
EndSplineSet
EndChar

StartChar: one
Encoding: 49 49 20
Width: 796
GlyphClass: 2
Flags: W
LayerCount: 2
Fore
SplineSet
39 1075 m 0,0,1
 39 1147 39 1147 111 1188 c 1,2,-1
 406 1331 l 1,3,-1
 584 1331 l 1,4,-1
 584 84 l 2,5,6
 584 43 584 43 558.5 15.5 c 128,-1,7
 533 -12 533 -12 467 -12 c 0,8,9
 434 -12 434 -12 401.5 -9 c 128,-1,10
 369 -6 369 -6 352 -2 c 1,11,-1
 352 1075 l 1,12,-1
 100 956 l 1,13,14
 71 979 71 979 55 1011.5 c 128,-1,15
 39 1044 39 1044 39 1075 c 0,0,1
EndSplineSet
EndChar

StartChar: two
Encoding: 50 50 21
Width: 1032
GlyphClass: 2
Flags: W
LayerCount: 2
Fore
SplineSet
35 90 m 0,0,1
 35 125 35 125 49 172 c 128,-1,2
 63 219 63 219 98 248 c 2,3,-1
 467 580 l 2,4,5
 526 631 526 631 571 674 c 128,-1,6
 616 717 616 717 647 758 c 128,-1,7
 678 799 678 799 694.5 840 c 128,-1,8
 711 881 711 881 711 928 c 0,9,10
 711 1026 711 1026 651.5 1084.5 c 128,-1,11
 592 1143 592 1143 469 1143 c 0,12,13
 408 1143 408 1143 359.5 1126.5 c 128,-1,14
 311 1110 311 1110 273.5 1089.5 c 128,-1,15
 236 1069 236 1069 205 1052.5 c 128,-1,16
 174 1036 174 1036 147 1036 c 0,17,18
 102 1036 102 1036 74.5 1078 c 128,-1,19
 47 1120 47 1120 43 1194 c 1,20,21
 115 1251 115 1251 226.5 1298.5 c 128,-1,22
 338 1346 338 1346 479 1346 c 0,23,24
 700 1346 700 1346 821 1233 c 128,-1,25
 942 1120 942 1120 942 936 c 0,26,27
 942 864 942 864 920.5 802.5 c 128,-1,28
 899 741 899 741 860 686 c 128,-1,29
 821 631 821 631 770 581.5 c 128,-1,30
 719 532 719 532 657 485 c 1,31,-1
 338 209 l 1,32,-1
 954 209 l 1,33,34
 964 172 964 172 965 111 c 0,35,36
 965 48 965 48 939 24 c 128,-1,37
 913 0 913 0 874 0 c 2,38,-1
 43 0 l 1,39,40
 39 16 39 16 37 39.5 c 128,-1,41
 35 63 35 63 35 90 c 0,0,1
EndSplineSet
EndChar

StartChar: three
Encoding: 51 51 22
Width: 1101
GlyphClass: 2
Flags: W
LayerCount: 2
Fore
SplineSet
82 100 m 1,0,1
 84 178 84 178 112.5 219 c 128,-1,2
 141 260 141 260 186 260 c 0,3,4
 217 260 217 260 248 248 c 128,-1,5
 279 236 279 236 317.5 222.5 c 128,-1,6
 356 209 356 209 407.5 196.5 c 128,-1,7
 459 184 459 184 530 184 c 0,8,9
 659 184 659 184 722.5 241.5 c 128,-1,10
 786 299 786 299 786 391 c 0,11,12
 786 471 786 471 727 528.5 c 128,-1,13
 668 586 668 586 520 586 c 2,14,-1
 356 586 l 2,15,16
 323 586 323 586 301 608.5 c 128,-1,17
 279 631 279 631 279 684 c 0,18,19
 279 735 279 735 289 772 c 1,20,-1
 502 772 l 2,21,22
 637 772 637 772 696.5 819 c 128,-1,23
 756 866 756 866 756 958 c 0,24,25
 756 993 756 993 744.5 1026 c 128,-1,26
 733 1059 733 1059 706.5 1083.5 c 128,-1,27
 680 1108 680 1108 638 1123.5 c 128,-1,28
 596 1139 596 1139 532 1139 c 0,29,30
 466 1139 466 1139 420.5 1128.5 c 128,-1,31
 375 1118 375 1118 338 1106 c 128,-1,32
 301 1094 301 1094 272.5 1083.5 c 128,-1,33
 244 1073 244 1073 215 1073 c 0,34,35
 168 1073 168 1073 139.5 1116 c 128,-1,36
 111 1159 111 1159 109 1235 c 1,37,38
 189 1280 189 1280 297.5 1313 c 128,-1,39
 406 1346 406 1346 549 1346 c 0,40,41
 662 1346 662 1346 743.5 1318 c 128,-1,42
 825 1290 825 1290 877.5 1243 c 128,-1,43
 930 1196 930 1196 954.5 1131.5 c 128,-1,44
 979 1067 979 1067 979 993 c 0,45,46
 979 882 979 882 917.5 805.5 c 128,-1,47
 856 729 856 729 752 696 c 1,48,49
 869 676 869 676 946.5 592 c 128,-1,50
 1024 508 1024 508 1024 377 c 0,51,52
 1024 285 1024 285 989 210 c 128,-1,53
 954 135 954 135 890.5 84 c 128,-1,54
 827 33 827 33 736.5 5 c 128,-1,55
 646 -23 646 -23 535 -23 c 0,56,57
 385 -23 385 -23 277.5 12 c 128,-1,58
 170 47 170 47 82 100 c 1,0,1
EndSplineSet
EndChar

StartChar: four
Encoding: 52 52 23
Width: 1167
GlyphClass: 2
Flags: W
LayerCount: 2
Fore
SplineSet
51 395 m 0,0,1
 51 432 51 432 63.5 467 c 128,-1,2
 76 502 76 502 104 543 c 2,3,-1
 662 1331 l 1,4,-1
 903 1331 l 1,5,-1
 903 496 l 1,6,-1
 1108 496 l 1,7,8
 1118 459 1118 459 1118 401 c 0,9,10
 1118 342 1118 342 1092.5 319.5 c 128,-1,11
 1067 297 1067 297 1032 297 c 2,12,-1
 903 297 l 1,13,-1
 903 80 l 2,14,15
 903 41 903 41 879.5 14.5 c 128,-1,16
 856 -12 856 -12 793 -12 c 0,17,18
 760 -12 760 -12 729 -9 c 128,-1,19
 698 -6 698 -6 682 -2 c 1,20,-1
 682 297 l 1,21,-1
 63 297 l 1,22,23
 59 313 59 313 55 337.5 c 128,-1,24
 51 362 51 362 51 395 c 0,0,1
297 494 m 1,25,-1
 682 494 l 1,26,-1
 682 1038 l 1,27,-1
 297 494 l 1,25,-1
EndSplineSet
EndChar

StartChar: five
Encoding: 53 53 24
Width: 1060
GlyphClass: 2
Flags: W
LayerCount: 2
Fore
SplineSet
57 94 m 1,0,1
 57 174 57 174 89 214 c 128,-1,2
 121 254 121 254 168 254 c 0,3,4
 193 254 193 254 222.5 243.5 c 128,-1,5
 252 233 252 233 290 222 c 128,-1,6
 328 211 328 211 376 200.5 c 128,-1,7
 424 190 424 190 485 190 c 0,8,9
 632 190 632 190 700 254.5 c 128,-1,10
 768 319 768 319 768 426 c 0,11,12
 768 532 768 532 694.5 592.5 c 128,-1,13
 621 653 621 653 510 653 c 0,14,15
 420 653 420 653 362.5 629.5 c 128,-1,16
 305 606 305 606 252 567 c 1,17,-1
 94 623 l 1,18,-1
 166 1331 l 1,19,-1
 922 1331 l 1,20,21
 932 1294 932 1294 932 1235 c 256,22,23
 932 1176 932 1176 907.5 1151 c 128,-1,24
 883 1126 883 1126 844 1126 c 2,25,-1
 344 1126 l 1,26,-1
 299 760 l 1,27,28
 346 793 346 793 400.5 815.5 c 128,-1,29
 455 838 455 838 547 838 c 0,30,31
 651 838 651 838 735 804 c 128,-1,32
 819 770 819 770 877.5 713.5 c 128,-1,33
 936 657 936 657 967.5 582.5 c 128,-1,34
 999 508 999 508 999 426 c 0,35,36
 999 332 999 332 967.5 251 c 128,-1,37
 936 170 936 170 871.5 109.5 c 128,-1,38
 807 49 807 49 711.5 15.5 c 128,-1,39
 616 -18 616 -18 489 -18 c 0,40,41
 360 -18 360 -18 252.5 12.5 c 128,-1,42
 145 43 145 43 57 94 c 1,0,1
EndSplineSet
EndChar

StartChar: six
Encoding: 54 54 25
Width: 1148
GlyphClass: 2
Flags: W
LayerCount: 2
Fore
SplineSet
92 655 m 0,0,1
 92 833 92 833 133 963.5 c 128,-1,2
 174 1094 174 1094 249 1179 c 128,-1,3
 324 1264 324 1264 427 1305 c 128,-1,4
 530 1346 530 1346 655 1346 c 0,5,6
 759 1346 759 1346 849.5 1325.5 c 128,-1,7
 940 1305 940 1305 1016 1268 c 1,8,-1
 1016 1239 l 2,9,10
 1016 1167 1016 1167 988.5 1131.5 c 128,-1,11
 961 1096 961 1096 911 1096 c 0,12,13
 884 1096 884 1096 860 1103 c 128,-1,14
 836 1110 836 1110 806 1117 c 128,-1,15
 776 1124 776 1124 740.5 1131.5 c 128,-1,16
 705 1139 705 1139 655 1139 c 0,17,18
 489 1139 489 1139 408.5 1033.5 c 128,-1,19
 328 928 328 928 317 713 c 1,20,21
 376 766 376 766 457.5 811 c 128,-1,22
 539 856 539 856 659 856 c 0,23,24
 768 856 768 856 851 821 c 128,-1,25
 934 786 934 786 989 727 c 128,-1,26
 1044 668 1044 668 1072 591 c 128,-1,27
 1100 514 1100 514 1100 428 c 0,28,29
 1100 338 1100 338 1068 256 c 128,-1,30
 1036 174 1036 174 974.5 112.5 c 128,-1,31
 913 51 913 51 823 14 c 128,-1,32
 733 -23 733 -23 616 -23 c 0,33,34
 501 -23 501 -23 405 20 c 128,-1,35
 309 63 309 63 239.5 148 c 128,-1,36
 170 233 170 233 131 360 c 128,-1,37
 92 487 92 487 92 655 c 0,0,1
326 549 m 1,38,39
 334 365 334 365 410.5 267.5 c 128,-1,40
 487 170 487 170 618 170 c 0,41,42
 735 170 735 170 803.5 243.5 c 128,-1,43
 872 317 872 317 872 434 c 256,44,45
 872 551 872 551 803.5 613.5 c 128,-1,46
 735 676 735 676 618 676 c 0,47,48
 516 676 516 676 445.5 635 c 128,-1,49
 375 594 375 594 326 549 c 1,38,39
EndSplineSet
EndChar

StartChar: seven
Encoding: 55 55 26
Width: 1001
GlyphClass: 2
Flags: W
LayerCount: 2
Fore
SplineSet
35 1233 m 0,0,1
 35 1264 35 1264 37 1289.5 c 128,-1,2
 39 1315 39 1315 43 1331 c 1,3,-1
 975 1331 l 1,4,-1
 975 1178 l 1,5,-1
 428 59 l 2,6,7
 405 12 405 12 367.5 -2 c 128,-1,8
 330 -16 330 -16 283 -16 c 0,9,10
 248 -16 248 -16 210 -9 c 128,-1,11
 172 -2 172 -2 147 8 c 1,12,-1
 711 1122 l 1,13,-1
 123 1122 l 2,14,15
 82 1122 82 1122 58.5 1145.5 c 128,-1,16
 35 1169 35 1169 35 1233 c 0,0,1
EndSplineSet
EndChar

StartChar: eight
Encoding: 56 56 27
Width: 1153
GlyphClass: 2
Flags: W
LayerCount: 2
Fore
SplineSet
66 360 m 0,0,1
 66 489 66 489 133.5 574 c 128,-1,2
 201 659 201 659 317 696 c 1,3,4
 276 712 276 712 239.5 739 c 128,-1,5
 203 766 203 766 174 804 c 128,-1,6
 145 842 145 842 128 890 c 128,-1,7
 111 938 111 938 111 995 c 0,8,9
 111 1065 111 1065 138.5 1129.5 c 128,-1,10
 166 1194 166 1194 223.5 1244 c 128,-1,11
 281 1294 281 1294 369 1325 c 128,-1,12
 457 1356 457 1356 578 1356 c 256,13,14
 699 1356 699 1356 786.5 1325 c 128,-1,15
 874 1294 874 1294 930.5 1244 c 128,-1,16
 987 1194 987 1194 1014.5 1129.5 c 128,-1,17
 1042 1065 1042 1065 1042 995 c 0,18,19
 1042 936 1042 936 1025 889 c 128,-1,20
 1008 842 1008 842 979 805 c 128,-1,21
 950 768 950 768 912 740.5 c 128,-1,22
 874 713 874 713 836 696 c 1,23,24
 953 659 953 659 1020 573 c 128,-1,25
 1087 487 1087 487 1087 362 c 0,26,27
 1087 278 1087 278 1054.5 207.5 c 128,-1,28
 1022 137 1022 137 957.5 86 c 128,-1,29
 893 35 893 35 798 5 c 128,-1,30
 703 -25 703 -25 578 -25 c 0,31,32
 451 -25 451 -25 355.5 5 c 128,-1,33
 260 35 260 35 195.5 86 c 128,-1,34
 131 137 131 137 98.5 208 c 128,-1,35
 66 279 66 279 66 360 c 0,0,1
299 379 m 0,36,37
 299 287 299 287 374 227.5 c 128,-1,38
 449 168 449 168 578 168 c 0,39,40
 639 168 639 168 689 183.5 c 128,-1,41
 739 199 739 199 776 227.5 c 128,-1,42
 813 256 813 256 833.5 294 c 128,-1,43
 854 332 854 332 854 379 c 0,44,45
 854 422 854 422 837.5 461 c 128,-1,46
 821 500 821 500 787.5 530.5 c 128,-1,47
 754 561 754 561 701.5 579.5 c 128,-1,48
 649 598 649 598 578 598 c 0,49,50
 504 598 504 598 450.5 579.5 c 128,-1,51
 397 561 397 561 363.5 530.5 c 128,-1,52
 330 500 330 500 314.5 461 c 128,-1,53
 299 422 299 422 299 379 c 0,36,37
336 969 m 256,54,55
 336 883 336 883 401.5 828.5 c 128,-1,56
 467 774 467 774 578 774 c 256,57,58
 689 774 689 774 753 828.5 c 128,-1,59
 817 883 817 883 817 969 c 256,60,61
 817 1055 817 1055 755.5 1106 c 128,-1,62
 694 1157 694 1157 578 1157 c 0,63,64
 461 1157 461 1157 398.5 1106 c 128,-1,65
 336 1055 336 1055 336 969 c 256,54,55
EndSplineSet
EndChar

StartChar: nine
Encoding: 57 57 28
Width: 1157
GlyphClass: 2
Flags: W
LayerCount: 2
Fore
SplineSet
68 909 m 0,0,1
 68 1003 68 1003 100.5 1084 c 128,-1,2
 133 1165 133 1165 194.5 1225.5 c 128,-1,3
 256 1286 256 1286 344 1320 c 128,-1,4
 432 1354 432 1354 545 1354 c 0,5,6
 787 1354 787 1354 925 1185 c 128,-1,7
 1063 1016 1063 1016 1063 676 c 0,8,9
 1063 330 1063 330 909 157 c 128,-1,10
 755 -16 755 -16 483 -16 c 0,11,12
 391 -16 391 -16 302 3.5 c 128,-1,13
 213 23 213 23 141 57 c 1,14,15
 139 77 139 77 139 84 c 0,16,17
 139 227 139 227 246 227 c 0,18,19
 273 227 273 227 298.5 221 c 128,-1,20
 324 215 324 215 351.5 209 c 128,-1,21
 379 203 379 203 410.5 196.5 c 128,-1,22
 442 190 442 190 483 190 c 0,23,24
 651 190 651 190 738 286.5 c 128,-1,25
 825 383 825 383 836 612 c 1,26,27
 770 553 770 553 692 518 c 128,-1,28
 614 483 614 483 504 483 c 0,29,30
 393 483 393 483 311 518 c 128,-1,31
 229 553 229 553 175 611.5 c 128,-1,32
 121 670 121 670 94.5 746.5 c 128,-1,33
 68 823 68 823 68 909 c 0,0,1
295 909 m 0,34,35
 295 798 295 798 357.5 730 c 128,-1,36
 420 662 420 662 545 662 c 0,37,38
 637 662 637 662 703.5 690.5 c 128,-1,39
 770 719 770 719 827 776 c 1,40,41
 825 862 825 862 808 933 c 128,-1,42
 791 1004 791 1004 757 1055 c 128,-1,43
 723 1106 723 1106 670.5 1133.5 c 128,-1,44
 618 1161 618 1161 545 1161 c 0,45,46
 434 1161 434 1161 364.5 1091.5 c 128,-1,47
 295 1022 295 1022 295 909 c 0,34,35
EndSplineSet
EndChar

StartChar: colon
Encoding: 58 58 29
Width: 493
GlyphClass: 2
Flags: W
LayerCount: 2
Fore
SplineSet
104 793 m 0,0,1
 104 848 104 848 143 888 c 128,-1,2
 182 928 182 928 236 928 c 0,3,4
 291 928 291 928 331 888 c 128,-1,5
 371 848 371 848 371 793 c 0,6,7
 371 740 371 740 331 701 c 128,-1,8
 291 662 291 662 236 662 c 0,9,10
 183 662 183 662 143.5 700.5 c 128,-1,11
 104 739 104 739 104 793 c 0,0,1
106 115 m 0,12,13
 106 170 106 170 145 209 c 128,-1,14
 184 248 184 248 238 248 c 0,15,16
 293 248 293 248 332 209 c 128,-1,17
 371 170 371 170 371 115 c 0,18,19
 371 62 371 62 332 22 c 128,-1,20
 293 -18 293 -18 238 -18 c 0,21,22
 185 -18 185 -18 145.5 21.5 c 128,-1,23
 106 61 106 61 106 115 c 0,12,13
EndSplineSet
EndChar

StartChar: semicolon
Encoding: 59 59 30
Width: 493
GlyphClass: 2
Flags: W
LayerCount: 2
Fore
SplineSet
94 -233 m 1,0,-1
 209 137 l 2,1,2
 221 178 221 178 248.5 198.5 c 128,-1,3
 276 219 276 219 307 219 c 0,4,5
 342 219 342 219 369.5 194.5 c 128,-1,6
 397 170 397 170 397 123 c 0,7,8
 397 82 397 82 384 39 c 128,-1,9
 371 -4 371 -4 362 -20 c 0,10,11
 315 -133 315 -133 248.5 -183 c 128,-1,12
 182 -233 182 -233 109 -233 c 2,13,-1
 94 -233 l 1,0,-1
156 793 m 0,14,15
 156 848 156 848 194.5 888 c 128,-1,16
 233 928 233 928 287 928 c 0,17,18
 342 928 342 928 381 888 c 128,-1,19
 420 848 420 848 420 793 c 0,20,21
 420 740 420 740 381 701 c 128,-1,22
 342 662 342 662 287 662 c 0,23,24
 234 662 234 662 195 700.5 c 128,-1,25
 156 739 156 739 156 793 c 0,14,15
EndSplineSet
EndChar

StartChar: less
Encoding: 60 60 31
Width: 1241
GlyphClass: 2
Flags: W
LayerCount: 2
Fore
SplineSet
184 449 m 1,0,-1
 184 621 l 1,1,-1
 971 1044 l 1,2,3
 981 1021 981 1021 989 992 c 128,-1,4
 997 963 997 963 997 934 c 0,5,6
 997 899 997 899 985 862 c 128,-1,7
 973 825 973 825 924 801 c 2,8,-1
 410 539 l 1,9,-1
 924 264 l 2,10,11
 973 237 973 237 985 200.5 c 128,-1,12
 997 164 997 164 997 129 c 0,13,14
 997 100 997 100 989 70.5 c 128,-1,15
 981 41 981 41 971 18 c 1,16,-1
 184 449 l 1,0,-1
EndSplineSet
EndChar

StartChar: equal
Encoding: 61 61 32
Width: 1181
GlyphClass: 2
Flags: W
LayerCount: 2
Fore
SplineSet
152 309 m 0,0,1
 152 366 152 366 175.5 384.5 c 128,-1,2
 199 403 199 403 236 403 c 2,3,-1
 1024 403 l 1,4,5
 1032 372 1032 372 1032 313 c 0,6,7
 1032 256 1032 256 1008.5 237.5 c 128,-1,8
 985 219 985 219 948 219 c 2,9,-1
 160 219 l 1,10,11
 152 250 152 250 152 309 c 0,0,1
152 741 m 0,12,13
 152 798 152 798 175.5 817 c 128,-1,14
 199 836 199 836 236 836 c 2,15,-1
 1024 836 l 1,16,17
 1032 805 1032 805 1032 745 c 0,18,19
 1032 688 1032 688 1008.5 669.5 c 128,-1,20
 985 651 985 651 948 651 c 2,21,-1
 160 651 l 1,22,23
 152 682 152 682 152 741 c 0,12,13
EndSplineSet
EndChar

StartChar: greater
Encoding: 62 62 33
Width: 1241
GlyphClass: 2
Flags: W
LayerCount: 2
Fore
SplineSet
244 129 m 0,0,1
 244 164 244 164 256 200 c 128,-1,2
 268 236 268 236 317 262 c 2,3,-1
 831 528 l 1,4,-1
 317 799 l 2,5,6
 268 826 268 826 256 862.5 c 128,-1,7
 244 899 244 899 244 934 c 0,8,9
 244 963 244 963 252 992.5 c 128,-1,10
 260 1022 260 1022 270 1044 c 1,11,-1
 1057 614 l 1,12,-1
 1057 442 l 1,13,-1
 270 18 l 1,14,15
 260 41 260 41 252 70.5 c 128,-1,16
 244 100 244 100 244 129 c 0,0,1
EndSplineSet
EndChar

StartChar: question
Encoding: 63 63 34
Width: 944
GlyphClass: 2
Flags: W
LayerCount: 2
Fore
SplineSet
39 1227 m 1,0,1
 113 1276 113 1276 227.5 1312 c 128,-1,2
 342 1348 342 1348 461 1348 c 0,3,4
 565 1348 565 1348 647 1322 c 128,-1,5
 729 1296 729 1296 784.5 1250 c 128,-1,6
 840 1204 840 1204 868.5 1141.5 c 128,-1,7
 897 1079 897 1079 897 1006 c 0,8,9
 897 949 897 949 880.5 903.5 c 128,-1,10
 864 858 864 858 838.5 822 c 128,-1,11
 813 786 813 786 779 759.5 c 128,-1,12
 745 733 745 733 711 715 c 0,13,14
 656 684 656 684 613.5 659.5 c 128,-1,15
 571 635 571 635 540.5 609.5 c 128,-1,16
 510 584 510 584 491.5 554 c 128,-1,17
 473 524 473 524 467 483 c 0,18,19
 463 463 463 463 443.5 444.5 c 128,-1,20
 424 426 424 426 383 426 c 0,21,22
 348 426 348 426 307 440 c 1,23,24
 305 456 305 456 304 471.5 c 128,-1,25
 303 487 303 487 303 502 c 0,26,27
 303 578 303 578 329.5 631 c 128,-1,28
 356 684 356 684 397 723 c 128,-1,29
 438 762 438 762 485 790.5 c 128,-1,30
 532 819 532 819 573 846.5 c 128,-1,31
 614 874 614 874 641 906 c 128,-1,32
 668 938 668 938 668 983 c 0,33,34
 668 1055 668 1055 613.5 1099 c 128,-1,35
 559 1143 559 1143 461 1143 c 0,36,37
 393 1143 393 1143 345 1131.5 c 128,-1,38
 297 1120 297 1120 261 1106 c 128,-1,39
 225 1092 225 1092 197.5 1080.5 c 128,-1,40
 170 1069 170 1069 141 1069 c 0,41,42
 98 1069 98 1069 69.5 1111 c 128,-1,43
 41 1153 41 1153 39 1227 c 1,0,1
250 115 m 0,44,45
 250 170 250 170 290 209 c 128,-1,46
 330 248 330 248 383 248 c 0,47,48
 438 248 438 248 477 209 c 128,-1,49
 516 170 516 170 516 115 c 0,50,51
 516 62 516 62 477 22 c 128,-1,52
 438 -18 438 -18 383 -18 c 0,53,54
 330 -18 330 -18 290 21.5 c 128,-1,55
 250 61 250 61 250 115 c 0,44,45
EndSplineSet
EndChar

StartChar: at
Encoding: 64 64 35
Width: 1419
GlyphClass: 2
Flags: W
LayerCount: 2
Fore
SplineSet
57 571 m 0,0,1
 57 714 57 714 109.5 838.5 c 128,-1,2
 162 963 162 963 254 1053 c 128,-1,3
 346 1143 346 1143 471 1195 c 128,-1,4
 596 1247 596 1247 741 1247 c 0,5,6
 895 1247 895 1247 1012.5 1197 c 128,-1,7
 1130 1147 1130 1147 1210 1064 c 128,-1,8
 1290 981 1290 981 1330 874.5 c 128,-1,9
 1370 768 1370 768 1370 655 c 0,10,11
 1370 551 1370 551 1345.5 472 c 128,-1,12
 1321 393 1321 393 1278 340 c 128,-1,13
 1235 287 1235 287 1178.5 260 c 128,-1,14
 1122 233 1122 233 1061 233 c 0,15,16
 987 233 987 233 946 271 c 128,-1,17
 905 309 905 309 889 356 c 1,18,19
 860 309 860 309 813 275.5 c 128,-1,20
 766 242 766 242 678 242 c 0,21,22
 621 242 621 242 570.5 263.5 c 128,-1,23
 520 285 520 285 482 326 c 128,-1,24
 444 367 444 367 422.5 425 c 128,-1,25
 401 483 401 483 401 557 c 0,26,27
 401 623 401 623 422.5 679 c 128,-1,28
 444 735 444 735 481 776 c 128,-1,29
 518 817 518 817 567 839.5 c 128,-1,30
 616 862 616 862 672 862 c 0,31,32
 744 862 744 862 791 831.5 c 128,-1,33
 838 801 838 801 866 758 c 1,34,-1
 868 758 l 1,35,36
 868 805 868 805 886.5 829.5 c 128,-1,37
 905 854 905 854 952 854 c 0,38,39
 993 854 993 854 1012 846 c 1,40,-1
 1012 457 l 2,41,42
 1012 404 1012 404 1032.5 384.5 c 128,-1,43
 1053 365 1053 365 1085 365 c 0,44,45
 1151 365 1151 365 1185 439.5 c 128,-1,46
 1219 514 1219 514 1219 649 c 0,47,48
 1219 741 1219 741 1186 822 c 128,-1,49
 1153 903 1153 903 1091.5 964.5 c 128,-1,50
 1030 1026 1030 1026 941 1062 c 128,-1,51
 852 1098 852 1098 741 1098 c 0,52,53
 639 1098 639 1098 547 1062 c 128,-1,54
 455 1026 455 1026 384 957.5 c 128,-1,55
 313 889 313 889 271 791.5 c 128,-1,56
 229 694 229 694 229 571 c 0,57,58
 229 444 229 444 269 346 c 128,-1,59
 309 248 309 248 376.5 180.5 c 128,-1,60
 444 113 444 113 533.5 77 c 128,-1,61
 623 41 623 41 723 41 c 0,62,63
 789 41 789 41 837 50 c 128,-1,64
 885 59 885 59 920.5 69.5 c 128,-1,65
 956 80 956 80 985 89 c 128,-1,66
 1014 98 1014 98 1038 98 c 0,67,68
 1073 98 1073 98 1094.5 72.5 c 128,-1,69
 1116 47 1116 47 1116 -4 c 0,70,71
 1116 -12 1116 -12 1116 -19.5 c 128,-1,72
 1116 -27 1116 -27 1114 -37 c 1,73,74
 1028 -72 1028 -72 928.5 -95.5 c 128,-1,75
 829 -119 829 -119 725 -119 c 0,76,77
 580 -119 580 -119 458 -66.5 c 128,-1,78
 336 -14 336 -14 247 78 c 128,-1,79
 158 170 158 170 107.5 297 c 128,-1,80
 57 424 57 424 57 571 c 0,0,1
559 551 m 256,81,82
 559 479 559 479 599 427 c 128,-1,83
 639 375 639 375 721 375 c 0,84,85
 766 375 766 375 803 399.5 c 128,-1,86
 840 424 840 424 862 463 c 1,87,-1
 862 635 l 1,88,89
 848 676 848 676 808 703.5 c 128,-1,90
 768 731 768 731 721 731 c 0,91,92
 641 731 641 731 600 677 c 128,-1,93
 559 623 559 623 559 551 c 256,81,82
EndSplineSet
EndChar

StartChar: A
Encoding: 65 65 36
Width: 1234
GlyphClass: 2
Flags: W
LayerCount: 2
Fore
SplineSet
12 12 m 1,0,-1
 465 1321 l 1,1,2
 504 1331 504 1331 542 1335 c 128,-1,3
 580 1339 580 1339 614 1339 c 0,4,5
 663 1339 663 1339 695 1332 c 128,-1,6
 727 1325 727 1325 748.5 1309.5 c 128,-1,7
 770 1294 770 1294 784.5 1270.5 c 128,-1,8
 799 1247 799 1247 811 1212 c 2,9,-1
 1223 14 l 1,10,11
 1198 4 1198 4 1166.5 -4 c 128,-1,12
 1135 -12 1135 -12 1108 -12 c 0,13,14
 1061 -12 1061 -12 1026 -1 c 128,-1,15
 991 10 991 10 975 57 c 2,16,-1
 877 350 l 1,17,-1
 352 350 l 1,18,-1
 256 57 l 2,19,20
 240 12 240 12 209 0 c 128,-1,21
 178 -12 178 -12 133 -12 c 0,22,23
 104 -12 104 -12 68.5 -6 c 128,-1,24
 33 0 33 0 12 12 c 1,0,-1
418 547 m 1,25,-1
 813 547 l 1,26,-1
 616 1141 l 1,27,-1
 418 547 l 1,25,-1
EndSplineSet
EndChar

StartChar: B
Encoding: 66 66 37
Width: 1171
GlyphClass: 2
Flags: W
LayerCount: 2
Fore
SplineSet
127 106 m 2,0,-1
 127 1225 l 2,1,2
 127 1272 127 1272 148.5 1301.5 c 128,-1,3
 170 1331 170 1331 246 1331 c 2,4,-1
 584 1331 l 2,5,6
 711 1331 711 1331 802 1305.5 c 128,-1,7
 893 1280 893 1280 951.5 1234 c 128,-1,8
 1010 1188 1010 1188 1036.5 1124.5 c 128,-1,9
 1063 1061 1063 1061 1063 985 c 0,10,11
 1063 881 1063 881 1003.5 803 c 128,-1,12
 944 725 944 725 840 690 c 1,13,14
 977 657 977 657 1043.5 571 c 128,-1,15
 1110 485 1110 485 1110 381 c 0,16,17
 1110 195 1110 195 983 97.5 c 128,-1,18
 856 0 856 0 592 0 c 2,19,-1
 246 0 l 2,20,21
 170 0 170 0 148.5 29.5 c 128,-1,22
 127 59 127 59 127 106 c 2,0,-1
350 203 m 1,23,-1
 567 203 l 2,24,25
 727 203 727 203 800.5 247 c 128,-1,26
 874 291 874 291 874 395 c 0,27,28
 874 432 874 432 862 466 c 128,-1,29
 850 500 850 500 818 525.5 c 128,-1,30
 786 551 786 551 729 567.5 c 128,-1,31
 672 584 672 584 580 584 c 2,32,-1
 350 584 l 1,33,-1
 350 203 l 1,23,-1
350 776 m 1,34,-1
 575 776 l 2,35,36
 649 776 649 776 699.5 790.5 c 128,-1,37
 750 805 750 805 779.5 829.5 c 128,-1,38
 809 854 809 854 822.5 888 c 128,-1,39
 836 922 836 922 836 961 c 0,40,41
 836 1128 836 1128 583 1128 c 0,42,43
 581 1128 581 1128 580 1128 c 2,44,-1
 350 1128 l 1,45,-1
 350 776 l 1,34,-1
EndSplineSet
EndChar

StartChar: C
Encoding: 67 67 38
Width: 1134
GlyphClass: 2
Flags: W
LayerCount: 2
Fore
SplineSet
55 659 m 0,0,1
 55 802 55 802 104.5 927.5 c 128,-1,2
 154 1053 154 1053 241 1145 c 128,-1,3
 328 1237 328 1237 446.5 1289 c 128,-1,4
 565 1341 565 1341 705 1341 c 0,5,6
 809 1341 809 1341 904 1320.5 c 128,-1,7
 999 1300 999 1300 1085 1266 c 1,8,9
 1087 1252 1087 1252 1088.5 1240.5 c 128,-1,10
 1090 1229 1090 1229 1090 1217 c 0,11,12
 1090 1151 1090 1151 1061 1114 c 128,-1,13
 1032 1077 1032 1077 989 1077 c 0,14,15
 969 1077 969 1077 944.5 1085.5 c 128,-1,16
 920 1094 920 1094 888 1104 c 128,-1,17
 856 1114 856 1114 813 1122 c 128,-1,18
 770 1130 770 1130 713 1130 c 0,19,20
 625 1130 625 1130 549 1096.5 c 128,-1,21
 473 1063 473 1063 416.5 1001.5 c 128,-1,22
 360 940 360 940 328.5 853 c 128,-1,23
 297 766 297 766 297 659 c 0,24,25
 297 548 297 548 328.5 461.5 c 128,-1,26
 360 375 360 375 416.5 314.5 c 128,-1,27
 473 254 473 254 549 223.5 c 128,-1,28
 625 193 625 193 713 193 c 0,29,30
 770 193 770 193 812 201 c 128,-1,31
 854 209 854 209 884.5 219 c 128,-1,32
 915 229 915 229 938 237.5 c 128,-1,33
 961 246 961 246 983 246 c 0,34,35
 1034 246 1034 246 1065 212 c 128,-1,36
 1096 178 1096 178 1096 113 c 0,37,38
 1096 99 1096 99 1096 86.5 c 128,-1,39
 1096 74 1096 74 1092 57 c 1,40,41
 1006 20 1006 20 914 1 c 128,-1,42
 822 -18 822 -18 705 -18 c 0,43,44
 566 -18 566 -18 447 32 c 128,-1,45
 328 82 328 82 241 172 c 128,-1,46
 154 262 154 262 104.5 387 c 128,-1,47
 55 512 55 512 55 659 c 0,0,1
EndSplineSet
EndChar

StartChar: D
Encoding: 68 68 39
Width: 1298
GlyphClass: 2
Flags: W
LayerCount: 2
Fore
SplineSet
125 106 m 2,0,-1
 125 1225 l 2,1,2
 125 1272 125 1272 146.5 1301.5 c 128,-1,3
 168 1331 168 1331 244 1331 c 2,4,-1
 524 1331 l 2,5,6
 690 1331 690 1331 823 1285 c 128,-1,7
 956 1239 956 1239 1049.5 1153 c 128,-1,8
 1143 1067 1143 1067 1193 946 c 128,-1,9
 1243 825 1243 825 1243 676 c 0,10,11
 1243 535 1243 535 1194 412 c 128,-1,12
 1145 289 1145 289 1050.5 197.5 c 128,-1,13
 956 106 956 106 822 53 c 128,-1,14
 688 0 688 0 518 0 c 2,15,-1
 244 0 l 2,16,17
 168 0 168 0 146.5 29.5 c 128,-1,18
 125 59 125 59 125 106 c 2,0,-1
354 209 m 1,19,-1
 537 209 l 2,20,21
 633 209 633 209 718 238.5 c 128,-1,22
 803 268 803 268 866.5 326.5 c 128,-1,23
 930 385 930 385 967 473 c 128,-1,24
 1004 561 1004 561 1004 680 c 0,25,26
 1004 786 1004 786 967 869 c 128,-1,27
 930 952 930 952 866.5 1008.5 c 128,-1,28
 803 1065 803 1065 717 1093.5 c 128,-1,29
 631 1122 631 1122 532 1122 c 2,30,-1
 354 1122 l 1,31,-1
 354 209 l 1,19,-1
EndSplineSet
EndChar

StartChar: E
Encoding: 69 69 40
Width: 1032
GlyphClass: 2
Flags: W
LayerCount: 2
Fore
SplineSet
125 106 m 2,0,-1
 125 1225 l 2,1,2
 125 1272 125 1272 146.5 1301.5 c 128,-1,3
 168 1331 168 1331 244 1331 c 2,4,-1
 932 1331 l 1,5,6
 936 1315 936 1315 939 1286 c 128,-1,7
 942 1257 942 1257 942 1229 c 0,8,9
 942 1170 942 1170 916.5 1146 c 128,-1,10
 891 1122 891 1122 854 1122 c 2,11,-1
 354 1122 l 1,12,-1
 354 766 l 1,13,-1
 883 766 l 1,14,15
 885 750 885 750 888 724 c 128,-1,16
 891 698 891 698 891 670 c 0,17,18
 891 613 891 613 867.5 590 c 128,-1,19
 844 567 844 567 809 567 c 2,20,-1
 354 567 l 1,21,-1
 354 209 l 1,22,-1
 950 209 l 1,23,24
 952 193 952 193 955 167 c 128,-1,25
 958 141 958 141 958 113 c 0,26,27
 958 52 958 52 933.5 26 c 128,-1,28
 909 0 909 0 872 0 c 2,29,-1
 244 0 l 2,30,31
 168 0 168 0 146.5 29.5 c 128,-1,32
 125 59 125 59 125 106 c 2,0,-1
EndSplineSet
EndChar

StartChar: F
Encoding: 70 70 41
Width: 1011
GlyphClass: 2
Flags: W
LayerCount: 2
Fore
SplineSet
135 -2 m 1,0,-1
 135 1225 l 2,1,2
 135 1272 135 1272 156.5 1301.5 c 128,-1,3
 178 1331 178 1331 254 1331 c 2,4,-1
 975 1331 l 1,5,6
 979 1315 979 1315 981 1287.5 c 128,-1,7
 983 1260 983 1260 983 1231 c 0,8,9
 983 1165 983 1165 957.5 1143.5 c 128,-1,10
 932 1122 932 1122 893 1122 c 2,11,-1
 365 1122 l 1,12,-1
 365 733 l 1,13,-1
 924 733 l 1,14,15
 934 696 934 696 934 637 c 256,16,17
 934 578 934 578 908.5 554 c 128,-1,18
 883 530 883 530 848 530 c 2,19,-1
 365 530 l 1,20,-1
 365 84 l 2,21,22
 365 43 365 43 339.5 15.5 c 128,-1,23
 314 -12 314 -12 248 -12 c 0,24,25
 215 -12 215 -12 183.5 -9 c 128,-1,26
 152 -6 152 -6 135 -2 c 1,0,-1
EndSplineSet
EndChar

StartChar: G
Encoding: 71 71 42
Width: 1320
GlyphClass: 2
Flags: W
LayerCount: 2
Fore
SplineSet
59 670 m 0,0,1
 59 811 59 811 108.5 934 c 128,-1,2
 158 1057 158 1057 246 1147 c 128,-1,3
 334 1237 334 1237 458 1289 c 128,-1,4
 582 1341 582 1341 729 1341 c 0,5,6
 846 1341 846 1341 966.5 1316.5 c 128,-1,7
 1087 1292 1087 1292 1186 1239 c 1,8,-1
 1186 1212 l 2,9,10
 1186 1149 1186 1149 1159.5 1110 c 128,-1,11
 1133 1071 1133 1071 1077 1071 c 0,12,13
 1050 1071 1050 1071 1022.5 1080.5 c 128,-1,14
 995 1090 995 1090 957.5 1101 c 128,-1,15
 920 1112 920 1112 866.5 1121 c 128,-1,16
 813 1130 813 1130 737 1130 c 0,17,18
 641 1130 641 1130 561 1097.5 c 128,-1,19
 481 1065 481 1065 423 1005.5 c 128,-1,20
 365 946 365 946 332 861 c 128,-1,21
 299 776 299 776 299 670 c 0,22,23
 299 566 299 566 332 475.5 c 128,-1,24
 365 385 365 385 423 320.5 c 128,-1,25
 481 256 481 256 562 219 c 128,-1,26
 643 182 643 182 739 182 c 0,27,28
 825 182 825 182 886.5 199.5 c 128,-1,29
 948 217 948 217 1001 246 c 1,30,-1
 1001 553 l 1,31,-1
 745 553 l 2,32,33
 708 553 708 553 685 574.5 c 128,-1,34
 662 596 662 596 662 655 c 0,35,36
 662 710 662 710 672 748 c 1,37,-1
 1102 748 l 2,38,39
 1178 748 1178 748 1199.5 718 c 128,-1,40
 1221 688 1221 688 1221 641 c 2,41,-1
 1221 115 l 1,42,43
 1110 49 1110 49 994 13 c 128,-1,44
 878 -23 878 -23 731 -23 c 0,45,46
 579 -23 579 -23 455.5 32.5 c 128,-1,47
 332 88 332 88 244 182 c 128,-1,48
 156 276 156 276 107.5 402 c 128,-1,49
 59 528 59 528 59 670 c 0,0,1
EndSplineSet
EndChar

StartChar: H
Encoding: 72 72 43
Width: 1357
GlyphClass: 2
Flags: W
LayerCount: 2
Fore
SplineSet
137 -2 m 1,0,-1
 137 1239 l 2,1,2
 137 1280 137 1280 162.5 1307.5 c 128,-1,3
 188 1335 188 1335 254 1335 c 0,4,5
 287 1335 287 1335 318.5 1332 c 128,-1,6
 350 1329 350 1329 367 1325 c 1,7,-1
 367 766 l 1,8,-1
 989 766 l 1,9,-1
 989 1239 l 2,10,11
 989 1280 989 1280 1014.5 1307.5 c 128,-1,12
 1040 1335 1040 1335 1106 1335 c 0,13,14
 1139 1335 1139 1335 1171.5 1332 c 128,-1,15
 1204 1329 1204 1329 1221 1325 c 1,16,-1
 1221 84 l 2,17,18
 1221 43 1221 43 1195 15.5 c 128,-1,19
 1169 -12 1169 -12 1104 -12 c 0,20,21
 1071 -12 1071 -12 1038.5 -9 c 128,-1,22
 1006 -6 1006 -6 989 -2 c 1,23,-1
 989 567 l 1,24,-1
 367 567 l 1,25,-1
 367 84 l 2,26,27
 367 43 367 43 341.5 15.5 c 128,-1,28
 316 -12 316 -12 250 -12 c 0,29,30
 217 -12 217 -12 185.5 -9 c 128,-1,31
 154 -6 154 -6 137 -2 c 1,0,-1
EndSplineSet
EndChar

StartChar: I
Encoding: 73 73 44
Width: 499
GlyphClass: 2
Flags: W
LayerCount: 2
Fore
SplineSet
135 -2 m 1,0,-1
 135 1239 l 2,1,2
 135 1280 135 1280 160.5 1307.5 c 128,-1,3
 186 1335 186 1335 252 1335 c 0,4,5
 285 1335 285 1335 316.5 1332 c 128,-1,6
 348 1329 348 1329 365 1325 c 1,7,-1
 365 84 l 2,8,9
 365 43 365 43 339.5 15.5 c 128,-1,10
 314 -12 314 -12 248 -12 c 0,11,12
 215 -12 215 -12 183.5 -9 c 128,-1,13
 152 -6 152 -6 135 -2 c 1,0,-1
EndSplineSet
EndChar

StartChar: J
Encoding: 74 74 45
Width: 917
GlyphClass: 2
Flags: W
LayerCount: 2
Fore
SplineSet
16 127 m 0,0,1
 16 193 16 193 45 226.5 c 128,-1,2
 74 260 74 260 115 260 c 0,3,4
 140 260 140 260 167.5 250 c 128,-1,5
 195 240 195 240 227.5 227.5 c 128,-1,6
 260 215 260 215 297 205 c 128,-1,7
 334 195 334 195 377 195 c 0,8,9
 455 195 455 195 506 242 c 128,-1,10
 557 289 557 289 557 393 c 2,11,-1
 557 1239 l 2,12,13
 557 1280 557 1280 582.5 1307.5 c 128,-1,14
 608 1335 608 1335 674 1335 c 0,15,16
 707 1335 707 1335 738.5 1332 c 128,-1,17
 770 1329 770 1329 786 1325 c 1,18,-1
 786 379 l 2,19,20
 786 182 786 182 679.5 84 c 128,-1,21
 573 -14 573 -14 389 -14 c 0,22,23
 346 -14 346 -14 281.5 -6 c 128,-1,24
 217 2 217 2 158.5 19.5 c 128,-1,25
 100 37 100 37 58 63.5 c 128,-1,26
 16 90 16 90 16 127 c 0,0,1
EndSplineSet
EndChar

StartChar: K
Encoding: 75 75 46
Width: 1161
GlyphClass: 2
Flags: W
LayerCount: 2
Fore
SplineSet
135 -2 m 1,0,-1
 135 1239 l 2,1,2
 135 1280 135 1280 160.5 1307.5 c 128,-1,3
 186 1335 186 1335 252 1335 c 0,4,5
 285 1335 285 1335 316.5 1332 c 128,-1,6
 348 1329 348 1329 365 1325 c 1,7,-1
 365 715 l 1,8,-1
 836 1270 l 2,9,10
 865 1305 865 1305 896.5 1320 c 128,-1,11
 928 1335 928 1335 985 1335 c 0,12,13
 1018 1335 1018 1335 1060 1326 c 128,-1,14
 1102 1317 1102 1317 1130 1300 c 1,15,-1
 594 684 l 1,16,-1
 1167 25 l 1,17,18
 1136 9 1136 9 1094.5 -1.5 c 128,-1,19
 1053 -12 1053 -12 1018 -12 c 0,20,21
 959 -12 959 -12 925 5.5 c 128,-1,22
 891 23 891 23 860 57 c 2,23,-1
 365 631 l 1,24,-1
 365 84 l 2,25,26
 365 43 365 43 339.5 15.5 c 128,-1,27
 314 -12 314 -12 248 -12 c 0,28,29
 215 -12 215 -12 183.5 -9 c 128,-1,30
 152 -6 152 -6 135 -2 c 1,0,-1
EndSplineSet
EndChar

StartChar: L
Encoding: 76 76 47
Width: 1024
GlyphClass: 2
Flags: W
LayerCount: 2
Fore
SplineSet
127 106 m 2,0,-1
 127 1239 l 2,1,2
 127 1280 127 1280 152.5 1307.5 c 128,-1,3
 178 1335 178 1335 244 1335 c 0,4,5
 277 1335 277 1335 308.5 1332 c 128,-1,6
 340 1329 340 1329 356 1325 c 1,7,-1
 356 209 l 1,8,-1
 989 209 l 1,9,10
 993 186 993 186 996 162.5 c 128,-1,11
 999 139 999 139 999 115 c 0,12,13
 999 49 999 49 971.5 24.5 c 128,-1,14
 944 0 944 0 895 0 c 2,15,-1
 246 0 l 2,16,17
 170 0 170 0 148.5 29.5 c 128,-1,18
 127 59 127 59 127 106 c 2,0,-1
EndSplineSet
EndChar

StartChar: M
Encoding: 77 77 48
Width: 1581
GlyphClass: 2
Flags: W
LayerCount: 2
Fore
SplineSet
76 12 m 1,0,-1
 209 1309 l 1,1,2
 238 1321 238 1321 284 1328 c 128,-1,3
 330 1335 330 1335 362 1335 c 0,4,5
 454 1335 454 1335 502.5 1307.5 c 128,-1,6
 551 1280 551 1280 567 1210 c 2,7,-1
 793 319 l 1,8,-1
 1020 1204 l 2,9,10
 1036 1274 1036 1274 1085.5 1304.5 c 128,-1,11
 1135 1335 1135 1335 1221 1335 c 0,12,13
 1262 1335 1262 1335 1305 1329 c 128,-1,14
 1348 1323 1348 1323 1376 1315 c 1,15,-1
 1505 12 l 1,16,17
 1485 4 1485 4 1457.5 -3 c 128,-1,18
 1430 -10 1430 -10 1395 -10 c 0,19,20
 1348 -10 1348 -10 1317 6.5 c 128,-1,21
 1286 23 1286 23 1282 68 c 2,22,-1
 1194 1120 l 1,23,-1
 944 188 l 2,24,25
 928 131 928 131 888 109.5 c 128,-1,26
 848 88 848 88 786 88 c 0,27,28
 755 88 755 88 721.5 92 c 128,-1,29
 688 96 688 96 666 104 c 1,30,-1
 383 1120 l 1,31,-1
 289 66 l 2,32,33
 285 23 285 23 254 6.5 c 128,-1,34
 223 -10 223 -10 180 -10 c 0,35,36
 145 -10 145 -10 119.5 -3 c 128,-1,37
 94 4 94 4 76 12 c 1,0,-1
EndSplineSet
EndChar

StartChar: N
Encoding: 78 78 49
Width: 1366
GlyphClass: 2
Flags: W
LayerCount: 2
Fore
SplineSet
135 -4 m 1,0,-1
 135 1315 l 1,1,2
 158 1325 158 1325 192.5 1330 c 128,-1,3
 227 1335 227 1335 256 1335 c 0,4,5
 338 1335 338 1335 374 1313.5 c 128,-1,6
 410 1292 410 1292 436 1251 c 2,7,-1
 1032 330 l 1,8,-1
 1020 1245 l 2,9,10
 1020 1282 1020 1282 1043.5 1308.5 c 128,-1,11
 1067 1335 1067 1335 1128 1335 c 0,12,13
 1157 1335 1157 1335 1187 1332 c 128,-1,14
 1217 1329 1217 1329 1233 1325 c 1,15,-1
 1233 6 l 1,16,17
 1186 -12 1186 -12 1122 -12 c 0,18,19
 1048 -12 1048 -12 1013.5 9.5 c 128,-1,20
 979 31 979 31 956 66 c 2,21,-1
 340 1026 l 1,22,-1
 352 78 l 2,23,24
 352 39 352 39 328.5 13.5 c 128,-1,25
 305 -12 305 -12 242 -12 c 0,26,27
 211 -12 211 -12 181.5 -10 c 128,-1,28
 152 -8 152 -8 135 -4 c 1,0,-1
EndSplineSet
EndChar

StartChar: O
Encoding: 79 79 50
Width: 1421
GlyphClass: 2
Flags: W
LayerCount: 2
Fore
SplineSet
55 670 m 0,0,1
 55 813 55 813 103.5 939 c 128,-1,2
 152 1065 152 1065 238 1157 c 128,-1,3
 324 1249 324 1249 444.5 1302.5 c 128,-1,4
 565 1356 565 1356 711 1356 c 0,5,6
 856 1356 856 1356 977 1302.5 c 128,-1,7
 1098 1249 1098 1249 1184 1157 c 128,-1,8
 1270 1065 1270 1065 1318 940 c 128,-1,9
 1366 815 1366 815 1366 670 c 256,10,11
 1366 525 1366 525 1318 398.5 c 128,-1,12
 1270 272 1270 272 1184 177 c 128,-1,13
 1098 82 1098 82 977 27.5 c 128,-1,14
 856 -27 856 -27 711 -27 c 256,15,16
 566 -27 566 -27 445 27.5 c 128,-1,17
 324 82 324 82 238 177 c 128,-1,18
 152 272 152 272 103.5 398 c 128,-1,19
 55 524 55 524 55 670 c 0,0,1
295 670 m 0,20,21
 295 564 295 564 326.5 473.5 c 128,-1,22
 358 383 358 383 414.5 317.5 c 128,-1,23
 471 252 471 252 547 215 c 128,-1,24
 623 178 623 178 709 178 c 256,25,26
 795 178 795 178 870.5 216 c 128,-1,27
 946 254 946 254 1003.5 319.5 c 128,-1,28
 1061 385 1061 385 1093.5 475 c 128,-1,29
 1126 565 1126 565 1126 668 c 0,30,31
 1126 770 1126 770 1094.5 859 c 128,-1,32
 1063 948 1063 948 1006.5 1012.5 c 128,-1,33
 950 1077 950 1077 874.5 1114 c 128,-1,34
 799 1151 799 1151 711 1151 c 0,35,36
 625 1151 625 1151 549 1115 c 128,-1,37
 473 1079 473 1079 416.5 1014.5 c 128,-1,38
 360 950 360 950 327.5 862 c 128,-1,39
 295 774 295 774 295 670 c 0,20,21
EndSplineSet
EndChar

StartChar: P
Encoding: 80 80 51
Width: 1120
GlyphClass: 2
Flags: W
LayerCount: 2
Fore
SplineSet
135 -2 m 1,0,-1
 135 1225 l 2,1,2
 135 1272 135 1272 156.5 1301.5 c 128,-1,3
 178 1331 178 1331 254 1331 c 2,4,-1
 555 1331 l 2,5,6
 686 1331 686 1331 785.5 1296.5 c 128,-1,7
 885 1262 885 1262 950.5 1200.5 c 128,-1,8
 1016 1139 1016 1139 1048.5 1056 c 128,-1,9
 1081 973 1081 973 1081 879 c 0,10,11
 1081 779 1081 779 1045.5 694.5 c 128,-1,12
 1010 610 1010 610 943.5 549.5 c 128,-1,13
 877 489 877 489 783.5 455.5 c 128,-1,14
 690 422 690 422 575 422 c 2,15,-1
 365 422 l 1,16,-1
 365 84 l 2,17,18
 365 43 365 43 339.5 15.5 c 128,-1,19
 314 -12 314 -12 248 -12 c 0,20,21
 215 -12 215 -12 183.5 -9 c 128,-1,22
 152 -6 152 -6 135 -2 c 1,0,-1
365 625 m 1,23,-1
 539 625 l 2,24,25
 699 625 699 625 772.5 692.5 c 128,-1,26
 846 760 846 760 846 877 c 0,27,28
 846 996 846 996 772 1059 c 128,-1,29
 698 1122 698 1122 557 1122 c 2,30,-1
 365 1122 l 1,31,-1
 365 625 l 1,23,-1
EndSplineSet
EndChar

StartChar: Q
Encoding: 81 81 52
Width: 1427
GlyphClass: 2
Flags: W
LayerCount: 2
Fore
SplineSet
55 670 m 0,0,1
 55 813 55 813 103.5 939 c 128,-1,2
 152 1065 152 1065 238 1157 c 128,-1,3
 324 1249 324 1249 444.5 1302.5 c 128,-1,4
 565 1356 565 1356 711 1356 c 0,5,6
 856 1356 856 1356 977 1302.5 c 128,-1,7
 1098 1249 1098 1249 1184 1157 c 128,-1,8
 1270 1065 1270 1065 1318 940 c 128,-1,9
 1366 815 1366 815 1366 670 c 0,10,11
 1366 533 1366 533 1323 412 c 128,-1,12
 1280 291 1280 291 1202 197.5 c 128,-1,13
 1124 104 1124 104 1014.5 46 c 128,-1,14
 905 -12 905 -12 772 -25 c 1,15,-1
 1321 -150 l 1,16,17
 1321 -242 1321 -242 1282 -286 c 128,-1,18
 1243 -330 1243 -330 1180 -330 c 0,19,20
 1151 -328 1151 -328 1123.5 -325 c 128,-1,21
 1096 -322 1096 -322 1063 -313 c 2,22,-1
 510 -182 l 1,23,-1
 510 -170 l 2,24,25
 510 -55 510 -55 625 -20 c 1,26,27
 496 -6 496 -6 391.5 54.5 c 128,-1,28
 287 115 287 115 212 207 c 128,-1,29
 137 299 137 299 96 418 c 128,-1,30
 55 537 55 537 55 670 c 0,0,1
295 670 m 0,31,32
 295 564 295 564 326.5 473.5 c 128,-1,33
 358 383 358 383 414.5 317.5 c 128,-1,34
 471 252 471 252 547 215 c 128,-1,35
 623 178 623 178 709 178 c 256,36,37
 795 178 795 178 870.5 216 c 128,-1,38
 946 254 946 254 1003.5 319.5 c 128,-1,39
 1061 385 1061 385 1093.5 475 c 128,-1,40
 1126 565 1126 565 1126 668 c 0,41,42
 1126 770 1126 770 1094.5 859 c 128,-1,43
 1063 948 1063 948 1006.5 1012.5 c 128,-1,44
 950 1077 950 1077 874.5 1114 c 128,-1,45
 799 1151 799 1151 711 1151 c 0,46,47
 625 1151 625 1151 549 1115 c 128,-1,48
 473 1079 473 1079 416.5 1014.5 c 128,-1,49
 360 950 360 950 327.5 862 c 128,-1,50
 295 774 295 774 295 670 c 0,31,32
EndSplineSet
EndChar

StartChar: R
Encoding: 82 82 53
Width: 1155
GlyphClass: 2
Flags: W
LayerCount: 2
Fore
SplineSet
135 -2 m 1,0,-1
 135 1225 l 2,1,2
 135 1272 135 1272 156.5 1301.5 c 128,-1,3
 178 1331 178 1331 254 1331 c 2,4,-1
 588 1331 l 2,5,6
 817 1331 817 1331 944 1221.5 c 128,-1,7
 1071 1112 1071 1112 1071 920 c 0,8,9
 1071 840 1071 840 1045.5 771 c 128,-1,10
 1020 702 1020 702 973 649 c 128,-1,11
 926 596 926 596 858.5 561 c 128,-1,12
 791 526 791 526 705 516 c 1,13,-1
 1118 25 l 1,14,15
 1085 7 1085 7 1046.5 -2.5 c 128,-1,16
 1008 -12 1008 -12 973 -12 c 0,17,18
 907 -12 907 -12 869 7.5 c 128,-1,19
 831 27 831 27 791 78 c 2,20,-1
 457 506 l 1,21,-1
 365 506 l 1,22,-1
 365 84 l 2,23,24
 365 43 365 43 339.5 15.5 c 128,-1,25
 314 -12 314 -12 248 -12 c 0,26,27
 215 -12 215 -12 183.5 -9 c 128,-1,28
 152 -6 152 -6 135 -2 c 1,0,-1
365 702 m 1,29,-1
 553 702 l 2,30,31
 709 702 709 702 775.5 760.5 c 128,-1,32
 842 819 842 819 842 920 c 0,33,34
 842 1018 842 1018 781.5 1070 c 128,-1,35
 721 1122 721 1122 590 1122 c 2,36,-1
 365 1122 l 1,37,-1
 365 702 l 1,29,-1
EndSplineSet
EndChar

StartChar: S
Encoding: 83 83 54
Width: 1110
GlyphClass: 2
Flags: W
LayerCount: 2
Fore
SplineSet
72 92 m 0,0,1
 72 160 72 160 96.5 202 c 128,-1,2
 121 244 121 244 176 244 c 0,3,4
 203 244 203 244 239.5 235.5 c 128,-1,5
 276 227 276 227 322.5 217 c 128,-1,6
 369 207 369 207 425 198.5 c 128,-1,7
 481 190 481 190 549 190 c 0,8,9
 690 190 690 190 750.5 241.5 c 128,-1,10
 811 293 811 293 811 371 c 0,11,12
 811 410 811 410 796.5 437.5 c 128,-1,13
 782 465 782 465 755.5 484.5 c 128,-1,14
 729 504 729 504 691 518 c 128,-1,15
 653 532 653 532 604 547 c 2,16,-1
 434 594 l 2,17,18
 233 649 233 649 154.5 747.5 c 128,-1,19
 76 846 76 846 76 973 c 0,20,21
 76 1036 76 1036 98.5 1102.5 c 128,-1,22
 121 1169 121 1169 176 1222.5 c 128,-1,23
 231 1276 231 1276 323.5 1311 c 128,-1,24
 416 1346 416 1346 555 1346 c 0,25,26
 649 1346 649 1346 756.5 1327.5 c 128,-1,27
 864 1309 864 1309 981 1268 c 1,28,-1
 981 1239 l 2,29,30
 981 1169 981 1169 957.5 1130.5 c 128,-1,31
 934 1092 934 1092 881 1092 c 0,32,33
 854 1092 854 1092 822.5 1099 c 128,-1,34
 791 1106 791 1106 751 1113 c 128,-1,35
 711 1120 711 1120 659.5 1127.5 c 128,-1,36
 608 1135 608 1135 545 1135 c 0,37,38
 473 1135 473 1135 426 1121.5 c 128,-1,39
 379 1108 379 1108 350.5 1085.5 c 128,-1,40
 322 1063 322 1063 309.5 1035.5 c 128,-1,41
 297 1008 297 1008 297 979 c 0,42,43
 297 911 297 911 343 876.5 c 128,-1,44
 389 842 389 842 508 809 c 2,45,-1
 688 758 l 1,46,47
 1046 664 1046 664 1047 385 c 0,48,49
 1047 295 1047 295 1017 221 c 128,-1,50
 987 147 987 147 923.5 94 c 128,-1,51
 860 41 860 41 763.5 11.5 c 128,-1,52
 667 -18 667 -18 532 -18 c 0,53,54
 432 -18 432 -18 314.5 2.5 c 128,-1,55
 197 23 197 23 74 63 c 1,56,57
 74 71 74 71 73 77.5 c 128,-1,58
 72 84 72 84 72 92 c 0,0,1
EndSplineSet
EndChar

StartChar: T
Encoding: 84 84 55
Width: 1073
GlyphClass: 2
Flags: W
LayerCount: 2
Fore
SplineSet
6 1225 m 0,0,1
 6 1291 6 1291 32.5 1311 c 128,-1,2
 59 1331 59 1331 100 1331 c 2,3,-1
 1059 1331 l 1,4,5
 1067 1300 1067 1300 1067 1237 c 0,6,7
 1067 1122 1067 1122 973 1122 c 2,8,-1
 653 1122 l 1,9,-1
 653 84 l 2,10,11
 653 43 653 43 628 15.5 c 128,-1,12
 603 -12 603 -12 537 -12 c 0,13,14
 504 -12 504 -12 472 -9 c 128,-1,15
 440 -6 440 -6 424 -2 c 1,16,-1
 424 1122 l 1,17,-1
 14 1122 l 1,18,19
 10 1138 10 1138 8 1166 c 128,-1,20
 6 1194 6 1194 6 1225 c 0,0,1
EndSplineSet
EndChar

StartChar: U
Encoding: 85 85 56
Width: 1325
GlyphClass: 2
Flags: W
LayerCount: 2
Fore
SplineSet
111 551 m 2,0,-1
 111 1239 l 2,1,2
 111 1280 111 1280 136.5 1307.5 c 128,-1,3
 162 1335 162 1335 227 1335 c 0,4,5
 260 1335 260 1335 292 1332 c 128,-1,6
 324 1329 324 1329 340 1325 c 1,7,-1
 340 545 l 2,8,9
 340 379 340 379 423 279.5 c 128,-1,10
 506 180 506 180 659 180 c 0,11,12
 806 180 806 180 893.5 279.5 c 128,-1,13
 981 379 981 379 981 545 c 2,14,-1
 981 1239 l 2,15,16
 981 1280 981 1280 1006.5 1307.5 c 128,-1,17
 1032 1335 1032 1335 1098 1335 c 0,18,19
 1131 1335 1131 1335 1161.5 1332 c 128,-1,20
 1192 1329 1192 1329 1208 1325 c 1,21,-1
 1208 551 l 2,22,23
 1208 430 1208 430 1171.5 325.5 c 128,-1,24
 1135 221 1135 221 1065 142 c 128,-1,25
 995 63 995 63 891.5 18 c 128,-1,26
 788 -27 788 -27 657 -27 c 0,27,28
 524 -27 524 -27 423 18 c 128,-1,29
 322 63 322 63 252 142 c 128,-1,30
 182 221 182 221 146.5 325.5 c 128,-1,31
 111 430 111 430 111 551 c 2,0,-1
EndSplineSet
EndChar

StartChar: V
Encoding: 86 86 57
Width: 1216
GlyphClass: 2
Flags: W
LayerCount: 2
Fore
SplineSet
14 1311 m 1,0,1
 39 1321 39 1321 75 1330 c 128,-1,2
 111 1339 111 1339 137 1339 c 0,3,4
 184 1339 184 1339 219 1328 c 128,-1,5
 254 1317 254 1317 270 1270 c 2,6,-1
 621 203 l 1,7,-1
 967 1270 l 2,8,9
 983 1315 983 1315 1016 1327 c 128,-1,10
 1049 1339 1049 1339 1094 1339 c 0,11,12
 1123 1339 1123 1339 1158.5 1333 c 128,-1,13
 1194 1327 1194 1327 1214 1315 c 1,14,-1
 793 86 l 2,15,16
 770 25 770 25 728 3.5 c 128,-1,17
 686 -18 686 -18 608 -18 c 0,18,19
 573 -18 573 -18 536.5 -13 c 128,-1,20
 500 -8 500 -8 467 4 c 1,21,-1
 14 1311 l 1,0,1
EndSplineSet
EndChar

StartChar: W
Encoding: 87 87 58
Width: 1689
GlyphClass: 2
Flags: W
LayerCount: 2
Fore
SplineSet
31 1309 m 1,0,1
 54 1319 54 1319 83.5 1327 c 128,-1,2
 113 1335 113 1335 152 1335 c 0,3,4
 201 1335 201 1335 233.5 1316.5 c 128,-1,5
 266 1298 266 1298 276 1247 c 2,6,-1
 379 692 l 2,7,8
 402 567 402 567 424 437 c 128,-1,9
 446 307 446 307 463 195 c 1,10,11
 479 310 479 310 505.5 434.5 c 128,-1,12
 532 559 532 559 567 700 c 2,13,-1
 698 1239 l 2,14,15
 710 1292 710 1292 754.5 1313.5 c 128,-1,16
 799 1335 799 1335 866 1335 c 0,17,18
 934 1335 934 1335 989 1319 c 1,19,-1
 1137 700 l 2,20,21
 1168 571 1168 571 1195.5 439 c 128,-1,22
 1223 307 1223 307 1243 195 c 1,23,24
 1251 250 1251 250 1262.5 316.5 c 128,-1,25
 1274 383 1274 383 1286 451.5 c 128,-1,26
 1298 520 1298 520 1310.5 585.5 c 128,-1,27
 1323 651 1323 651 1333 707 c 2,28,-1
 1430 1253 l 2,29,30
 1438 1300 1438 1300 1468.5 1317.5 c 128,-1,31
 1499 1335 1499 1335 1546 1335 c 0,32,33
 1581 1335 1581 1335 1609.5 1328 c 128,-1,34
 1638 1321 1638 1321 1659 1313 c 1,35,-1
 1405 88 l 2,36,37
 1391 22 1391 22 1348 4 c 128,-1,38
 1305 -14 1305 -14 1237 -14 c 0,39,40
 1206 -14 1206 -14 1165 -11 c 128,-1,41
 1124 -8 1124 -8 1096 2 c 1,42,-1
 924 707 l 2,43,44
 916 744 916 744 906.5 787.5 c 128,-1,45
 897 831 897 831 888 880.5 c 128,-1,46
 879 930 879 930 868.5 981 c 128,-1,47
 858 1032 858 1032 846 1079 c 1,48,49
 826 981 826 981 804 881.5 c 128,-1,50
 782 782 782 782 764 707 c 2,51,-1
 614 88 l 2,52,53
 598 25 598 25 560.5 5.5 c 128,-1,54
 523 -14 523 -14 457 -14 c 0,55,56
 424 -14 424 -14 380 -10 c 128,-1,57
 336 -6 336 -6 307 4 c 1,58,-1
 31 1309 l 1,0,1
EndSplineSet
EndChar

StartChar: X
Encoding: 88 88 59
Width: 1191
GlyphClass: 2
Flags: W
LayerCount: 2
Fore
SplineSet
20 18 m 1,0,-1
 455 678 l 1,1,-1
 37 1303 l 1,2,3
 66 1319 66 1319 104.5 1327 c 128,-1,4
 143 1335 143 1335 174 1335 c 0,5,6
 227 1335 227 1335 262 1322 c 128,-1,7
 297 1309 297 1309 322 1270 c 2,8,-1
 600 819 l 1,9,-1
 879 1270 l 2,10,11
 902 1307 902 1307 932.5 1321 c 128,-1,12
 963 1335 963 1335 1010 1335 c 0,13,14
 1039 1335 1039 1335 1077.5 1328 c 128,-1,15
 1116 1321 1116 1321 1141 1305 c 1,16,-1
 731 668 l 1,17,-1
 1169 20 l 1,18,19
 1140 4 1140 4 1100.5 -4 c 128,-1,20
 1061 -12 1061 -12 1030 -12 c 0,21,22
 977 -12 977 -12 941 1 c 128,-1,23
 905 14 905 14 881 53 c 2,24,-1
 586 512 l 1,25,-1
 297 57 l 2,26,27
 272 18 272 18 241.5 3 c 128,-1,28
 211 -12 211 -12 160 -12 c 0,29,30
 127 -12 127 -12 86 -5 c 128,-1,31
 45 2 45 2 20 18 c 1,0,-1
EndSplineSet
EndChar

StartChar: Y
Encoding: 89 89 60
Width: 1181
GlyphClass: 2
Flags: W
LayerCount: 2
Fore
SplineSet
-2 1303 m 1,0,1
 27 1319 27 1319 65.5 1327 c 128,-1,2
 104 1335 104 1335 135 1335 c 0,3,4
 188 1335 188 1335 224 1322 c 128,-1,5
 260 1309 260 1309 285 1270 c 2,6,-1
 604 756 l 1,7,-1
 922 1268 l 2,8,9
 945 1307 945 1307 975.5 1321 c 128,-1,10
 1006 1335 1006 1335 1055 1335 c 0,11,12
 1084 1335 1084 1335 1122.5 1328 c 128,-1,13
 1161 1321 1161 1321 1186 1305 c 1,14,-1
 711 565 l 1,15,-1
 711 84 l 2,16,17
 711 43 711 43 685.5 15.5 c 128,-1,18
 660 -12 660 -12 594 -12 c 0,19,20
 561 -12 561 -12 529.5 -9 c 128,-1,21
 498 -6 498 -6 481 -2 c 1,22,-1
 481 563 l 1,23,-1
 -2 1303 l 1,0,1
EndSplineSet
EndChar

StartChar: Z
Encoding: 90 90 61
Width: 1095
GlyphClass: 2
Flags: W
LayerCount: 2
Fore
SplineSet
63 98 m 0,0,1
 63 135 63 135 75.5 170 c 128,-1,2
 88 205 88 205 117 246 c 2,3,-1
 748 1122 l 1,4,-1
 160 1122 l 2,5,6
 121 1122 121 1122 95.5 1144.5 c 128,-1,7
 70 1167 70 1167 70 1231 c 0,8,9
 70 1262 70 1262 72 1288.5 c 128,-1,10
 74 1315 74 1315 78 1331 c 1,11,-1
 1006 1331 l 1,12,13
 1010 1315 1010 1315 1014 1285 c 128,-1,14
 1018 1255 1018 1255 1018 1227 c 0,15,16
 1018 1186 1018 1186 1005.5 1149 c 128,-1,17
 993 1112 993 1112 963 1069 c 2,18,-1
 340 209 l 1,19,-1
 1022 209 l 1,20,21
 1026 193 1026 193 1028 166 c 128,-1,22
 1030 139 1030 139 1030 111 c 0,23,24
 1030 48 1030 48 1004.5 24 c 128,-1,25
 979 0 979 0 940 0 c 2,26,-1
 76 0 l 1,27,28
 72 16 72 16 67.5 41 c 128,-1,29
 63 66 63 66 63 98 c 0,0,1
EndSplineSet
EndChar

StartChar: bracketleft
Encoding: 91 91 62
Width: 770
GlyphClass: 2
Flags: W
LayerCount: 2
Fore
SplineSet
115 -307 m 2,0,-1
 115 1427 l 2,1,2
 115 1470 115 1470 134.5 1498 c 128,-1,3
 154 1526 154 1526 223 1526 c 2,4,-1
 637 1526 l 1,5,6
 641 1512 641 1512 644 1486 c 128,-1,7
 647 1460 647 1460 647 1434 c 0,8,9
 647 1379 647 1379 623.5 1357 c 128,-1,10
 600 1335 600 1335 565 1335 c 2,11,-1
 324 1335 l 1,12,-1
 324 -215 l 1,13,-1
 637 -215 l 1,14,15
 641 -229 641 -229 644 -255 c 128,-1,16
 647 -281 647 -281 647 -307 c 0,17,18
 647 -362 647 -362 623.5 -384 c 128,-1,19
 600 -406 600 -406 565 -406 c 2,20,-1
 223 -406 l 2,21,22
 153 -406 153 -406 134 -378 c 128,-1,23
 115 -350 115 -350 115 -307 c 2,0,-1
EndSplineSet
EndChar

StartChar: backslash
Encoding: 92 92 63
Width: 722
GlyphClass: 2
Flags: W
LayerCount: 2
Fore
SplineSet
39 1343 m 1,0,1
 82 1363 82 1363 147 1364 c 0,2,3
 184 1364 184 1364 214 1352.5 c 128,-1,4
 244 1341 244 1341 254 1305 c 2,5,-1
 641 -66 l 1,6,7
 618 -74 618 -74 591.5 -79 c 128,-1,8
 565 -84 565 -84 532 -84 c 0,9,10
 497 -84 497 -84 466.5 -73.5 c 128,-1,11
 436 -63 436 -63 426 -25 c 2,12,-1
 39 1343 l 1,0,1
EndSplineSet
EndChar

StartChar: bracketright
Encoding: 93 93 64
Width: 770
GlyphClass: 2
Flags: W
LayerCount: 2
Fore
SplineSet
113 -313 m 0,0,1
 113 -258 113 -258 136.5 -236.5 c 128,-1,2
 160 -215 160 -215 195 -215 c 2,3,-1
 436 -215 l 1,4,-1
 436 1335 l 1,5,-1
 123 1335 l 1,6,7
 119 1349 119 1349 116 1375 c 128,-1,8
 113 1401 113 1401 113 1427 c 0,9,10
 113 1482 113 1482 136.5 1504 c 128,-1,11
 160 1526 160 1526 195 1526 c 2,12,-1
 537 1526 l 2,13,14
 607 1526 607 1526 626 1498 c 128,-1,15
 645 1470 645 1470 645 1427 c 2,16,-1
 645 -307 l 2,17,18
 645 -350 645 -350 625.5 -378 c 128,-1,19
 606 -406 606 -406 537 -406 c 2,20,-1
 123 -406 l 1,21,22
 119 -392 119 -392 116 -366 c 128,-1,23
 113 -340 113 -340 113 -313 c 0,0,1
EndSplineSet
EndChar

StartChar: asciicircum
Encoding: 94 94 65
Width: 1253
GlyphClass: 2
Flags: W
LayerCount: 2
Fore
SplineSet
315 932 m 1,0,-1
 520 1249 l 1,1,2
 545 1259 545 1259 573.5 1266.5 c 128,-1,3
 602 1274 602 1274 631 1274 c 0,4,5
 690 1274 690 1274 719 1257.5 c 128,-1,6
 748 1241 748 1241 770 1210 c 2,7,-1
 948 934 l 1,8,9
 928 924 928 924 901 917.5 c 128,-1,10
 874 911 874 911 852 911 c 0,11,12
 811 911 811 911 784.5 922.5 c 128,-1,13
 758 934 758 934 741 963 c 2,14,-1
 633 1147 l 1,15,-1
 516 954 l 2,16,17
 488 911 488 911 414 911 c 0,18,19
 387 911 387 911 360.5 917.5 c 128,-1,20
 334 924 334 924 315 932 c 1,0,-1
EndSplineSet
EndChar

StartChar: underscore
Encoding: 95 95 66
Width: 970
GlyphClass: 2
Flags: W
LayerCount: 2
Fore
SplineSet
-14 -154 m 1,0,-1
 985 -154 l 1,1,-1
 985 -256 l 1,2,-1
 -14 -256 l 1,3,-1
 -14 -154 l 1,0,-1
EndSplineSet
EndChar

StartChar: grave
Encoding: 96 96 67
Width: 954
GlyphClass: 2
Flags: W
LayerCount: 2
Fore
SplineSet
393 1348 m 0,0,1
 393 1387 393 1387 414.5 1418.5 c 128,-1,2
 436 1450 436 1450 477 1462 c 1,3,-1
 805 1157 l 1,4,5
 760 1100 760 1100 692 1100 c 0,6,7
 641 1100 641 1100 590 1135 c 2,8,-1
 459 1227 l 2,9,10
 424 1252 424 1252 407.5 1282.5 c 128,-1,11
 391 1313 391 1313 393 1348 c 0,0,1
EndSplineSet
EndChar

StartChar: a
Encoding: 97 97 68
Width: 1056
GlyphClass: 2
Flags: W
LayerCount: 2
Fore
SplineSet
59 283 m 0,0,1
 59 357 59 357 85 418 c 128,-1,2
 111 479 111 479 164 523 c 128,-1,3
 217 567 217 567 298 591.5 c 128,-1,4
 379 616 379 616 492 616 c 0,5,6
 598 616 598 616 733 592 c 1,7,-1
 733 643 l 2,8,9
 733 743 733 743 688 785 c 128,-1,10
 643 827 643 827 526 827 c 0,11,12
 467 827 467 827 422 820 c 128,-1,13
 377 813 377 813 341 804 c 128,-1,14
 305 795 305 795 277.5 787.5 c 128,-1,15
 250 780 250 780 225 780 c 0,16,17
 182 780 182 780 161.5 817 c 128,-1,18
 141 854 141 854 141 907 c 0,19,20
 141 917 141 917 141 926.5 c 128,-1,21
 141 936 141 936 143 946 c 1,22,23
 211 969 211 969 311.5 988.5 c 128,-1,24
 412 1008 412 1008 535 1008 c 0,25,26
 654 1008 654 1008 732.5 981 c 128,-1,27
 811 954 811 954 859 902 c 128,-1,28
 907 850 907 850 926.5 775 c 128,-1,29
 946 700 946 700 946 602 c 2,30,-1
 946 387 l 2,31,32
 946 326 946 326 947 276.5 c 128,-1,33
 948 227 948 227 953 184 c 128,-1,34
 958 141 958 141 966.5 99 c 128,-1,35
 975 57 975 57 989 8 c 1,36,37
 971 0 971 0 943 -6 c 128,-1,38
 915 -12 915 -12 879 -12 c 0,39,40
 838 -12 838 -12 812 3 c 128,-1,41
 786 18 786 18 772 44 c 128,-1,42
 758 70 758 70 753 104.5 c 128,-1,43
 748 139 748 139 745 178 c 1,44,-1
 743 178 l 1,45,46
 718 139 718 139 686.5 103.5 c 128,-1,47
 655 68 655 68 612 41 c 128,-1,48
 569 14 569 14 515 -1 c 128,-1,49
 461 -16 461 -16 391 -16 c 0,50,51
 311 -16 311 -16 248.5 7.5 c 128,-1,52
 186 31 186 31 144 72 c 128,-1,53
 102 113 102 113 80.5 167 c 128,-1,54
 59 221 59 221 59 283 c 0,0,1
281 299 m 0,55,56
 281 233 281 233 328 198.5 c 128,-1,57
 375 164 375 164 451 164 c 0,58,59
 549 164 549 164 621.5 221.5 c 128,-1,60
 694 279 694 279 735 365 c 1,61,-1
 735 451 l 1,62,63
 631 469 631 469 549 469 c 0,64,65
 414 469 414 469 347.5 425 c 128,-1,66
 281 381 281 381 281 299 c 0,55,56
EndSplineSet
EndChar

StartChar: b
Encoding: 98 98 69
Width: 1161
GlyphClass: 2
Flags: W
LayerCount: 2
Fore
SplineSet
111 6 m 1,0,1
 117 104 117 104 119 208.5 c 128,-1,2
 121 313 121 313 121 383 c 2,3,-1
 121 1298 l 2,4,5
 121 1339 121 1339 144.5 1366 c 128,-1,6
 168 1393 168 1393 233 1393 c 0,7,8
 264 1393 264 1393 296 1389.5 c 128,-1,9
 328 1386 328 1386 344 1382 c 1,10,-1
 344 868 l 1,11,12
 391 921 391 921 469 964.5 c 128,-1,13
 547 1008 547 1008 664 1008 c 0,14,15
 744 1008 744 1008 823.5 976 c 128,-1,16
 903 944 903 944 965.5 880.5 c 128,-1,17
 1028 817 1028 817 1067 723 c 128,-1,18
 1106 629 1106 629 1106 504 c 0,19,20
 1106 393 1106 393 1073 299 c 128,-1,21
 1040 205 1040 205 981 134 c 128,-1,22
 922 63 922 63 839.5 23.5 c 128,-1,23
 757 -16 757 -16 659 -16 c 0,24,25
 553 -16 553 -16 466 32 c 128,-1,26
 379 80 379 80 334 166 c 1,27,28
 334 150 334 150 334 120 c 128,-1,29
 334 90 334 90 326.5 62.5 c 128,-1,30
 319 35 319 35 293.5 14.5 c 128,-1,31
 268 -6 268 -6 213 -6 c 0,32,33
 178 -6 178 -6 152.5 -2 c 128,-1,34
 127 2 127 2 111 6 c 1,0,1
344 426 m 2,35,36
 344 373 344 373 363.5 327 c 128,-1,37
 383 281 383 281 417 247 c 128,-1,38
 451 213 451 213 498 193.5 c 128,-1,39
 545 174 545 174 598 174 c 0,40,41
 715 174 715 174 796 257 c 128,-1,42
 877 340 877 340 877 500 c 0,43,44
 877 647 877 647 798 733 c 128,-1,45
 719 819 719 819 594 819 c 0,46,47
 508 819 508 819 443.5 780 c 128,-1,48
 379 741 379 741 344 676 c 1,49,-1
 344 426 l 2,35,36
EndSplineSet
EndChar

StartChar: c
Encoding: 99 99 70
Width: 933
GlyphClass: 2
Flags: W
LayerCount: 2
Fore
SplineSet
55 492 m 0,0,1
 55 598 55 598 91 690 c 128,-1,2
 127 782 127 782 192.5 852 c 128,-1,3
 258 922 258 922 350 961.5 c 128,-1,4
 442 1001 442 1001 555 1001 c 0,5,6
 666 1001 666 1001 742.5 978.5 c 128,-1,7
 819 956 819 956 881 922 c 1,8,9
 883 912 883 912 883 902.5 c 128,-1,10
 883 893 883 893 883 885 c 0,11,12
 883 828 883 828 858.5 794 c 128,-1,13
 834 760 834 760 795 760 c 0,14,15
 777 760 777 760 755 767 c 128,-1,16
 733 774 733 774 707.5 783.5 c 128,-1,17
 682 793 682 793 648 801 c 128,-1,18
 614 809 614 809 569 809 c 0,19,20
 510 809 510 809 459 788.5 c 128,-1,21
 408 768 408 768 369 727 c 128,-1,22
 330 686 330 686 307.5 626.5 c 128,-1,23
 285 567 285 567 285 492 c 0,24,25
 285 416 285 416 307.5 356.5 c 128,-1,26
 330 297 330 297 370 257 c 128,-1,27
 410 217 410 217 463 195.5 c 128,-1,28
 516 174 516 174 578 174 c 0,29,30
 621 174 621 174 655.5 182 c 128,-1,31
 690 190 690 190 717.5 200.5 c 128,-1,32
 745 211 745 211 768 219 c 128,-1,33
 791 227 791 227 809 227 c 0,34,35
 850 227 850 227 874.5 198.5 c 128,-1,36
 899 170 899 170 899 113 c 0,37,38
 899 103 899 103 898 90.5 c 128,-1,39
 897 78 897 78 895 66 c 1,40,41
 823 27 823 27 742 5.5 c 128,-1,42
 661 -16 661 -16 555 -16 c 0,43,44
 442 -16 442 -16 350 23.5 c 128,-1,45
 258 63 258 63 192.5 132 c 128,-1,46
 127 201 127 201 91 293 c 128,-1,47
 55 385 55 385 55 492 c 0,0,1
EndSplineSet
EndChar

StartChar: d
Encoding: 100 100 71
Width: 1161
GlyphClass: 2
Flags: W
LayerCount: 2
Fore
SplineSet
55 500 m 256,0,1
 55 629 55 629 96 724 c 128,-1,2
 137 819 137 819 201.5 882.5 c 128,-1,3
 266 946 266 946 346 977 c 128,-1,4
 426 1008 426 1008 504 1008 c 0,5,6
 608 1008 608 1008 685 969 c 128,-1,7
 762 930 762 930 817 866 c 1,8,-1
 817 1298 l 2,9,10
 817 1339 817 1339 840.5 1366 c 128,-1,11
 864 1393 864 1393 930 1393 c 0,12,13
 961 1393 961 1393 992.5 1389.5 c 128,-1,14
 1024 1386 1024 1386 1040 1382 c 1,15,-1
 1040 391 l 2,16,17
 1040 280 1040 280 1043.5 190 c 128,-1,18
 1047 100 1047 100 1053 2 c 1,19,20
 1037 -2 1037 -2 1008 -6 c 128,-1,21
 979 -10 979 -10 944 -10 c 0,22,23
 897 -10 897 -10 873.5 5 c 128,-1,24
 850 20 850 20 840.5 45 c 128,-1,25
 831 70 831 70 831 98.5 c 128,-1,26
 831 127 831 127 831 156 c 1,27,-1
 829 156 l 1,28,29
 772 64 772 64 687 23 c 128,-1,30
 602 -18 602 -18 498 -18 c 0,31,32
 418 -18 418 -18 339 14.5 c 128,-1,33
 260 47 260 47 196.5 112.5 c 128,-1,34
 133 178 133 178 94 274.5 c 128,-1,35
 55 371 55 371 55 500 c 256,0,1
285 504 m 0,36,37
 285 432 285 432 304.5 370.5 c 128,-1,38
 324 309 324 309 360.5 265 c 128,-1,39
 397 221 397 221 449 196.5 c 128,-1,40
 501 172 501 172 569 172 c 0,41,42
 643 172 643 172 711.5 207 c 128,-1,43
 780 242 780 242 819 313 c 1,44,-1
 819 684 l 1,45,46
 780 754 780 754 712.5 787.5 c 128,-1,47
 645 821 645 821 569 821 c 0,48,49
 503 821 503 821 450 796.5 c 128,-1,50
 397 772 397 772 360.5 730 c 128,-1,51
 324 688 324 688 304.5 629.5 c 128,-1,52
 285 571 285 571 285 504 c 0,36,37
EndSplineSet
EndChar

StartChar: e
Encoding: 101 101 72
Width: 1060
GlyphClass: 2
Flags: W
LayerCount: 2
Fore
SplineSet
55 496 m 256,0,1
 55 607 55 607 92 700 c 128,-1,2
 129 793 129 793 193.5 861.5 c 128,-1,3
 258 930 258 930 346 969 c 128,-1,4
 434 1008 434 1008 537 1008 c 0,5,6
 652 1008 652 1008 739.5 966 c 128,-1,7
 827 924 827 924 885.5 854 c 128,-1,8
 944 784 944 784 974 696 c 128,-1,9
 1004 608 1004 608 1004 516 c 0,10,11
 1004 465 1004 465 993 414 c 1,12,-1
 283 414 l 1,13,14
 297 295 297 295 376 232.5 c 128,-1,15
 455 170 455 170 584 170 c 0,16,17
 639 170 639 170 680 178 c 128,-1,18
 721 186 721 186 753.5 197.5 c 128,-1,19
 786 209 786 209 813 217 c 128,-1,20
 840 225 840 225 866 225 c 0,21,22
 903 225 903 225 926.5 192.5 c 128,-1,23
 950 160 950 160 950 104 c 0,24,25
 950 94 950 94 949 82 c 128,-1,26
 948 70 948 70 946 57 c 1,27,28
 885 28 885 28 793 2.5 c 128,-1,29
 701 -23 701 -23 584 -23 c 0,30,31
 459 -23 459 -23 360.5 16 c 128,-1,32
 262 55 262 55 194.5 125 c 128,-1,33
 127 195 127 195 91 290 c 128,-1,34
 55 385 55 385 55 496 c 256,0,1
281 573 m 1,35,-1
 795 573 l 1,36,37
 785 684 785 684 720 759 c 128,-1,38
 655 834 655 834 537 834 c 0,39,40
 424 834 424 834 357.5 762 c 128,-1,41
 291 690 291 690 281 573 c 1,35,-1
EndSplineSet
EndChar

StartChar: f
Encoding: 102 102 73
Width: 724
GlyphClass: 2
Flags: W
LayerCount: 2
Fore
SplineSet
29 877 m 0,0,1
 29 928 29 928 50.5 948.5 c 128,-1,2
 72 969 72 969 104 969 c 2,3,-1
 174 969 l 1,4,-1
 174 1077 l 2,5,6
 174 1253 174 1253 271.5 1338 c 128,-1,7
 369 1423 369 1423 526 1423 c 0,8,9
 604 1423 604 1423 678 1409 c 128,-1,10
 752 1395 752 1395 805 1376 c 1,11,-1
 805 1346 l 2,12,13
 805 1278 805 1278 781.5 1248.5 c 128,-1,14
 758 1219 758 1219 715 1219 c 0,15,16
 682 1219 682 1219 645 1229 c 128,-1,17
 608 1239 608 1239 543 1239 c 0,18,19
 477 1239 477 1239 437 1200 c 128,-1,20
 397 1161 397 1161 397 1063 c 2,21,-1
 397 969 l 1,22,-1
 705 969 l 1,23,24
 715 938 715 938 715 887 c 256,25,26
 715 836 715 836 693.5 815.5 c 128,-1,27
 672 795 672 795 639 795 c 2,28,-1
 397 795 l 1,29,-1
 397 82 l 2,30,31
 397 41 397 41 373 14.5 c 128,-1,32
 349 -12 349 -12 283 -12 c 0,33,34
 211 -12 211 -12 174 -2 c 1,35,-1
 174 795 l 1,36,-1
 37 795 l 1,37,38
 33 809 33 809 31 831.5 c 128,-1,39
 29 854 29 854 29 877 c 0,0,1
EndSplineSet
EndChar

StartChar: g
Encoding: 103 103 74
Width: 1036
GlyphClass: 2
Flags: W
LayerCount: 2
Fore
SplineSet
41 -109 m 0,0,1
 41 43 41 43 203 125 c 1,2,3
 187 139 187 139 170.5 163.5 c 128,-1,4
 154 188 154 188 154 219 c 0,5,6
 154 266 154 266 180.5 299 c 128,-1,7
 207 332 207 332 260 356 c 1,8,9
 182 395 182 395 126 469 c 128,-1,10
 70 543 70 543 70 653 c 0,11,12
 70 729 70 729 98.5 794.5 c 128,-1,13
 127 860 127 860 181.5 907 c 128,-1,14
 236 954 236 954 314.5 981 c 128,-1,15
 393 1008 393 1008 494 1008 c 0,16,17
 596 1008 596 1008 688 973 c 1,18,19
 717 987 717 987 751.5 1005.5 c 128,-1,20
 786 1024 786 1024 822 1041.5 c 128,-1,21
 858 1059 858 1059 892 1074.5 c 128,-1,22
 926 1090 926 1090 950 1098 c 1,23,24
 973 1088 973 1088 992.5 1064 c 128,-1,25
 1012 1040 1012 1040 1012 1012 c 0,26,27
 1012 975 1012 975 994.5 954.5 c 128,-1,28
 977 934 977 934 948.5 922.5 c 128,-1,29
 920 911 920 911 881 907 c 128,-1,30
 842 903 842 903 799 897 c 1,31,-1
 801 893 l 1,32,33
 854 852 854 852 889 787.5 c 128,-1,34
 924 723 924 723 924 651 c 0,35,36
 924 491 924 491 814.5 399 c 128,-1,37
 705 307 705 307 502 307 c 0,38,39
 453 307 453 307 430.5 312 c 128,-1,40
 408 317 408 317 391 317 c 0,41,42
 362 317 362 317 349 303 c 128,-1,43
 336 289 336 289 336 272 c 0,44,45
 336 243 336 243 367.5 229 c 128,-1,46
 399 215 399 215 453 207 c 2,47,-1
 725 168 l 2,48,49
 883 145 883 145 944.5 75.5 c 128,-1,50
 1006 6 1006 6 1006 -90 c 0,51,52
 1006 -149 1006 -149 979 -207.5 c 128,-1,53
 952 -266 952 -266 894 -313 c 128,-1,54
 836 -360 836 -360 741.5 -389 c 128,-1,55
 647 -418 647 -418 510 -418 c 0,56,57
 393 -418 393 -418 305 -393.5 c 128,-1,58
 217 -369 217 -369 158.5 -328 c 128,-1,59
 100 -287 100 -287 70.5 -230.5 c 128,-1,60
 41 -174 41 -174 41 -109 c 0,0,1
236 -59 m 0,61,62
 236 -145 236 -145 305 -197.5 c 128,-1,63
 374 -250 374 -250 530 -250 c 0,64,65
 598 -250 598 -250 646 -236.5 c 128,-1,66
 694 -223 694 -223 725 -203.5 c 128,-1,67
 756 -184 756 -184 770 -160.5 c 128,-1,68
 784 -137 784 -137 784 -117 c 0,69,70
 784 -70 784 -70 754.5 -50.5 c 128,-1,71
 725 -31 725 -31 647 -16 c 2,72,-1
 453 16 l 2,73,74
 381 28 381 28 347 39.5 c 128,-1,75
 313 51 313 51 293 61 c 1,76,77
 236 16 236 16 236 -59 c 0,61,62
283 653 m 0,78,79
 283 565 283 565 343.5 512 c 128,-1,80
 404 459 404 459 496 459 c 0,81,82
 590 459 590 459 649.5 511 c 128,-1,83
 709 563 709 563 709 651 c 0,84,85
 709 743 709 743 651.5 795.5 c 128,-1,86
 594 848 594 848 496 848 c 0,87,88
 402 848 402 848 342.5 796.5 c 128,-1,89
 283 745 283 745 283 653 c 0,78,79
EndSplineSet
EndChar

StartChar: h
Encoding: 104 104 75
Width: 1118
GlyphClass: 2
Flags: W
LayerCount: 2
Fore
SplineSet
117 -2 m 1,0,-1
 117 1298 l 2,1,2
 117 1339 117 1339 140.5 1366 c 128,-1,3
 164 1393 164 1393 229 1393 c 0,4,5
 260 1393 260 1393 292 1389.5 c 128,-1,6
 324 1386 324 1386 340 1382 c 1,7,-1
 340 844 l 1,8,9
 389 912 389 912 469 960 c 128,-1,10
 549 1008 549 1008 659 1008 c 0,11,12
 733 1008 733 1008 797.5 983 c 128,-1,13
 862 958 862 958 911.5 907 c 128,-1,14
 961 856 961 856 989.5 776 c 128,-1,15
 1018 696 1018 696 1018 586 c 2,16,-1
 1018 82 l 2,17,18
 1018 41 1018 41 993.5 14.5 c 128,-1,19
 969 -12 969 -12 903 -12 c 0,20,21
 872 -12 872 -12 841.5 -9 c 128,-1,22
 811 -6 811 -6 795 -2 c 1,23,-1
 795 561 l 2,24,25
 795 692 795 692 737.5 754.5 c 128,-1,26
 680 817 680 817 575 817 c 0,27,28
 503 817 503 817 437 779 c 128,-1,29
 371 741 371 741 340 682 c 1,30,-1
 340 82 l 2,31,32
 340 41 340 41 316.5 14.5 c 128,-1,33
 293 -12 293 -12 227 -12 c 0,34,35
 196 -12 196 -12 164.5 -9 c 128,-1,36
 133 -6 133 -6 117 -2 c 1,0,-1
EndSplineSet
EndChar

StartChar: i
Encoding: 105 105 76
Width: 460
GlyphClass: 2
Flags: W
LayerCount: 2
Fore
SplineSet
104 1300 m 0,0,1
 104 1353 104 1353 141 1390 c 128,-1,2
 178 1427 178 1427 229 1427 c 0,3,4
 282 1427 282 1427 319 1390.5 c 128,-1,5
 356 1354 356 1354 356 1300 c 0,6,7
 356 1249 356 1249 319 1212.5 c 128,-1,8
 282 1176 282 1176 229 1176 c 0,9,10
 178 1176 178 1176 141 1212.5 c 128,-1,11
 104 1249 104 1249 104 1300 c 0,0,1
117 -2 m 1,12,-1
 117 903 l 2,13,14
 117 944 117 944 141.5 970.5 c 128,-1,15
 166 997 166 997 229 997 c 0,16,17
 262 997 262 997 293 994 c 128,-1,18
 324 991 324 991 340 987 c 1,19,-1
 340 82 l 2,20,21
 340 41 340 41 315.5 14.5 c 128,-1,22
 291 -12 291 -12 225 -12 c 0,23,24
 194 -12 194 -12 163.5 -9 c 128,-1,25
 133 -6 133 -6 117 -2 c 1,12,-1
EndSplineSet
EndChar

StartChar: j
Encoding: 106 106 77
Width: 485
GlyphClass: 2
Flags: W
LayerCount: 2
Fore
SplineSet
-132 -246.5 m 128,-1,1
 -117 -225 -117 -225 -88 -215 c 0,2,3
 -25 -195 -25 -195 17 -177.5 c 128,-1,4
 59 -160 59 -160 85 -133 c 128,-1,5
 111 -106 111 -106 122 -66.5 c 128,-1,6
 133 -27 133 -27 133 41 c 2,7,-1
 133 895 l 2,8,9
 133 936 133 936 157.5 962.5 c 128,-1,10
 182 989 182 989 246 989 c 0,11,12
 279 989 279 989 309.5 986 c 128,-1,13
 340 983 340 983 356 979 c 1,14,-1
 356 78 l 2,15,16
 356 -33 356 -33 328.5 -111.5 c 128,-1,17
 301 -190 301 -190 247 -247.5 c 128,-1,18
 193 -305 193 -305 110.5 -344 c 128,-1,19
 28 -383 28 -383 -78 -412 c 1,20,21
 -147 -362 -147 -362 -147 -299 c 0,22,0
 -147 -268 -147 -268 -132 -246.5 c 128,-1,1
123 1300 m 0,23,24
 123 1353 123 1353 159 1390 c 128,-1,25
 195 1427 195 1427 248 1427 c 0,26,27
 299 1427 299 1427 336 1390.5 c 128,-1,28
 373 1354 373 1354 373 1300 c 0,29,30
 373 1249 373 1249 336 1212.5 c 128,-1,31
 299 1176 299 1176 248 1176 c 0,32,33
 195 1176 195 1176 159 1212.5 c 128,-1,34
 123 1249 123 1249 123 1300 c 0,23,24
EndSplineSet
EndChar

StartChar: k
Encoding: 107 107 78
Width: 1001
GlyphClass: 2
Flags: W
LayerCount: 2
Fore
SplineSet
117 -2 m 1,0,-1
 117 1298 l 2,1,2
 117 1339 117 1339 140.5 1366 c 128,-1,3
 164 1393 164 1393 229 1393 c 0,4,5
 260 1393 260 1393 292 1389.5 c 128,-1,6
 324 1386 324 1386 340 1382 c 1,7,-1
 340 551 l 1,8,-1
 684 926 l 2,9,10
 713 957 713 957 747.5 973 c 128,-1,11
 782 989 782 989 844 989 c 0,12,13
 881 989 881 989 915.5 982 c 128,-1,14
 950 975 950 975 979 965 c 1,15,-1
 561 512 l 1,16,-1
 1006 20 l 1,17,18
 973 4 973 4 933 -4 c 128,-1,19
 893 -12 893 -12 850 -12 c 0,20,21
 789 -12 789 -12 750 14.5 c 128,-1,22
 711 41 711 41 688 66 c 2,23,-1
 340 469 l 1,24,-1
 340 82 l 2,25,26
 340 41 340 41 316.5 14.5 c 128,-1,27
 293 -12 293 -12 227 -12 c 0,28,29
 196 -12 196 -12 164.5 -9 c 128,-1,30
 133 -6 133 -6 117 -2 c 1,0,-1
EndSplineSet
EndChar

StartChar: l
Encoding: 108 108 79
Width: 456
GlyphClass: 2
Flags: W
LayerCount: 2
Fore
SplineSet
117 -2 m 1,0,-1
 117 1298 l 2,1,2
 117 1339 117 1339 140.5 1366 c 128,-1,3
 164 1393 164 1393 229 1393 c 0,4,5
 260 1393 260 1393 292 1389.5 c 128,-1,6
 324 1386 324 1386 340 1382 c 1,7,-1
 340 82 l 2,8,9
 340 41 340 41 316.5 14.5 c 128,-1,10
 293 -12 293 -12 227 -12 c 0,11,12
 196 -12 196 -12 164.5 -9 c 128,-1,13
 133 -6 133 -6 117 -2 c 1,0,-1
EndSplineSet
EndChar

StartChar: m
Encoding: 109 109 80
Width: 1636
GlyphClass: 2
Flags: W
LayerCount: 2
Fore
SplineSet
117 -2 m 1,0,-1
 117 981 l 1,1,2
 140 987 140 987 163 992 c 128,-1,3
 186 997 186 997 215 997 c 0,4,5
 278 997 278 997 306 963.5 c 128,-1,6
 334 930 334 930 334 872 c 1,7,-1
 336 848 l 1,8,9
 379 916 379 916 452.5 962 c 128,-1,10
 526 1008 526 1008 612 1008 c 0,11,12
 712 1008 712 1008 791 957.5 c 128,-1,13
 870 907 870 907 905 809 c 1,14,15
 964 907 964 907 1041 957.5 c 128,-1,16
 1118 1008 1118 1008 1217 1008 c 0,17,18
 1379 1008 1379 1008 1457.5 907.5 c 128,-1,19
 1536 807 1536 807 1536 633 c 2,20,-1
 1536 82 l 2,21,22
 1536 41 1536 41 1512.5 14.5 c 128,-1,23
 1489 -12 1489 -12 1423 -12 c 0,24,25
 1392 -12 1392 -12 1360.5 -9 c 128,-1,26
 1329 -6 1329 -6 1313 -2 c 1,27,-1
 1313 610 l 2,28,29
 1313 714 1313 714 1266 764.5 c 128,-1,30
 1219 815 1219 815 1141 815 c 0,31,32
 1067 815 1067 815 1016 777 c 128,-1,33
 965 739 965 739 938 686 c 1,34,-1
 938 82 l 2,35,36
 938 41 938 41 914.5 14.5 c 128,-1,37
 891 -12 891 -12 825 -12 c 0,38,39
 794 -12 794 -12 762.5 -9 c 128,-1,40
 731 -6 731 -6 715 -2 c 1,41,-1
 715 610 l 2,42,43
 715 710 715 710 669 762.5 c 128,-1,44
 623 815 623 815 537 815 c 0,45,46
 471 815 471 815 419 777 c 128,-1,47
 367 739 367 739 340 688 c 1,48,-1
 340 82 l 2,49,50
 340 41 340 41 316.5 14.5 c 128,-1,51
 293 -12 293 -12 227 -12 c 0,52,53
 196 -12 196 -12 164.5 -9 c 128,-1,54
 133 -6 133 -6 117 -2 c 1,0,-1
EndSplineSet
EndChar

StartChar: n
Encoding: 110 110 81
Width: 1116
GlyphClass: 2
Flags: W
LayerCount: 2
Fore
SplineSet
117 -2 m 1,0,-1
 117 981 l 1,1,2
 140 987 140 987 163 992 c 128,-1,3
 186 997 186 997 215 997 c 0,4,5
 278 997 278 997 306 963.5 c 128,-1,6
 334 930 334 930 334 872 c 1,7,-1
 336 844 l 1,8,9
 387 916 387 916 470 962 c 128,-1,10
 553 1008 553 1008 657 1008 c 0,11,12
 823 1008 823 1008 919.5 899.5 c 128,-1,13
 1016 791 1016 791 1016 588 c 2,14,-1
 1016 82 l 2,15,16
 1016 41 1016 41 992.5 14.5 c 128,-1,17
 969 -12 969 -12 903 -12 c 0,18,19
 872 -12 872 -12 840.5 -9 c 128,-1,20
 809 -6 809 -6 793 -2 c 1,21,-1
 793 563 l 2,22,23
 793 694 793 694 735.5 755.5 c 128,-1,24
 678 817 678 817 573 817 c 0,25,26
 507 817 507 817 441 780 c 128,-1,27
 375 743 375 743 340 682 c 1,28,-1
 340 82 l 2,29,30
 340 41 340 41 316.5 14.5 c 128,-1,31
 293 -12 293 -12 227 -12 c 0,32,33
 196 -12 196 -12 164.5 -9 c 128,-1,34
 133 -6 133 -6 117 -2 c 1,0,-1
EndSplineSet
EndChar

StartChar: o
Encoding: 111 111 82
Width: 1130
GlyphClass: 2
Flags: W
LayerCount: 2
Fore
SplineSet
55 494 m 0,0,1
 55 598 55 598 93 691 c 128,-1,2
 131 784 131 784 198.5 854 c 128,-1,3
 266 924 266 924 360.5 965 c 128,-1,4
 455 1006 455 1006 567 1006 c 0,5,6
 680 1006 680 1006 774 965 c 128,-1,7
 868 924 868 924 934.5 854 c 128,-1,8
 1001 784 1001 784 1038 691 c 128,-1,9
 1075 598 1075 598 1075 494 c 256,10,11
 1075 390 1075 390 1039.5 295.5 c 128,-1,12
 1004 201 1004 201 937 131 c 128,-1,13
 870 61 870 61 776 20.5 c 128,-1,14
 682 -20 682 -20 567 -20 c 256,15,16
 452 -20 452 -20 358 19.5 c 128,-1,17
 264 59 264 59 196.5 128 c 128,-1,18
 129 197 129 197 92 291 c 128,-1,19
 55 385 55 385 55 494 c 0,0,1
283 494 m 0,20,21
 283 412 283 412 307.5 350.5 c 128,-1,22
 332 289 332 289 372 247 c 128,-1,23
 412 205 412 205 463 184.5 c 128,-1,24
 514 164 514 164 567 164 c 0,25,26
 618 164 618 164 668.5 184.5 c 128,-1,27
 719 205 719 205 759 246 c 128,-1,28
 799 287 799 287 823.5 348.5 c 128,-1,29
 848 410 848 410 848 494 c 0,30,31
 848 570 848 570 825.5 631 c 128,-1,32
 803 692 803 692 765 734 c 128,-1,33
 727 776 727 776 676 798.5 c 128,-1,34
 625 821 625 821 567 821 c 0,35,36
 512 821 512 821 461 798.5 c 128,-1,37
 410 776 410 776 370 734 c 128,-1,38
 330 692 330 692 306.5 630.5 c 128,-1,39
 283 569 283 569 283 494 c 0,20,21
EndSplineSet
EndChar

StartChar: p
Encoding: 112 112 83
Width: 1159
GlyphClass: 2
Flags: W
LayerCount: 2
Fore
SplineSet
117 -385 m 1,0,-1
 117 981 l 1,1,2
 140 987 140 987 163 992 c 128,-1,3
 186 997 186 997 215 997 c 0,4,5
 281 997 281 997 305.5 963.5 c 128,-1,6
 330 930 330 930 334 872 c 2,7,-1
 336 834 l 1,8,9
 389 910 389 910 468 958 c 128,-1,10
 547 1006 547 1006 666 1006 c 0,11,12
 748 1006 748 1006 826.5 972 c 128,-1,13
 905 938 905 938 966.5 873.5 c 128,-1,14
 1028 809 1028 809 1066 713.5 c 128,-1,15
 1104 618 1104 618 1104 496 c 0,16,17
 1104 363 1104 363 1063 266.5 c 128,-1,18
 1022 170 1022 170 957.5 106.5 c 128,-1,19
 893 43 893 43 812 12.5 c 128,-1,20
 731 -18 731 -18 653 -18 c 0,21,22
 542 -18 542 -18 464.5 26 c 128,-1,23
 387 70 387 70 340 125 c 1,24,-1
 340 -301 l 2,25,26
 340 -342 340 -342 316.5 -368.5 c 128,-1,27
 293 -395 293 -395 227 -395 c 0,28,29
 196 -395 196 -395 164.5 -392 c 128,-1,30
 133 -389 133 -389 117 -385 c 1,0,-1
340 305 m 1,31,32
 373 246 373 246 438.5 206 c 128,-1,33
 504 166 504 166 590 166 c 0,34,35
 653 166 653 166 706.5 189.5 c 128,-1,36
 760 213 760 213 797 256 c 128,-1,37
 834 299 834 299 854 358.5 c 128,-1,38
 874 418 874 418 874 489 c 0,39,40
 874 552 874 552 857 611 c 128,-1,41
 840 670 840 670 804 716 c 128,-1,42
 768 762 768 762 715 789.5 c 128,-1,43
 662 817 662 817 590 817 c 0,44,45
 516 817 516 817 447.5 781 c 128,-1,46
 379 745 379 745 340 674 c 1,47,-1
 340 305 l 1,31,32
EndSplineSet
EndChar

StartChar: q
Encoding: 113 113 84
Width: 1159
GlyphClass: 2
Flags: W
LayerCount: 2
Fore
SplineSet
55 492 m 0,0,1
 55 611 55 611 92 706 c 128,-1,2
 129 801 129 801 191.5 867.5 c 128,-1,3
 254 934 254 934 334 970 c 128,-1,4
 414 1006 414 1006 500 1006 c 0,5,6
 619 1006 619 1006 700.5 950.5 c 128,-1,7
 782 895 782 895 823 825 c 1,8,-1
 825 872 l 2,9,10
 827 929 827 929 853 963 c 128,-1,11
 879 997 879 997 944 997 c 0,12,13
 973 997 973 997 996.5 992 c 128,-1,14
 1020 987 1020 987 1042 981 c 1,15,-1
 1042 -301 l 2,16,17
 1042 -342 1042 -342 1019 -368.5 c 128,-1,18
 996 -395 996 -395 930 -395 c 0,19,20
 899 -395 899 -395 867.5 -392 c 128,-1,21
 836 -389 836 -389 819 -385 c 1,22,-1
 819 123 l 1,23,24
 760 51 760 51 676 17.5 c 128,-1,25
 592 -16 592 -16 506 -16 c 0,26,27
 418 -16 418 -16 337 19.5 c 128,-1,28
 256 55 256 55 193.5 121.5 c 128,-1,29
 131 188 131 188 93 281.5 c 128,-1,30
 55 375 55 375 55 492 c 0,0,1
285 487 m 256,31,32
 285 421 285 421 303.5 363 c 128,-1,33
 322 305 322 305 357.5 261 c 128,-1,34
 393 217 393 217 444 191.5 c 128,-1,35
 495 166 495 166 563 166 c 0,36,37
 641 166 641 166 710.5 203 c 128,-1,38
 780 240 780 240 817 311 c 1,39,-1
 817 563 l 2,40,41
 817 616 817 616 797.5 662.5 c 128,-1,42
 778 709 778 709 743.5 743.5 c 128,-1,43
 709 778 709 778 662.5 797.5 c 128,-1,44
 616 817 616 817 565 817 c 0,45,46
 495 817 495 817 443 790.5 c 128,-1,47
 391 764 391 764 355 718 c 128,-1,48
 319 672 319 672 302 612.5 c 128,-1,49
 285 553 285 553 285 487 c 256,31,32
EndSplineSet
EndChar

StartChar: r
Encoding: 114 114 85
Width: 745
GlyphClass: 2
Flags: W
LayerCount: 2
Fore
SplineSet
133 -2 m 1,0,-1
 133 981 l 1,1,2
 156 987 156 987 179.5 992 c 128,-1,3
 203 997 203 997 231 997 c 0,4,5
 294 997 294 997 322 963.5 c 128,-1,6
 350 930 350 930 350 872 c 2,7,-1
 350 801 l 1,8,-1
 354 801 l 1,9,10
 395 901 395 901 465 951 c 128,-1,11
 535 1001 535 1001 627 1001 c 0,12,13
 658 1001 658 1001 683.5 998 c 128,-1,14
 709 995 709 995 731 991 c 1,15,16
 743 948 743 948 743 913 c 0,17,18
 743 799 743 799 631 799 c 0,19,20
 630 799 630 799 629 799 c 2,21,-1
 592 799 l 2,22,23
 486 799 486 799 421 743.5 c 128,-1,24
 356 688 356 688 356 571 c 2,25,-1
 356 82 l 2,26,27
 356 41 356 41 333 14.5 c 128,-1,28
 310 -12 310 -12 244 -12 c 0,29,30
 213 -12 213 -12 181.5 -9 c 128,-1,31
 150 -6 150 -6 133 -2 c 1,0,-1
EndSplineSet
EndChar

StartChar: s
Encoding: 115 115 86
Width: 956
GlyphClass: 2
Flags: W
LayerCount: 2
Fore
SplineSet
61 102 m 0,0,1
 61 155 61 155 83.5 188 c 128,-1,2
 106 221 106 221 147 221 c 0,3,4
 172 221 172 221 206 213 c 128,-1,5
 240 205 240 205 279.5 193.5 c 128,-1,6
 319 182 319 182 368.5 174 c 128,-1,7
 418 166 418 166 473 166 c 0,8,9
 534 166 534 166 572 175 c 128,-1,10
 610 184 610 184 630.5 199.5 c 128,-1,11
 651 215 651 215 658.5 234.5 c 128,-1,12
 666 254 666 254 666 276 c 0,13,14
 666 321 666 321 631 345 c 128,-1,15
 596 369 596 369 508 393 c 2,16,-1
 362 434 l 2,17,18
 196 481 196 481 131 549.5 c 128,-1,19
 66 618 66 618 66 721 c 0,20,21
 66 776 66 776 88.5 827.5 c 128,-1,22
 111 879 111 879 159 917.5 c 128,-1,23
 207 956 207 956 282.5 980 c 128,-1,24
 358 1004 358 1004 467 1004 c 0,25,26
 645 1004 645 1004 842 938 c 1,27,28
 842 928 842 928 843 920.5 c 128,-1,29
 844 913 844 913 844 905 c 0,30,31
 844 846 844 846 822.5 812 c 128,-1,32
 801 778 801 778 756 778 c 256,33,34
 711 778 711 778 642 799.5 c 128,-1,35
 573 821 573 821 467 821 c 0,36,37
 369 821 369 821 329 796.5 c 128,-1,38
 289 772 289 772 289 729 c 0,39,40
 289 711 289 711 294 696.5 c 128,-1,41
 299 682 299 682 314.5 669.5 c 128,-1,42
 330 657 330 657 357.5 646 c 128,-1,43
 385 635 385 635 432 623 c 2,44,-1
 586 580 l 2,45,46
 754 533 754 533 822.5 463 c 128,-1,47
 891 393 891 393 891 287 c 0,48,49
 891 232 891 232 871.5 177.5 c 128,-1,50
 852 123 852 123 805 81 c 128,-1,51
 758 39 758 39 677 12.5 c 128,-1,52
 596 -14 596 -14 473 -14 c 0,53,54
 375 -14 375 -14 269.5 5.5 c 128,-1,55
 164 25 164 25 66 59 c 1,56,57
 64 69 64 69 62.5 80.5 c 128,-1,58
 61 92 61 92 61 102 c 0,0,1
EndSplineSet
EndChar

StartChar: t
Encoding: 116 116 87
Width: 825
GlyphClass: 2
Flags: W
LayerCount: 2
Fore
SplineSet
8 897 m 0,0,1
 8 948 8 948 29.5 968.5 c 128,-1,2
 51 989 51 989 84 989 c 2,3,-1
 172 989 l 1,4,-1
 172 1130 l 2,5,6
 172 1155 172 1155 177 1177.5 c 128,-1,7
 182 1200 182 1200 195.5 1218.5 c 128,-1,8
 209 1237 209 1237 234.5 1247 c 128,-1,9
 260 1257 260 1257 303 1257 c 0,10,11
 352 1257 352 1257 391 1243 c 1,12,-1
 391 989 l 1,13,-1
 727 989 l 1,14,15
 737 958 737 958 737 907 c 256,16,17
 737 856 737 856 715.5 835.5 c 128,-1,18
 694 815 694 815 662 815 c 2,19,-1
 391 815 l 1,20,-1
 391 338 l 2,21,22
 391 260 391 260 428 217 c 128,-1,23
 465 174 465 174 537 174 c 0,24,25
 568 174 568 174 592 180 c 128,-1,26
 616 186 616 186 635.5 194.5 c 128,-1,27
 655 203 655 203 672.5 209 c 128,-1,28
 690 215 690 215 707 215 c 0,29,30
 746 215 746 215 768.5 188.5 c 128,-1,31
 791 162 791 162 791 104 c 0,32,33
 791 94 791 94 791 83 c 128,-1,34
 791 72 791 72 788 61 c 1,35,36
 729 26 729 26 662.5 6 c 128,-1,37
 596 -14 596 -14 508 -14 c 0,38,39
 428 -14 428 -14 365.5 11.5 c 128,-1,40
 303 37 303 37 260 83 c 128,-1,41
 217 129 217 129 194.5 191.5 c 128,-1,42
 172 254 172 254 172 330 c 2,43,-1
 172 815 l 1,44,-1
 16 815 l 1,45,46
 12 829 12 829 10 851.5 c 128,-1,47
 8 874 8 874 8 897 c 0,0,1
EndSplineSet
EndChar

StartChar: u
Encoding: 117 117 88
Width: 1122
GlyphClass: 2
Flags: W
LayerCount: 2
Fore
SplineSet
100 399 m 2,0,-1
 100 903 l 2,1,2
 100 944 100 944 125 970.5 c 128,-1,3
 150 997 150 997 213 997 c 0,4,5
 246 997 246 997 276.5 994 c 128,-1,6
 307 991 307 991 324 987 c 1,7,-1
 324 418 l 2,8,9
 324 289 324 289 384 229.5 c 128,-1,10
 444 170 444 170 539 170 c 0,11,12
 607 170 607 170 670 207 c 128,-1,13
 733 244 733 244 776 315 c 1,14,-1
 776 903 l 2,15,16
 776 944 776 944 800.5 970.5 c 128,-1,17
 825 997 825 997 889 997 c 0,18,19
 922 997 922 997 953.5 994 c 128,-1,20
 985 991 985 991 1001 987 c 1,21,-1
 1001 387 l 2,22,23
 1001 326 1001 326 1002.5 277.5 c 128,-1,24
 1004 229 1004 229 1008 186 c 128,-1,25
 1012 143 1012 143 1018 101 c 128,-1,26
 1024 59 1024 59 1034 10 c 1,27,28
 987 -12 987 -12 925 -12 c 0,29,30
 922 -12 922 -12 920 -12 c 0,31,32
 867 -12 867 -12 842 6.5 c 128,-1,33
 817 25 817 25 807 50.5 c 128,-1,34
 797 76 797 76 796 106.5 c 128,-1,35
 795 137 795 137 791 162 c 1,36,-1
 788 162 l 1,37,38
 735 82 735 82 656.5 32 c 128,-1,39
 578 -18 578 -18 461 -18 c 0,40,41
 387 -18 387 -18 321.5 6.5 c 128,-1,42
 256 31 256 31 207 82 c 128,-1,43
 158 133 158 133 129 212 c 128,-1,44
 100 291 100 291 100 399 c 2,0,-1
EndSplineSet
EndChar

StartChar: v
Encoding: 118 118 89
Width: 956
GlyphClass: 2
Flags: W
LayerCount: 2
Fore
SplineSet
0 971 m 1,0,1
 23 981 23 981 56.5 989 c 128,-1,2
 90 997 90 997 121 997 c 0,3,4
 160 997 160 997 191.5 987 c 128,-1,5
 223 977 223 977 240 932 c 2,6,-1
 377 526 l 2,7,8
 406 440 406 440 431.5 364.5 c 128,-1,9
 457 289 457 289 479 203 c 1,10,-1
 483 203 l 1,11,12
 506 289 506 289 533.5 363.5 c 128,-1,13
 561 438 561 438 590 526 c 2,14,-1
 725 930 l 2,15,16
 739 971 739 971 771 984 c 128,-1,17
 803 997 803 997 844 997 c 0,18,19
 871 997 871 997 904.5 990 c 128,-1,20
 938 983 938 983 958 973 c 1,21,-1
 621 72 l 2,22,23
 603 23 603 23 569.5 4.5 c 128,-1,24
 536 -14 536 -14 473 -14 c 0,25,26
 444 -14 444 -14 414.5 -10 c 128,-1,27
 385 -6 385 -6 358 4 c 1,28,-1
 0 971 l 1,0,1
EndSplineSet
EndChar

StartChar: w
Encoding: 119 119 90
Width: 1411
GlyphClass: 2
Flags: W
LayerCount: 2
Fore
SplineSet
10 971 m 1,0,1
 33 981 33 981 61.5 989 c 128,-1,2
 90 997 90 997 129 997 c 0,3,4
 178 997 178 997 209 979 c 128,-1,5
 240 961 240 961 250 911 c 2,6,-1
 334 516 l 2,7,8
 352 428 352 428 366.5 352 c 128,-1,9
 381 276 381 276 395 205 c 1,10,11
 403 238 403 238 413.5 282 c 128,-1,12
 424 326 424 326 435 371 c 128,-1,13
 446 416 446 416 458.5 459 c 128,-1,14
 471 502 471 502 481 532 c 2,15,-1
 582 895 l 2,16,17
 598 954 598 954 632 975.5 c 128,-1,18
 666 997 666 997 725 997 c 0,19,20
 752 997 752 997 778.5 993 c 128,-1,21
 805 989 805 989 825 983 c 1,22,-1
 946 532 l 2,23,24
 969 446 969 446 992.5 358 c 128,-1,25
 1016 270 1016 270 1030 205 c 1,26,27
 1042 271 1042 271 1056.5 346.5 c 128,-1,28
 1071 422 1071 422 1092 516 c 2,29,-1
 1180 918 l 2,30,31
 1190 963 1190 963 1216.5 980 c 128,-1,32
 1243 997 1243 997 1290 997 c 0,33,34
 1325 997 1325 997 1352.5 990 c 128,-1,35
 1380 983 1380 983 1401 975 c 1,36,-1
 1182 78 l 2,37,38
 1168 25 1168 25 1124.5 5.5 c 128,-1,39
 1081 -14 1081 -14 1026 -14 c 0,40,41
 997 -14 997 -14 958.5 -10 c 128,-1,42
 920 -6 920 -6 899 2 c 1,43,-1
 707 727 l 1,44,-1
 530 82 l 2,45,46
 514 25 514 25 474 5.5 c 128,-1,47
 434 -14 434 -14 375 -14 c 0,48,49
 348 -14 348 -14 308 -10 c 128,-1,50
 268 -6 268 -6 246 4 c 1,51,-1
 10 971 l 1,0,1
EndSplineSet
EndChar

StartChar: x
Encoding: 120 120 91
Width: 993
GlyphClass: 2
Flags: W
LayerCount: 2
Fore
SplineSet
18 12 m 1,0,-1
 371 500 l 1,1,-1
 31 967 l 1,2,3
 58 981 58 981 95.5 989 c 128,-1,4
 133 997 133 997 162 997 c 0,5,6
 213 997 213 997 248 984 c 128,-1,7
 283 971 283 971 307 936 c 2,8,-1
 506 643 l 1,9,-1
 696 938 l 2,10,11
 719 971 719 971 750.5 984 c 128,-1,12
 782 997 782 997 821 997 c 0,13,14
 850 997 850 997 888 991 c 128,-1,15
 926 985 926 985 950 975 c 1,16,-1
 627 498 l 1,17,-1
 958 18 l 1,18,19
 931 4 931 4 894.5 -4 c 128,-1,20
 858 -12 858 -12 829 -12 c 0,21,22
 778 -12 778 -12 743.5 1 c 128,-1,23
 709 14 709 14 686 49 c 2,24,-1
 492 354 l 1,25,-1
 272 41 l 2,26,27
 252 12 252 12 223 -1 c 0,28,29
 198 -12 198 -12 158 -12 c 0,30,31
 152 -12 152 -12 145 -12 c 0,32,33
 110 -12 110 -12 76.5 -5 c 128,-1,34
 43 2 43 2 18 12 c 1,0,-1
EndSplineSet
EndChar

StartChar: y
Encoding: 121 121 92
Width: 974
GlyphClass: 2
Flags: W
LayerCount: 2
Fore
SplineSet
10 971 m 1,0,1
 33 981 33 981 65.5 989 c 128,-1,2
 98 997 98 997 133 997 c 0,3,4
 186 997 186 997 215 980 c 128,-1,5
 244 963 244 963 254 930 c 2,6,-1
 496 242 l 1,7,-1
 743 932 l 2,8,9
 757 971 757 971 787 984 c 128,-1,10
 817 997 817 997 858 997 c 0,11,12
 885 997 885 997 917.5 990 c 128,-1,13
 950 983 950 983 971 973 c 1,14,-1
 471 -307 l 2,15,16
 438 -395 438 -395 342 -395 c 0,17,18
 303 -395 303 -395 275.5 -389 c 128,-1,19
 248 -383 248 -383 227 -375 c 1,20,-1
 393 4 l 1,21,-1
 10 971 l 1,0,1
EndSplineSet
EndChar

StartChar: z
Encoding: 122 122 93
Width: 923
GlyphClass: 2
Flags: W
LayerCount: 2
Fore
SplineSet
53 88 m 0,0,1
 53 121 53 121 62.5 152.5 c 128,-1,2
 72 184 72 184 100 219 c 2,3,-1
 584 807 l 1,4,-1
 145 807 l 2,5,6
 110 807 110 807 88 827.5 c 128,-1,7
 66 848 66 848 66 903 c 0,8,9
 66 928 66 928 69 951.5 c 128,-1,10
 72 975 72 975 76 989 c 1,11,-1
 850 989 l 1,12,13
 854 975 854 975 857 951.5 c 128,-1,14
 860 928 860 928 860 903 c 0,15,16
 860 874 860 874 851 840.5 c 128,-1,17
 842 807 842 807 815 774 c 2,18,-1
 328 180 l 1,19,-1
 860 180 l 1,20,21
 870 149 870 149 870 96 c 0,22,23
 870 41 870 41 847.5 20.5 c 128,-1,24
 825 0 825 0 791 0 c 2,25,-1
 63 0 l 1,26,27
 59 14 59 14 56 38.5 c 128,-1,28
 53 63 53 63 53 88 c 0,0,1
EndSplineSet
EndChar

StartChar: braceleft
Encoding: 123 123 94
Width: 628
GlyphClass: 2
Flags: W
LayerCount: 2
Fore
SplineSet
84 410 m 1,0,-1
 84 547 l 1,1,2
 115 553 115 553 145.5 562 c 128,-1,3
 176 571 176 571 198.5 586.5 c 128,-1,4
 221 602 221 602 235.5 625.5 c 128,-1,5
 250 649 250 649 250 686 c 256,6,7
 250 723 250 723 243 761 c 128,-1,8
 236 799 236 799 226.5 839 c 128,-1,9
 217 879 217 879 210 923 c 128,-1,10
 203 967 203 967 203 1018 c 0,11,12
 203 1135 203 1135 266.5 1217.5 c 128,-1,13
 330 1300 330 1300 440 1358 c 1,14,15
 495 1342 495 1342 520 1311 c 128,-1,16
 545 1280 545 1280 545 1247 c 0,17,18
 545 1200 545 1200 504 1171 c 0,19,20
 453 1136 453 1136 434.5 1093.5 c 128,-1,21
 416 1051 416 1051 416 1004 c 0,22,23
 416 932 416 932 431 846 c 128,-1,24
 446 760 446 760 446 688 c 0,25,26
 446 602 446 602 397 549 c 128,-1,27
 348 496 348 496 268 475 c 1,28,29
 348 457 348 457 398.5 407.5 c 128,-1,30
 449 358 449 358 449 270 c 0,31,32
 449 204 449 204 431.5 117.5 c 128,-1,33
 414 31 414 31 414 -47 c 0,34,35
 414 -94 414 -94 432.5 -137 c 128,-1,36
 451 -180 451 -180 502 -215 c 0,37,38
 543 -244 543 -244 543 -291 c 0,39,40
 543 -324 543 -324 518 -354.5 c 128,-1,41
 493 -385 493 -385 438 -401 c 1,42,43
 327 -344 327 -344 264 -261 c 128,-1,44
 201 -178 201 -178 201 -61 c 0,45,46
 201 -12 201 -12 208 31 c 128,-1,47
 215 74 215 74 224 114 c 128,-1,48
 233 154 233 154 241.5 192.5 c 128,-1,49
 250 231 250 231 250 270 c 0,50,51
 250 303 250 303 235.5 326.5 c 128,-1,52
 221 350 221 350 197.5 365.5 c 128,-1,53
 174 381 174 381 144.5 391 c 128,-1,54
 115 401 115 401 84 410 c 1,0,-1
EndSplineSet
EndChar

StartChar: bar
Encoding: 124 124 95
Width: 583
GlyphClass: 2
Flags: W
LayerCount: 2
Fore
SplineSet
217 -379 m 1,0,-1
 217 1288 l 2,1,2
 217 1311 217 1311 231.5 1332.5 c 128,-1,3
 246 1354 246 1354 289 1354 c 0,4,5
 324 1354 324 1354 367 1339 c 1,6,-1
 367 -328 l 2,7,8
 367 -351 367 -351 352.5 -372 c 128,-1,9
 338 -393 338 -393 295 -393 c 0,10,11
 260 -393 260 -393 217 -379 c 1,0,-1
EndSplineSet
EndChar

StartChar: braceright
Encoding: 125 125 96
Width: 628
GlyphClass: 2
Flags: W
LayerCount: 2
Fore
SplineSet
84 -291 m 0,0,1
 84 -244 84 -244 125 -215 c 0,2,3
 176 -180 176 -180 194.5 -137 c 128,-1,4
 213 -94 213 -94 213 -47 c 0,5,6
 213 25 213 25 197.5 111 c 128,-1,7
 182 197 182 197 182 268 c 0,8,9
 182 354 182 354 231.5 407.5 c 128,-1,10
 281 461 281 461 360 481 c 1,11,12
 280 499 280 499 230 548.5 c 128,-1,13
 180 598 180 598 180 686 c 0,14,15
 180 752 180 752 197.5 839 c 128,-1,16
 215 926 215 926 215 1004 c 0,17,18
 215 1051 215 1051 196.5 1094 c 128,-1,19
 178 1137 178 1137 127 1171 c 0,20,21
 86 1200 86 1200 86 1247 c 0,22,23
 86 1280 86 1280 110.5 1310.5 c 128,-1,24
 135 1341 135 1341 190 1358 c 1,25,26
 301 1301 301 1301 364.5 1218 c 128,-1,27
 428 1135 428 1135 428 1018 c 0,28,29
 428 969 428 969 420 926 c 128,-1,30
 412 883 412 883 402.5 843 c 128,-1,31
 393 803 393 803 386 764 c 128,-1,32
 379 725 379 725 379 686 c 0,33,34
 379 651 379 651 393.5 628.5 c 128,-1,35
 408 606 408 606 431.5 590.5 c 128,-1,36
 455 575 455 575 484.5 565 c 128,-1,37
 514 555 514 555 545 547 c 1,38,-1
 545 410 l 1,39,40
 514 404 514 404 483.5 394.5 c 128,-1,41
 453 385 453 385 430.5 369.5 c 128,-1,42
 408 354 408 354 393.5 330.5 c 128,-1,43
 379 307 379 307 379 270 c 256,44,45
 379 233 379 233 386 195.5 c 128,-1,46
 393 158 393 158 402.5 118 c 128,-1,47
 412 78 412 78 419 34 c 128,-1,48
 426 -10 426 -10 426 -61 c 0,49,50
 426 -178 426 -178 362.5 -261 c 128,-1,51
 299 -344 299 -344 188 -401 c 1,52,53
 133 -385 133 -385 108.5 -354.5 c 128,-1,54
 84 -324 84 -324 84 -291 c 0,0,1
EndSplineSet
EndChar

StartChar: asciitilde
Encoding: 126 126 97
Width: 1161
GlyphClass: 2
Flags: W
LayerCount: 2
Fore
SplineSet
92 346 m 1,0,-1
 246 645 l 1,1,2
 266 657 266 657 296 666.5 c 128,-1,3
 326 676 326 676 362 676 c 0,4,5
 399 676 399 676 430 660.5 c 128,-1,6
 461 645 461 645 489 616 c 2,7,-1
 653 455 l 1,8,-1
 754 659 l 1,9,-1
 893 659 l 1,10,-1
 741 362 l 1,11,12
 716 348 716 348 688 341 c 128,-1,13
 660 334 660 334 635 334 c 0,14,15
 580 334 580 334 554 350.5 c 128,-1,16
 528 367 528 367 500 395 c 2,17,-1
 342 551 l 1,18,-1
 236 346 l 1,19,-1
 92 346 l 1,0,-1
EndSplineSet
EndChar

StartChar: exclamdown
Encoding: 161 161 99
Width: 555
GlyphClass: 2
Flags: W
LayerCount: 2
Fore
SplineSet
135 1208 m 0,0,1
 135 1261 135 1261 174 1301 c 128,-1,2
 213 1341 213 1341 268 1341 c 0,3,4
 321 1341 321 1341 361 1301.5 c 128,-1,5
 401 1262 401 1262 401 1208 c 0,6,7
 401 1153 401 1153 361 1114 c 128,-1,8
 321 1075 321 1075 268 1075 c 0,9,10
 213 1075 213 1075 174 1114 c 128,-1,11
 135 1153 135 1153 135 1208 c 0,0,1
137 0 m 1,12,-1
 186 797 l 2,13,14
 188 822 188 822 206.5 841 c 128,-1,15
 225 860 225 860 266 860 c 0,16,17
 299 860 299 860 340 846 c 1,18,-1
 395 96 l 1,19,-1
 395 84 l 2,20,21
 395 43 395 43 364.5 15.5 c 128,-1,22
 334 -12 334 -12 264 -12 c 0,23,24
 227 -12 227 -12 191.5 -8 c 128,-1,25
 156 -4 156 -4 137 0 c 1,12,-1
EndSplineSet
EndChar

StartChar: cent
Encoding: 162 162 100
Width: 1241
GlyphClass: 2
Flags: W
LayerCount: 2
Fore
SplineSet
188 578 m 0,0,1
 188 674 188 674 220 760 c 128,-1,2
 252 846 252 846 308.5 913.5 c 128,-1,3
 365 981 365 981 444.5 1025 c 128,-1,4
 524 1069 524 1069 623 1081 c 1,5,-1
 623 1266 l 2,6,7
 623 1289 623 1289 634 1310 c 128,-1,8
 645 1331 645 1331 686 1331 c 0,9,10
 719 1331 719 1331 762 1317 c 1,11,-1
 762 1083 l 1,12,13
 840 1075 840 1075 902.5 1056.5 c 128,-1,14
 965 1038 965 1038 1014 1012 c 1,15,16
 1016 1002 1016 1002 1016 992.5 c 128,-1,17
 1016 983 1016 983 1016 975 c 0,18,19
 1016 918 1016 918 991.5 884 c 128,-1,20
 967 850 967 850 928 850 c 0,21,22
 895 850 895 850 861 866.5 c 128,-1,23
 827 883 827 883 762 891 c 1,24,-1
 762 262 l 1,25,26
 832 266 832 266 870.5 281.5 c 128,-1,27
 909 297 909 297 942 297 c 0,28,29
 983 297 983 297 1006.5 268.5 c 128,-1,30
 1030 240 1030 240 1030 180 c 0,31,32
 1030 170 1030 170 1030 158.5 c 128,-1,33
 1030 147 1030 147 1028 135 c 1,34,35
 969 104 969 104 904.5 92 c 128,-1,36
 840 80 840 80 762 72 c 1,37,-1
 762 -123 l 2,38,39
 762 -146 762 -146 750.5 -167 c 128,-1,40
 739 -188 739 -188 698 -188 c 0,41,42
 665 -188 665 -188 623 -174 c 1,43,-1
 623 74 l 1,44,45
 525 86 525 86 445 130 c 128,-1,46
 365 174 365 174 308.5 240.5 c 128,-1,47
 252 307 252 307 220 393 c 128,-1,48
 188 479 188 479 188 578 c 0,0,1
412 578 m 0,49,50
 412 443 412 443 473.5 364 c 128,-1,51
 535 285 535 285 623 266 c 1,52,-1
 623 889 l 1,53,54
 531 873 531 873 471.5 791 c 128,-1,55
 412 709 412 709 412 578 c 0,49,50
EndSplineSet
EndChar

StartChar: sterling
Encoding: 163 163 101
Width: 1032
GlyphClass: 2
Flags: W
LayerCount: 2
Fore
SplineSet
72 627 m 0,0,1
 72 680 72 680 94.5 700.5 c 128,-1,2
 117 721 117 721 147 721 c 2,3,-1
 250 721 l 1,4,5
 238 772 238 772 219.5 834.5 c 128,-1,6
 201 897 201 897 201 969 c 0,7,8
 201 1143 201 1143 309.5 1244.5 c 128,-1,9
 418 1346 418 1346 610 1346 c 0,10,11
 714 1346 714 1346 801.5 1318 c 128,-1,12
 889 1290 889 1290 963 1245 c 1,13,14
 963 1179 963 1179 935 1133 c 128,-1,15
 907 1087 907 1087 858 1087 c 0,16,17
 831 1087 831 1087 807.5 1096.5 c 128,-1,18
 784 1106 784 1106 757.5 1116 c 128,-1,19
 731 1126 731 1126 697.5 1135.5 c 128,-1,20
 664 1145 664 1145 616 1145 c 0,21,22
 510 1145 510 1145 467 1090.5 c 128,-1,23
 424 1036 424 1036 424 950 c 0,24,25
 424 889 424 889 439.5 830.5 c 128,-1,26
 455 772 455 772 465 721 c 1,27,-1
 805 721 l 1,28,29
 809 707 809 707 811 683 c 128,-1,30
 813 659 813 659 813 635 c 0,31,32
 813 582 813 582 791.5 561.5 c 128,-1,33
 770 541 770 541 737 541 c 2,34,-1
 479 541 l 1,35,36
 479 365 479 365 362 209 c 1,37,-1
 999 209 l 1,38,39
 1003 193 1003 193 1005.5 166 c 128,-1,40
 1008 139 1008 139 1008 111 c 0,41,42
 1008 52 1008 52 982 26 c 128,-1,43
 956 0 956 0 909 0 c 2,44,-1
 137 0 l 1,45,46
 127 25 127 25 127 68 c 256,47,48
 127 111 127 111 149.5 158 c 128,-1,49
 172 205 172 205 197.5 259 c 128,-1,50
 223 313 223 313 245.5 376.5 c 128,-1,51
 268 440 268 440 268 518 c 2,52,-1
 268 541 l 1,53,-1
 80 541 l 1,54,55
 76 555 76 555 74 578.5 c 128,-1,56
 72 602 72 602 72 627 c 0,0,1
EndSplineSet
EndChar

StartChar: currency
Encoding: 164 164 102
Width: 1241
GlyphClass: 2
Flags: W
LayerCount: 2
Fore
SplineSet
154 184 m 1,0,-1
 289 319 l 1,1,2
 232 413 232 413 231 526 c 0,3,4
 231 641 231 641 289 729 c 1,5,-1
 154 866 l 1,6,-1
 287 999 l 1,7,-1
 422 862 l 1,8,9
 512 921 512 921 627 922 c 0,10,11
 742 922 742 922 831 862 c 1,12,-1
 967 997 l 1,13,-1
 1100 866 l 1,14,-1
 963 731 l 1,15,16
 1024 641 1024 641 1024 526 c 256,17,18
 1024 411 1024 411 965 322 c 1,19,-1
 1100 188 l 1,20,-1
 967 55 l 1,21,-1
 831 188 l 1,22,23
 741 131 741 131 627 131 c 0,24,25
 514 131 514 131 420 188 c 1,26,-1
 285 53 l 1,27,-1
 154 184 l 1,0,-1
401 526 m 256,28,29
 401 479 401 479 418.5 438 c 128,-1,30
 436 397 436 397 467 366.5 c 128,-1,31
 498 336 498 336 539 318.5 c 128,-1,32
 580 301 580 301 627 301 c 0,33,34
 672 301 672 301 714 318.5 c 128,-1,35
 756 336 756 336 786.5 366.5 c 128,-1,36
 817 397 817 397 835.5 438 c 128,-1,37
 854 479 854 479 854 526 c 256,38,39
 854 573 854 573 835.5 614 c 128,-1,40
 817 655 817 655 786.5 686 c 128,-1,41
 756 717 756 717 714 734.5 c 128,-1,42
 672 752 672 752 627 752 c 0,43,44
 580 752 580 752 539 734.5 c 128,-1,45
 498 717 498 717 467 686 c 128,-1,46
 436 655 436 655 418.5 614 c 128,-1,47
 401 573 401 573 401 526 c 256,28,29
EndSplineSet
EndChar

StartChar: yen
Encoding: 165 165 103
Width: 1241
GlyphClass: 2
Flags: W
LayerCount: 2
Fore
SplineSet
25 1303 m 1,0,1
 54 1319 54 1319 92.5 1327 c 128,-1,2
 131 1335 131 1335 162 1335 c 0,3,4
 215 1335 215 1335 250 1322 c 128,-1,5
 285 1309 285 1309 309 1270 c 2,6,-1
 629 756 l 1,7,-1
 946 1268 l 2,8,9
 969 1307 969 1307 1000.5 1321 c 128,-1,10
 1032 1335 1032 1335 1081 1335 c 0,11,12
 1110 1335 1110 1335 1150 1328 c 128,-1,13
 1190 1321 1190 1321 1214 1305 c 1,14,-1
 737 563 l 1,15,-1
 1014 563 l 1,16,17
 1018 549 1018 549 1020 525.5 c 128,-1,18
 1022 502 1022 502 1022 477 c 0,19,20
 1022 424 1022 424 1000.5 403.5 c 128,-1,21
 979 383 979 383 946 383 c 2,22,-1
 737 383 l 1,23,-1
 737 84 l 2,24,25
 737 43 737 43 712 15.5 c 128,-1,26
 687 -12 687 -12 621 -12 c 0,27,28
 588 -12 588 -12 556 -9 c 128,-1,29
 524 -6 524 -6 508 -2 c 1,30,-1
 508 383 l 1,31,-1
 223 383 l 1,32,33
 219 397 219 397 217 420.5 c 128,-1,34
 215 444 215 444 215 469 c 0,35,36
 215 522 215 522 237.5 542.5 c 128,-1,37
 260 563 260 563 291 563 c 2,38,-1
 508 563 l 1,39,-1
 25 1303 l 1,0,1
EndSplineSet
EndChar

StartChar: brokenbar
Encoding: 166 166 104
Width: 581
GlyphClass: 2
Flags: W
LayerCount: 2
Fore
SplineSet
217 326 m 2,0,1
 217 349 217 349 231.5 370 c 128,-1,2
 246 391 246 391 289 391 c 0,3,4
 324 391 324 391 367 377 c 1,5,-1
 367 -324 l 2,6,7
 367 -347 367 -347 352.5 -368 c 128,-1,8
 338 -389 338 -389 295 -389 c 0,9,10
 260 -389 260 -389 217 -375 c 1,11,-1
 217 326 l 2,0,1
217 588 m 1,12,-1
 217 1288 l 2,13,14
 217 1311 217 1311 231.5 1332.5 c 128,-1,15
 246 1354 246 1354 289 1354 c 0,16,17
 324 1354 324 1354 367 1339 c 1,18,-1
 367 639 l 2,19,20
 367 616 367 616 352.5 594.5 c 128,-1,21
 338 573 338 573 295 573 c 0,22,23
 260 573 260 573 217 588 c 1,12,-1
EndSplineSet
EndChar

StartChar: section
Encoding: 167 167 105
Width: 1241
GlyphClass: 2
Flags: W
LayerCount: 2
Fore
SplineSet
193 1069 m 0,0,1
 193 1130 193 1130 216.5 1181.5 c 128,-1,2
 240 1233 240 1233 290 1272 c 128,-1,3
 340 1311 340 1311 417 1332.5 c 128,-1,4
 494 1354 494 1354 598 1354 c 0,5,6
 690 1354 690 1354 776 1337.5 c 128,-1,7
 862 1321 862 1321 961 1288 c 1,8,9
 961 1280 961 1280 962 1273 c 128,-1,10
 963 1266 963 1266 963 1257 c 0,11,12
 963 1202 963 1202 941.5 1167.5 c 128,-1,13
 920 1133 920 1133 874 1133 c 0,14,15
 849 1133 849 1133 823 1140 c 128,-1,16
 797 1147 797 1147 764 1154 c 128,-1,17
 731 1161 731 1161 691 1168.5 c 128,-1,18
 651 1176 651 1176 600 1176 c 0,19,20
 412 1176 412 1176 412 1075 c 0,21,22
 412 1040 412 1040 438.5 1009.5 c 128,-1,23
 465 979 465 979 563 954 c 2,24,-1
 705 920 l 2,25,26
 875 877 875 877 942.5 804 c 128,-1,27
 1010 731 1010 731 1010 627 c 0,28,29
 1010 566 1010 566 979 507.5 c 128,-1,30
 948 449 948 449 881 408 c 1,31,32
 953 365 953 365 981.5 316.5 c 128,-1,33
 1010 268 1010 268 1010 197 c 0,34,35
 1010 136 1010 136 987.5 81.5 c 128,-1,36
 965 27 965 27 915.5 -15 c 128,-1,37
 866 -57 866 -57 786.5 -80.5 c 128,-1,38
 707 -104 707 -104 592 -104 c 0,39,40
 494 -104 494 -104 401.5 -88 c 128,-1,41
 309 -72 309 -72 211 -37 c 1,42,43
 209 -25 209 -25 208 -13.5 c 128,-1,44
 207 -2 207 -2 207 8 c 0,45,46
 207 61 207 61 229.5 91 c 128,-1,47
 252 121 252 121 293 121 c 0,48,49
 318 121 318 121 347.5 113.5 c 128,-1,50
 377 106 377 106 411.5 97 c 128,-1,51
 446 88 446 88 491.5 81 c 128,-1,52
 537 74 537 74 592 74 c 0,53,54
 653 74 653 74 692 84 c 128,-1,55
 731 94 731 94 752.5 110.5 c 128,-1,56
 774 127 774 127 782.5 147.5 c 128,-1,57
 791 168 791 168 791 188 c 0,58,59
 791 233 791 233 757 257 c 128,-1,60
 723 281 723 281 631 305 c 2,61,-1
 516 336 l 2,62,63
 426 361 426 361 365.5 389.5 c 128,-1,64
 305 418 305 418 268 452.5 c 128,-1,65
 231 487 231 487 217 530 c 128,-1,66
 203 573 203 573 203 627 c 0,67,68
 203 690 203 690 233.5 748.5 c 128,-1,69
 264 807 264 807 330 848 c 1,70,71
 264 883 264 883 228.5 941 c 128,-1,72
 193 999 193 999 193 1069 c 0,0,1
383 643 m 0,73,74
 383 610 383 610 407.5 587.5 c 128,-1,75
 432 565 432 565 475 547.5 c 128,-1,76
 518 530 518 530 577.5 514.5 c 128,-1,77
 637 499 637 499 707 481 c 1,78,79
 820 508 820 508 819 602 c 0,80,81
 819 635 819 635 793.5 659.5 c 128,-1,82
 768 684 768 684 724 702.5 c 128,-1,83
 680 721 680 721 620.5 737.5 c 128,-1,84
 561 754 561 754 496 770 c 1,85,86
 439 756 439 756 411 722 c 128,-1,87
 383 688 383 688 383 643 c 0,73,74
EndSplineSet
EndChar

StartChar: dieresis
Encoding: 168 168 106
Width: 954
GlyphClass: 2
Flags: W
LayerCount: 2
Fore
SplineSet
182 1260 m 0,0,1
 182 1313 182 1313 218 1348.5 c 128,-1,2
 254 1384 254 1384 305 1384 c 256,3,4
 356 1384 356 1384 392 1348.5 c 128,-1,5
 428 1313 428 1313 428 1260 c 0,6,7
 428 1211 428 1211 392 1175 c 128,-1,8
 356 1139 356 1139 305 1139 c 256,9,10
 254 1139 254 1139 218 1174.5 c 128,-1,11
 182 1210 182 1210 182 1260 c 0,0,1
557 1260 m 0,12,13
 557 1313 557 1313 593 1348.5 c 128,-1,14
 629 1384 629 1384 680 1384 c 256,15,16
 731 1384 731 1384 767 1348.5 c 128,-1,17
 803 1313 803 1313 803 1260 c 0,18,19
 803 1211 803 1211 767 1175 c 128,-1,20
 731 1139 731 1139 680 1139 c 256,21,22
 629 1139 629 1139 593 1174.5 c 128,-1,23
 557 1210 557 1210 557 1260 c 0,12,13
EndSplineSet
EndChar

StartChar: copyright
Encoding: 169 169 107
Width: 1460
GlyphClass: 2
Flags: W
LayerCount: 2
Fore
SplineSet
53 664 m 0,0,1
 53 814 53 814 103.5 940.5 c 128,-1,2
 154 1067 154 1067 244 1158 c 128,-1,3
 334 1249 334 1249 458 1300.5 c 128,-1,4
 582 1352 582 1352 729 1352 c 256,5,6
 876 1352 876 1352 999 1300.5 c 128,-1,7
 1122 1249 1122 1249 1211 1158 c 128,-1,8
 1300 1067 1300 1067 1350.5 940 c 128,-1,9
 1401 813 1401 813 1401 664 c 0,10,11
 1401 512 1401 512 1350.5 386 c 128,-1,12
 1300 260 1300 260 1211 169 c 128,-1,13
 1122 78 1122 78 999 26.5 c 128,-1,14
 876 -25 876 -25 729 -25 c 256,15,16
 582 -25 582 -25 457 26.5 c 128,-1,17
 332 78 332 78 243 169 c 128,-1,18
 154 260 154 260 103.5 386 c 128,-1,19
 53 512 53 512 53 664 c 0,0,1
195 664 m 0,20,21
 195 543 195 543 234.5 440.5 c 128,-1,22
 274 338 274 338 345 264 c 128,-1,23
 416 190 416 190 514 149.5 c 128,-1,24
 612 109 612 109 729 109 c 256,25,26
 846 109 846 109 944 149.5 c 128,-1,27
 1042 190 1042 190 1112 264 c 128,-1,28
 1182 338 1182 338 1221 440.5 c 128,-1,29
 1260 543 1260 543 1260 664 c 0,30,31
 1260 783 1260 783 1220 884 c 128,-1,32
 1180 985 1180 985 1109 1059 c 128,-1,33
 1038 1133 1038 1133 941 1175 c 128,-1,34
 844 1217 844 1217 727 1217 c 256,35,36
 610 1217 610 1217 513 1175 c 128,-1,37
 416 1133 416 1133 345 1059 c 128,-1,38
 274 985 274 985 234.5 883.5 c 128,-1,39
 195 782 195 782 195 664 c 0,20,21
369 664 m 256,40,41
 369 744 369 744 395.5 813.5 c 128,-1,42
 422 883 422 883 471 935 c 128,-1,43
 520 987 520 987 589.5 1018 c 128,-1,44
 659 1049 659 1049 743 1049 c 0,45,46
 780 1049 780 1049 823 1042.5 c 128,-1,47
 866 1036 866 1036 903 1026 c 128,-1,48
 940 1016 940 1016 964.5 998.5 c 128,-1,49
 989 981 989 981 989 961 c 0,50,51
 989 914 989 914 966.5 887 c 128,-1,52
 944 860 944 860 911 860 c 0,53,54
 899 860 899 860 885.5 865 c 128,-1,55
 872 870 872 870 855 877.5 c 128,-1,56
 838 885 838 885 815.5 890 c 128,-1,57
 793 895 793 895 760 895 c 0,58,59
 668 895 668 895 604.5 834.5 c 128,-1,60
 541 774 541 774 541 664 c 0,61,62
 541 553 541 553 604.5 490.5 c 128,-1,63
 668 428 668 428 760 428 c 0,64,65
 795 428 795 428 819.5 433 c 128,-1,66
 844 438 844 438 877.5 450.5 c 128,-1,67
 911 463 911 463 926 463 c 0,68,69
 998 463 998 463 997 360 c 0,70,71
 997 335 997 335 967.5 320 c 128,-1,72
 938 305 938 305 896 295 c 128,-1,73
 854 285 854 285 811 280.5 c 128,-1,74
 768 276 768 276 743 276 c 0,75,76
 659 276 659 276 590.5 307 c 128,-1,77
 522 338 522 338 473 390 c 128,-1,78
 424 442 424 442 396.5 513 c 128,-1,79
 369 584 369 584 369 664 c 256,40,41
EndSplineSet
EndChar

StartChar: ordfeminine
Encoding: 170 170 108
Width: 901
GlyphClass: 2
Flags: W
LayerCount: 2
Fore
SplineSet
84 766 m 0,0,1
 84 897 84 897 177 960.5 c 128,-1,2
 270 1024 270 1024 436 1024 c 0,3,4
 477 1024 477 1024 521 1020 c 128,-1,5
 565 1016 565 1016 612 1008 c 1,6,-1
 612 1047 l 2,7,8
 612 1125 612 1125 576.5 1159.5 c 128,-1,9
 541 1194 541 1194 455 1194 c 256,10,11
 369 1194 369 1194 312.5 1175.5 c 128,-1,12
 256 1157 256 1157 217 1157 c 0,13,14
 182 1157 182 1157 164.5 1185.5 c 128,-1,15
 147 1214 147 1214 147 1262 c 0,16,17
 147 1282 147 1282 150 1292 c 1,18,19
 168 1298 168 1298 200.5 1306.5 c 128,-1,20
 233 1315 233 1315 274 1323 c 128,-1,21
 315 1331 315 1331 363.5 1336 c 128,-1,22
 412 1341 412 1341 461 1341 c 0,23,24
 555 1341 555 1341 618.5 1319.5 c 128,-1,25
 682 1298 682 1298 720 1257.5 c 128,-1,26
 758 1217 758 1217 774.5 1156.5 c 128,-1,27
 791 1096 791 1096 791 1018 c 2,28,-1
 791 848 l 2,29,30
 791 801 791 801 791 763 c 128,-1,31
 791 725 791 725 794 690 c 128,-1,32
 797 655 797 655 804 621.5 c 128,-1,33
 811 588 811 588 823 549 c 1,34,35
 807 543 807 543 783.5 536.5 c 128,-1,36
 760 530 760 530 729 530 c 0,37,38
 670 530 670 530 649.5 571 c 128,-1,39
 629 612 629 612 625 672 c 1,40,41
 580 606 580 606 511 566 c 128,-1,42
 442 526 442 526 348 526 c 0,43,44
 285 526 285 526 235.5 545.5 c 128,-1,45
 186 565 186 565 152.5 598 c 128,-1,46
 119 631 119 631 101.5 674 c 128,-1,47
 84 717 84 717 84 766 c 0,0,1
266 778 m 0,48,49
 266 729 266 729 303 698.5 c 128,-1,50
 340 668 340 668 410 668 c 0,51,52
 478 668 478 668 530 704.5 c 128,-1,53
 582 741 582 741 614 811 c 1,54,-1
 614 897 l 1,55,56
 575 903 575 903 540.5 907 c 128,-1,57
 506 911 506 911 473 911 c 0,58,59
 375 911 375 911 320.5 878.5 c 128,-1,60
 266 846 266 846 266 778 c 0,48,49
EndSplineSet
EndChar

StartChar: guillemotleft
Encoding: 171 171 109
Width: 1193
GlyphClass: 2
Flags: W
LayerCount: 2
Fore
SplineSet
59 397 m 1,0,-1
 59 555 l 1,1,-1
 541 881 l 1,2,3
 553 858 553 858 562 828.5 c 128,-1,4
 571 799 571 799 571 768 c 0,5,6
 571 721 571 721 549.5 685 c 128,-1,7
 528 649 528 649 498 631 c 2,8,-1
 252 481 l 1,9,-1
 498 336 l 2,10,11
 529 318 529 318 550 283 c 128,-1,12
 571 248 571 248 571 201 c 0,13,14
 571 170 571 170 562 140.5 c 128,-1,15
 553 111 553 111 541 88 c 1,16,-1
 59 397 l 1,0,-1
555 397 m 1,17,-1
 555 555 l 1,18,-1
 1037 881 l 1,19,20
 1049 858 1049 858 1058 828.5 c 128,-1,21
 1067 799 1067 799 1067 768 c 0,22,23
 1067 721 1067 721 1045.5 685 c 128,-1,24
 1024 649 1024 649 994 631 c 2,25,-1
 748 481 l 1,26,-1
 994 336 l 2,27,28
 1025 318 1025 318 1046 283 c 128,-1,29
 1067 248 1067 248 1067 201 c 0,30,31
 1067 170 1067 170 1058 140.5 c 128,-1,32
 1049 111 1049 111 1037 88 c 1,33,-1
 555 397 l 1,17,-1
EndSplineSet
EndChar

StartChar: logicalnot
Encoding: 172 172 110
Width: 1241
GlyphClass: 2
Flags: W
LayerCount: 2
Fore
SplineSet
113 530 m 0,0,1
 113 587 113 587 136.5 606 c 128,-1,2
 160 625 160 625 197 625 c 2,3,-1
 1004 625 l 2,4,5
 1080 625 1080 625 1101 595 c 128,-1,6
 1122 565 1122 565 1122 518 c 2,7,-1
 1122 78 l 2,8,9
 1122 43 1122 43 1101.5 20.5 c 128,-1,10
 1081 -2 1081 -2 1026 -2 c 0,11,12
 999 -2 999 -2 974.5 1 c 128,-1,13
 950 4 950 4 936 6 c 1,14,-1
 936 440 l 1,15,-1
 121 440 l 1,16,17
 113 471 113 471 113 530 c 0,0,1
EndSplineSet
EndChar

StartChar: uni00AD
Encoding: 173 173 111
Width: 727
GlyphClass: 2
Flags: W
LayerCount: 2
Fore
SplineSet
55 520 m 0,0,1
 55 579 55 579 80.5 602 c 128,-1,2
 106 625 106 625 143 625 c 2,3,-1
 664 625 l 1,4,5
 666 609 666 609 669 583 c 128,-1,6
 672 557 672 557 672 530 c 0,7,8
 672 471 672 471 647.5 447.5 c 128,-1,9
 623 424 623 424 586 424 c 2,10,-1
 66 424 l 1,11,12
 64 440 64 440 59.5 466 c 128,-1,13
 55 492 55 492 55 520 c 0,0,1
EndSplineSet
EndChar

StartChar: registered
Encoding: 174 174 112
Width: 768
GlyphClass: 2
Flags: W
LayerCount: 2
Fore
SplineSet
53 1018 m 0,0,1
 53 1086 53 1086 78.5 1146 c 128,-1,2
 104 1206 104 1206 148.5 1251 c 128,-1,3
 193 1296 193 1296 253 1323 c 128,-1,4
 313 1350 313 1350 385 1350 c 0,5,6
 455 1350 455 1350 515 1323 c 128,-1,7
 575 1296 575 1296 619.5 1251 c 128,-1,8
 664 1206 664 1206 689.5 1145.5 c 128,-1,9
 715 1085 715 1085 715 1018 c 0,10,11
 715 946 715 946 689.5 885.5 c 128,-1,12
 664 825 664 825 619.5 781 c 128,-1,13
 575 737 575 737 515 711.5 c 128,-1,14
 455 686 455 686 385 686 c 0,15,16
 313 686 313 686 253 711.5 c 128,-1,17
 193 737 193 737 148.5 782 c 128,-1,18
 104 827 104 827 78.5 887.5 c 128,-1,19
 53 948 53 948 53 1018 c 0,0,1
127 1018 m 0,20,21
 127 959 127 959 148.5 910.5 c 128,-1,22
 170 862 170 862 206 828.5 c 128,-1,23
 242 795 242 795 289 776.5 c 128,-1,24
 336 758 336 758 385 758 c 256,25,26
 434 758 434 758 480 776.5 c 128,-1,27
 526 795 526 795 561 828.5 c 128,-1,28
 596 862 596 862 617.5 910 c 128,-1,29
 639 958 639 958 639 1018 c 0,30,31
 639 1075 639 1075 617.5 1123 c 128,-1,32
 596 1171 596 1171 561 1205 c 128,-1,33
 526 1239 526 1239 480 1257.5 c 128,-1,34
 434 1276 434 1276 385 1276 c 256,35,36
 336 1276 336 1276 289 1257.5 c 128,-1,37
 242 1239 242 1239 206 1205 c 128,-1,38
 170 1171 170 1171 148.5 1123 c 128,-1,39
 127 1075 127 1075 127 1018 c 0,20,21
262 848 m 1,40,-1
 262 1155 l 2,41,42
 262 1171 262 1171 269 1181.5 c 128,-1,43
 276 1192 276 1192 303 1192 c 2,44,-1
 391 1192 l 2,45,46
 450 1192 450 1192 488 1162.5 c 128,-1,47
 526 1133 526 1133 526 1079 c 0,48,49
 526 1044 526 1044 504.5 1016.5 c 128,-1,50
 483 989 483 989 440 979 c 1,51,-1
 535 854 l 1,52,53
 525 848 525 848 513 844 c 128,-1,54
 501 840 501 840 485 840 c 0,55,56
 450 840 450 840 432 866 c 2,57,-1
 356 969 l 1,58,-1
 342 969 l 1,59,-1
 342 877 l 2,60,61
 342 844 342 844 301 844 c 0,62,63
 283 844 283 844 262 848 c 1,40,-1
342 1034 m 1,64,-1
 387 1034 l 2,65,66
 418 1034 418 1034 431 1047.5 c 128,-1,67
 444 1061 444 1061 444 1077 c 0,68,69
 444 1122 444 1122 391 1122 c 2,70,-1
 342 1122 l 1,71,-1
 342 1034 l 1,64,-1
EndSplineSet
EndChar

StartChar: macron
Encoding: 175 175 113
Width: 954
GlyphClass: 2
Flags: W
LayerCount: 2
Fore
SplineSet
211 1268 m 0,0,1
 211 1321 211 1321 232.5 1340.5 c 128,-1,2
 254 1360 254 1360 289 1360 c 2,3,-1
 793 1360 l 1,4,5
 797 1346 797 1346 799 1324.5 c 128,-1,6
 801 1303 801 1303 801 1278 c 0,7,8
 801 1186 801 1186 723 1186 c 2,9,-1
 219 1186 l 1,10,11
 215 1200 215 1200 213 1221.5 c 128,-1,12
 211 1243 211 1243 211 1268 c 0,0,1
EndSplineSet
EndChar

StartChar: degree
Encoding: 176 176 114
Width: 813
GlyphClass: 2
Flags: W
LayerCount: 2
Fore
SplineSet
78 1026 m 256,0,1
 78 1094 78 1094 103.5 1154 c 128,-1,2
 129 1214 129 1214 174 1258.5 c 128,-1,3
 219 1303 219 1303 279.5 1328.5 c 128,-1,4
 340 1354 340 1354 408 1354 c 256,5,6
 476 1354 476 1354 535 1328.5 c 128,-1,7
 594 1303 594 1303 639 1258.5 c 128,-1,8
 684 1214 684 1214 709.5 1154 c 128,-1,9
 735 1094 735 1094 735 1026 c 256,10,11
 735 958 735 958 709.5 899 c 128,-1,12
 684 840 684 840 639 795 c 128,-1,13
 594 750 594 750 535 724 c 128,-1,14
 476 698 476 698 408 698 c 256,15,16
 340 698 340 698 279.5 724 c 128,-1,17
 219 750 219 750 174 795 c 128,-1,18
 129 840 129 840 103.5 899 c 128,-1,19
 78 958 78 958 78 1026 c 256,0,1
215 1026 m 256,20,21
 215 987 215 987 230.5 952.5 c 128,-1,22
 246 918 246 918 271.5 892 c 128,-1,23
 297 866 297 866 332 851 c 128,-1,24
 367 836 367 836 408 836 c 0,25,26
 447 836 447 836 481.5 851 c 128,-1,27
 516 866 516 866 541.5 892 c 128,-1,28
 567 918 567 918 582.5 952.5 c 128,-1,29
 598 987 598 987 598 1026 c 256,30,31
 598 1065 598 1065 582.5 1101 c 128,-1,32
 567 1137 567 1137 541.5 1162.5 c 128,-1,33
 516 1188 516 1188 481 1203.5 c 128,-1,34
 446 1219 446 1219 408 1219 c 0,35,36
 367 1219 367 1219 332 1203.5 c 128,-1,37
 297 1188 297 1188 271.5 1162.5 c 128,-1,38
 246 1137 246 1137 230.5 1101 c 128,-1,39
 215 1065 215 1065 215 1026 c 256,20,21
EndSplineSet
EndChar

StartChar: plusminus
Encoding: 177 177 115
Width: 1148
GlyphClass: 2
Flags: W
LayerCount: 2
Fore
SplineSet
68 890 m 0,0,1
 68 947 68 947 91.5 966 c 128,-1,2
 115 985 115 985 152 985 c 2,3,-1
 477 985 l 1,4,-1
 477 1331 l 2,5,6
 477 1366 477 1366 497.5 1388.5 c 128,-1,7
 518 1411 518 1411 573 1411 c 0,8,9
 600 1411 600 1411 625.5 1407.5 c 128,-1,10
 651 1404 651 1404 666 1402 c 1,11,-1
 666 985 l 1,12,-1
 1073 985 l 1,13,14
 1081 954 1081 954 1081 895 c 0,15,16
 1081 838 1081 838 1057.5 819 c 128,-1,17
 1034 800 1034 800 997 800 c 2,18,-1
 666 800 l 1,19,-1
 666 438 l 2,20,21
 666 403 666 403 645 380.5 c 128,-1,22
 624 358 624 358 569 358 c 0,23,24
 542 358 542 358 517 361 c 128,-1,25
 492 364 492 364 477 366 c 1,26,-1
 477 800 l 1,27,-1
 76 800 l 1,28,29
 68 831 68 831 68 890 c 0,0,1
EndSplineSet
EndChar

StartChar: uni00B2
Encoding: 178 178 116
Width: 878
GlyphClass: 2
Flags: W
LayerCount: 2
Fore
SplineSet
119 526 m 256,0,1
 119 546 119 546 129 581 c 128,-1,2
 139 616 139 616 176 647 c 2,3,-1
 389 825 l 2,4,5
 440 868 440 868 476 900 c 128,-1,6
 512 932 512 932 533.5 957.5 c 128,-1,7
 555 983 555 983 564 1007.5 c 128,-1,8
 573 1032 573 1032 573 1063 c 0,9,10
 573 1122 573 1122 534.5 1157 c 128,-1,11
 496 1192 496 1192 422 1192 c 0,12,13
 383 1192 383 1192 352.5 1183 c 128,-1,14
 322 1174 322 1174 295 1161.5 c 128,-1,15
 268 1149 268 1149 244.5 1139.5 c 128,-1,16
 221 1130 221 1130 199 1130 c 0,17,18
 166 1130 166 1130 143.5 1162 c 128,-1,19
 121 1194 121 1194 121 1251 c 1,20,21
 170 1288 170 1288 250 1321 c 128,-1,22
 330 1354 330 1354 434 1354 c 0,23,24
 581 1354 581 1354 664.5 1276 c 128,-1,25
 748 1198 748 1198 748 1069 c 0,26,27
 748 971 748 971 688.5 898 c 128,-1,28
 629 825 629 825 516 739 c 2,29,-1
 354 614 l 1,30,-1
 756 614 l 1,31,32
 758 600 758 600 760 579.5 c 128,-1,33
 762 559 762 559 762 537 c 0,34,35
 762 492 762 492 743.5 473.5 c 128,-1,36
 725 455 725 455 696 455 c 2,37,-1
 127 455 l 1,38,39
 125 465 125 465 122 485.5 c 128,-1,40
 119 506 119 506 119 526 c 256,0,1
EndSplineSet
EndChar

StartChar: uni00B3
Encoding: 179 179 117
Width: 923
GlyphClass: 2
Flags: W
LayerCount: 2
Fore
SplineSet
137 514 m 1,0,1
 137 567 137 567 157.5 601 c 128,-1,2
 178 635 178 635 215 635 c 0,3,4
 235 635 235 635 255.5 629 c 128,-1,5
 276 623 276 623 303 614.5 c 128,-1,6
 330 606 330 606 365.5 600 c 128,-1,7
 401 594 401 594 453 594 c 0,8,9
 529 594 529 594 575 625.5 c 128,-1,10
 621 657 621 657 621 711 c 0,11,12
 621 762 621 762 580 796.5 c 128,-1,13
 539 831 539 831 438 831 c 2,14,-1
 324 831 l 2,15,16
 299 831 299 831 283.5 849.5 c 128,-1,17
 268 868 268 868 268 905 c 0,18,19
 268 921 268 921 270 942 c 128,-1,20
 272 963 272 963 274 973 c 1,21,-1
 432 973 l 2,22,23
 518 973 518 973 559 1003.5 c 128,-1,24
 600 1034 600 1034 600 1085 c 0,25,26
 600 1132 600 1132 564 1163 c 128,-1,27
 528 1194 528 1194 449 1194 c 0,28,29
 365 1194 365 1194 315.5 1175.5 c 128,-1,30
 266 1157 266 1157 233 1157 c 0,31,32
 192 1157 192 1157 174 1194 c 128,-1,33
 156 1231 156 1231 156 1282 c 1,34,35
 209 1311 209 1311 285.5 1331.5 c 128,-1,36
 362 1352 362 1352 461 1352 c 0,37,38
 537 1352 537 1352 595 1332.5 c 128,-1,39
 653 1313 653 1313 691 1281 c 128,-1,40
 729 1249 729 1249 748.5 1206 c 128,-1,41
 768 1163 768 1163 768 1114 c 0,42,43
 768 1040 768 1040 728 989 c 128,-1,44
 688 938 688 938 621 915 c 1,45,46
 697 899 697 899 748 843.5 c 128,-1,47
 799 788 799 788 799 702 c 0,48,49
 799 639 799 639 773.5 590 c 128,-1,50
 748 541 748 541 701.5 506 c 128,-1,51
 655 471 655 471 592 452.5 c 128,-1,52
 529 434 529 434 453 434 c 0,53,54
 367 434 367 434 282 456.5 c 128,-1,55
 197 479 197 479 137 514 c 1,0,1
EndSplineSet
EndChar

StartChar: acute
Encoding: 180 180 118
Width: 954
GlyphClass: 2
Flags: W
LayerCount: 2
Fore
SplineSet
322 1157 m 1,0,-1
 649 1462 l 1,1,2
 690 1450 690 1450 711.5 1418 c 128,-1,3
 733 1386 733 1386 733 1348 c 0,4,5
 733 1313 733 1313 717.5 1282 c 128,-1,6
 702 1251 702 1251 668 1227 c 2,7,-1
 537 1135 l 2,8,9
 485 1100 485 1100 436 1100 c 0,10,11
 366 1100 366 1100 322 1157 c 1,0,-1
EndSplineSet
EndChar

StartChar: uni00B5
Encoding: 181 181 119
Width: 1167
GlyphClass: 2
Flags: W
LayerCount: 2
Fore
SplineSet
115 -383 m 1,0,-1
 115 903 l 2,1,2
 115 944 115 944 139.5 970.5 c 128,-1,3
 164 997 164 997 227 997 c 0,4,5
 260 997 260 997 291 994 c 128,-1,6
 322 991 322 991 338 987 c 1,7,-1
 338 438 l 2,8,9
 338 368 338 368 356.5 317 c 128,-1,10
 375 266 375 266 405.5 233.5 c 128,-1,11
 436 201 436 201 477 184.5 c 128,-1,12
 518 168 518 168 563 168 c 0,13,14
 629 168 629 168 688.5 206 c 128,-1,15
 748 244 748 244 791 315 c 1,16,-1
 791 903 l 2,17,18
 791 944 791 944 815.5 970.5 c 128,-1,19
 840 997 840 997 903 997 c 0,20,21
 936 997 936 997 967.5 994 c 128,-1,22
 999 991 999 991 1016 987 c 1,23,-1
 1016 471 l 2,24,25
 1016 365 1016 365 1021 256 c 128,-1,26
 1026 147 1026 147 1051 8 c 1,27,28
 1035 2 1035 2 1011 -4 c 128,-1,29
 987 -10 987 -10 954 -10 c 0,30,31
 917 -10 917 -10 895.5 -2 c 128,-1,32
 874 6 874 6 861 23.5 c 128,-1,33
 848 41 848 41 841 70.5 c 128,-1,34
 834 100 834 100 827 143 c 1,35,-1
 825 143 l 1,36,37
 784 69 784 69 724 23 c 128,-1,38
 664 -23 664 -23 571 -23 c 0,39,40
 479 -23 479 -23 425 12 c 128,-1,41
 371 47 371 47 338 102 c 1,42,-1
 338 -299 l 2,43,44
 338 -340 338 -340 313.5 -366.5 c 128,-1,45
 289 -393 289 -393 223 -393 c 0,46,47
 192 -393 192 -393 161.5 -390 c 128,-1,48
 131 -387 131 -387 115 -383 c 1,0,-1
EndSplineSet
EndChar

StartChar: paragraph
Encoding: 182 182 120
Width: 1189
GlyphClass: 2
Flags: W
LayerCount: 2
Fore
SplineSet
39 893 m 0,0,1
 39 987 39 987 72.5 1068 c 128,-1,2
 106 1149 106 1149 169.5 1207.5 c 128,-1,3
 233 1266 233 1266 323.5 1298.5 c 128,-1,4
 414 1331 414 1331 524 1331 c 2,5,-1
 928 1331 l 2,6,7
 1004 1331 1004 1331 1025.5 1301.5 c 128,-1,8
 1047 1272 1047 1272 1047 1225 c 2,9,-1
 1047 53 l 2,10,11
 1047 24 1047 24 1029.5 6 c 128,-1,12
 1012 -12 1012 -12 967 -12 c 0,13,14
 944 -12 944 -12 922.5 -10 c 128,-1,15
 901 -8 901 -8 889 -6 c 1,16,-1
 889 1176 l 1,17,-1
 786 1176 l 1,18,-1
 786 53 l 2,19,20
 786 24 786 24 769 6 c 128,-1,21
 752 -12 752 -12 707 -12 c 0,22,23
 684 -12 684 -12 661.5 -10 c 128,-1,24
 639 -8 639 -8 627 -6 c 1,25,-1
 627 461 l 1,26,-1
 524 461 l 2,27,28
 413 461 413 461 323 492.5 c 128,-1,29
 233 524 233 524 171 581.5 c 128,-1,30
 109 639 109 639 74 718 c 128,-1,31
 39 797 39 797 39 893 c 0,0,1
209 893 m 256,32,33
 209 764 209 764 292 692.5 c 128,-1,34
 375 621 375 621 535 621 c 2,35,-1
 627 621 l 1,36,-1
 627 1176 l 1,37,-1
 535 1176 l 2,38,39
 375 1176 375 1176 292 1099 c 128,-1,40
 209 1022 209 1022 209 893 c 256,32,33
EndSplineSet
EndChar

StartChar: periodcentered
Encoding: 183 183 121
Width: 436
GlyphClass: 2
Flags: W
LayerCount: 2
Fore
SplineSet
84 516 m 0,0,1
 84 571 84 571 122.5 610 c 128,-1,2
 161 649 161 649 215 649 c 0,3,4
 270 649 270 649 310 610 c 128,-1,5
 350 571 350 571 350 516 c 0,6,7
 350 463 350 463 310 424 c 128,-1,8
 270 385 270 385 215 385 c 0,9,10
 162 385 162 385 123 423.5 c 128,-1,11
 84 462 84 462 84 516 c 0,0,1
EndSplineSet
EndChar

StartChar: cedilla
Encoding: 184 184 122
Width: 954
GlyphClass: 2
Flags: W
LayerCount: 2
Fore
SplineSet
311 -387 m 1,0,1
 311 -346 311 -346 328.5 -318.5 c 128,-1,2
 346 -291 346 -291 375 -291 c 256,3,4
 404 -291 404 -291 432.5 -304 c 128,-1,5
 461 -317 461 -317 510 -317 c 0,6,7
 551 -317 551 -317 579.5 -296.5 c 128,-1,8
 608 -276 608 -276 608 -238 c 0,9,10
 608 -209 608 -209 582.5 -187.5 c 128,-1,11
 557 -166 557 -166 492 -166 c 2,12,-1
 479 -166 l 2,13,14
 450 -166 450 -166 434 -151.5 c 128,-1,15
 418 -137 418 -137 418 -113 c 0,16,17
 418 -101 418 -101 424 -84 c 2,18,-1
 457 4 l 1,19,-1
 580 4 l 1,20,-1
 553 -66 l 1,21,22
 606 -68 606 -68 644 -84 c 128,-1,23
 682 -100 682 -100 705.5 -125 c 128,-1,24
 729 -150 729 -150 739.5 -179.5 c 128,-1,25
 750 -209 750 -209 750 -240 c 0,26,27
 750 -338 750 -338 682 -389 c 128,-1,28
 614 -440 614 -440 510 -440 c 0,29,30
 459 -440 459 -440 405.5 -425 c 128,-1,31
 352 -410 352 -410 311 -387 c 1,0,1
EndSplineSet
EndChar

StartChar: uni00B9
Encoding: 185 185 123
Width: 798
GlyphClass: 2
Flags: W
LayerCount: 2
Fore
SplineSet
131 1145 m 0,0,1
 131 1192 131 1192 182 1219 c 2,2,-1
 403 1331 l 1,3,-1
 524 1331 l 1,4,-1
 524 508 l 2,5,6
 524 479 524 479 505.5 458.5 c 128,-1,7
 487 438 487 438 440 438 c 0,8,9
 417 438 417 438 394 440 c 128,-1,10
 371 442 371 442 358 446 c 1,11,-1
 358 1143 l 1,12,-1
 172 1051 l 1,13,14
 162 1065 162 1065 146.5 1087.5 c 128,-1,15
 131 1110 131 1110 131 1145 c 0,0,1
EndSplineSet
EndChar

StartChar: ordmasculine
Encoding: 186 186 124
Width: 907
GlyphClass: 2
Flags: W
LayerCount: 2
Fore
SplineSet
59 934 m 0,0,1
 59 1018 59 1018 89 1092.5 c 128,-1,2
 119 1167 119 1167 172 1222.5 c 128,-1,3
 225 1278 225 1278 299 1310.5 c 128,-1,4
 373 1343 373 1343 463 1343 c 0,5,6
 555 1343 555 1343 628.5 1311.5 c 128,-1,7
 702 1280 702 1280 754.5 1224.5 c 128,-1,8
 807 1169 807 1169 835.5 1095.5 c 128,-1,9
 864 1022 864 1022 864 938 c 256,10,11
 864 854 864 854 835.5 780.5 c 128,-1,12
 807 707 807 707 754.5 649.5 c 128,-1,13
 702 592 702 592 628.5 559 c 128,-1,14
 555 526 555 526 463 526 c 0,15,16
 373 526 373 526 299 558 c 128,-1,17
 225 590 225 590 172 645 c 128,-1,18
 119 700 119 700 89 774 c 128,-1,19
 59 848 59 848 59 934 c 0,0,1
238 934 m 0,20,21
 238 873 238 873 258.5 825.5 c 128,-1,22
 279 778 279 778 310.5 746.5 c 128,-1,23
 342 715 342 715 382 698.5 c 128,-1,24
 422 682 422 682 463 682 c 0,25,26
 502 682 502 682 542 697.5 c 128,-1,27
 582 713 582 713 614.5 744.5 c 128,-1,28
 647 776 647 776 667.5 823 c 128,-1,29
 688 870 688 870 688 934 c 0,30,31
 688 993 688 993 669.5 1041.5 c 128,-1,32
 651 1090 651 1090 620.5 1122.5 c 128,-1,33
 590 1155 590 1155 549 1172.5 c 128,-1,34
 508 1190 508 1190 463 1190 c 0,35,36
 420 1190 420 1190 380 1172.5 c 128,-1,37
 340 1155 340 1155 308 1122.5 c 128,-1,38
 276 1090 276 1090 257 1041.5 c 128,-1,39
 238 993 238 993 238 934 c 0,20,21
EndSplineSet
EndChar

StartChar: guillemotright
Encoding: 187 187 125
Width: 1193
GlyphClass: 2
Flags: W
LayerCount: 2
Fore
SplineSet
125 201 m 0,0,1
 125 248 125 248 146.5 283.5 c 128,-1,2
 168 319 168 319 199 338 c 2,3,-1
 444 487 l 1,4,-1
 199 633 l 2,5,6
 168 651 168 651 146.5 686 c 128,-1,7
 125 721 125 721 125 768 c 0,8,9
 125 799 125 799 134 828.5 c 128,-1,10
 143 858 143 858 156 881 c 1,11,-1
 637 571 l 1,12,-1
 637 414 l 1,13,-1
 156 88 l 1,14,15
 144 111 144 111 134.5 140.5 c 128,-1,16
 125 170 125 170 125 201 c 0,0,1
621 201 m 0,17,18
 621 248 621 248 642.5 283.5 c 128,-1,19
 664 319 664 319 695 338 c 2,20,-1
 940 487 l 1,21,-1
 695 633 l 2,22,23
 664 651 664 651 642.5 686 c 128,-1,24
 621 721 621 721 621 768 c 0,25,26
 621 799 621 799 630 828.5 c 128,-1,27
 639 858 639 858 652 881 c 1,28,-1
 1133 571 l 1,29,-1
 1133 414 l 1,30,-1
 652 88 l 1,31,32
 640 111 640 111 630.5 140.5 c 128,-1,33
 621 170 621 170 621 201 c 0,17,18
EndSplineSet
EndChar

StartChar: onequarter
Encoding: 188 188 126
Width: 1851
GlyphClass: 2
Flags: W
LayerCount: 2
Fore
SplineSet
59 1145 m 0,0,1
 59 1192 59 1192 111 1219 c 2,2,-1
 332 1331 l 1,3,-1
 453 1331 l 1,4,-1
 453 508 l 2,5,6
 453 479 453 479 434.5 458.5 c 128,-1,7
 416 438 416 438 369 438 c 0,8,9
 346 438 346 438 322.5 440 c 128,-1,10
 299 442 299 442 287 446 c 1,11,-1
 287 1143 l 1,12,-1
 100 1051 l 1,13,14
 90 1065 90 1065 74.5 1087.5 c 128,-1,15
 59 1110 59 1110 59 1145 c 0,0,1
479 188 m 1,16,-1
 1049 1133 l 2,17,18
 1065 1160 1065 1160 1084.5 1169 c 128,-1,19
 1104 1178 1104 1178 1126 1178 c 0,20,21
 1161 1178 1161 1178 1179.5 1167.5 c 128,-1,22
 1198 1157 1198 1157 1212 1147 c 1,23,-1
 643 205 l 2,24,25
 627 180 627 180 607.5 169 c 128,-1,26
 588 158 588 158 567 158 c 0,27,28
 518 158 518 158 479 188 c 1,16,-1
1016 258 m 0,29,30
 1016 287 1016 287 1026 315.5 c 128,-1,31
 1036 344 1036 344 1059 377 c 2,32,-1
 1430 889 l 1,33,-1
 1612 889 l 1,34,-1
 1612 332 l 1,35,-1
 1753 332 l 1,36,37
 1757 320 1757 320 1759 298 c 128,-1,38
 1761 276 1761 276 1761 254 c 0,39,40
 1761 213 1761 213 1745 195.5 c 128,-1,41
 1729 178 1729 178 1700 178 c 2,42,-1
 1612 178 l 1,43,-1
 1612 57 l 2,44,45
 1612 28 1612 28 1593.5 8 c 128,-1,46
 1575 -12 1575 -12 1528 -12 c 0,47,48
 1505 -12 1505 -12 1480.5 -10 c 128,-1,49
 1456 -8 1456 -8 1444 -4 c 1,50,-1
 1444 178 l 1,51,-1
 1026 178 l 1,52,53
 1016 209 1016 209 1016 258 c 0,29,30
1200 330 m 1,54,-1
 1444 330 l 1,55,-1
 1444 666 l 1,56,-1
 1200 330 l 1,54,-1
EndSplineSet
EndChar

StartChar: onehalf
Encoding: 189 189 127
Width: 1878
GlyphClass: 2
Flags: W
LayerCount: 2
Fore
SplineSet
59 1145 m 0,0,1
 59 1192 59 1192 111 1219 c 2,2,-1
 332 1331 l 1,3,-1
 453 1331 l 1,4,-1
 453 508 l 2,5,6
 453 479 453 479 434.5 458.5 c 128,-1,7
 416 438 416 438 369 438 c 0,8,9
 346 438 346 438 322.5 440 c 128,-1,10
 299 442 299 442 287 446 c 1,11,-1
 287 1143 l 1,12,-1
 100 1051 l 1,13,14
 90 1065 90 1065 74.5 1087.5 c 128,-1,15
 59 1110 59 1110 59 1145 c 0,0,1
461 188 m 1,16,-1
 1030 1133 l 2,17,18
 1046 1160 1046 1160 1066.5 1169 c 128,-1,19
 1087 1178 1087 1178 1110 1178 c 0,20,21
 1143 1178 1143 1178 1160.5 1167.5 c 128,-1,22
 1178 1157 1178 1157 1192 1147 c 1,23,-1
 625 205 l 2,24,25
 609 176 609 176 587 167 c 128,-1,26
 565 158 565 158 543 158 c 0,27,28
 500 158 500 158 461 188 c 1,16,-1
1118 74 m 0,29,30
 1118 109 1118 109 1130.5 144.5 c 128,-1,31
 1143 180 1143 180 1182 211 c 2,32,-1
 1366 356 l 2,33,34
 1415 395 1415 395 1455 426 c 128,-1,35
 1495 457 1495 457 1522.5 484.5 c 128,-1,36
 1550 512 1550 512 1564.5 540.5 c 128,-1,37
 1579 569 1579 569 1579 606 c 0,38,39
 1579 661 1579 661 1541 698 c 128,-1,40
 1503 735 1503 735 1436 735 c 0,41,42
 1395 735 1395 735 1362 725 c 128,-1,43
 1329 715 1329 715 1301.5 703.5 c 128,-1,44
 1274 692 1274 692 1250.5 682 c 128,-1,45
 1227 672 1227 672 1204 672 c 0,46,47
 1175 672 1175 672 1149.5 699.5 c 128,-1,48
 1124 727 1124 727 1124 776 c 0,49,50
 1124 799 1124 799 1156 820.5 c 128,-1,51
 1188 842 1188 842 1237 859.5 c 128,-1,52
 1286 877 1286 877 1342.5 888 c 128,-1,53
 1399 899 1399 899 1448 899 c 0,54,55
 1518 899 1518 899 1575 877.5 c 128,-1,56
 1632 856 1632 856 1672 818 c 128,-1,57
 1712 780 1712 780 1734.5 728 c 128,-1,58
 1757 676 1757 676 1757 614 c 0,59,60
 1757 553 1757 553 1735.5 505 c 128,-1,61
 1714 457 1714 457 1677 417 c 128,-1,62
 1640 377 1640 377 1591 341 c 128,-1,63
 1542 305 1542 305 1485 264 c 2,64,-1
 1343 160 l 1,65,-1
 1763 160 l 1,66,67
 1765 148 1765 148 1766 126 c 128,-1,68
 1767 104 1767 104 1767 82 c 0,69,70
 1767 37 1767 37 1750 18.5 c 128,-1,71
 1733 0 1733 0 1704 0 c 2,72,-1
 1126 0 l 1,73,74
 1124 10 1124 10 1121 32.5 c 128,-1,75
 1118 55 1118 55 1118 74 c 0,29,30
EndSplineSet
EndChar

StartChar: threequarters
Encoding: 190 190 128
Width: 2076
GlyphClass: 2
Flags: W
LayerCount: 2
Fore
SplineSet
94 514 m 1,0,1
 94 567 94 567 114.5 602 c 128,-1,2
 135 637 135 637 170 637 c 0,3,4
 190 637 190 637 211.5 630 c 128,-1,5
 233 623 233 623 259 613.5 c 128,-1,6
 285 604 285 604 320.5 597 c 128,-1,7
 356 590 356 590 408 590 c 0,8,9
 484 590 484 590 529.5 622.5 c 128,-1,10
 575 655 575 655 575 709 c 0,11,12
 575 760 575 760 535.5 795.5 c 128,-1,13
 496 831 496 831 393 831 c 2,14,-1
 279 831 l 2,15,16
 256 831 256 831 240.5 849.5 c 128,-1,17
 225 868 225 868 225 905 c 0,18,19
 225 921 225 921 226 942 c 128,-1,20
 227 963 227 963 229 973 c 1,21,-1
 387 973 l 2,22,23
 475 973 475 973 515 1003.5 c 128,-1,24
 555 1034 555 1034 555 1090 c 0,25,26
 555 1133 555 1133 520 1165.5 c 128,-1,27
 485 1198 485 1198 406 1198 c 0,28,29
 363 1198 363 1198 330 1191 c 128,-1,30
 297 1184 297 1184 270.5 1176.5 c 128,-1,31
 244 1169 244 1169 224.5 1162 c 128,-1,32
 205 1155 205 1155 188 1155 c 0,33,34
 147 1155 147 1155 130 1193 c 128,-1,35
 113 1231 113 1231 111 1282 c 1,36,37
 164 1311 164 1311 241.5 1331.5 c 128,-1,38
 319 1352 319 1352 418 1352 c 0,39,40
 494 1352 494 1352 551 1332.5 c 128,-1,41
 608 1313 608 1313 646 1281 c 128,-1,42
 684 1249 684 1249 703.5 1206 c 128,-1,43
 723 1163 723 1163 723 1114 c 0,44,45
 723 1040 723 1040 683 989 c 128,-1,46
 643 938 643 938 578 915 c 1,47,48
 654 899 654 899 704 842.5 c 128,-1,49
 754 786 754 786 754 700 c 0,50,51
 754 639 754 639 728 589 c 128,-1,52
 702 539 702 539 656 505 c 128,-1,53
 610 471 610 471 547 452.5 c 128,-1,54
 484 434 484 434 410 434 c 0,55,56
 324 434 324 434 238 456.5 c 128,-1,57
 152 479 152 479 94 514 c 1,0,1
700 188 m 1,58,-1
 1270 1133 l 2,59,60
 1299 1178 1299 1178 1348 1178 c 0,61,62
 1383 1178 1383 1178 1400 1167.5 c 128,-1,63
 1417 1157 1417 1157 1432 1147 c 1,64,-1
 862 205 l 2,65,66
 846 176 846 176 825.5 167 c 128,-1,67
 805 158 805 158 782 158 c 0,68,69
 774 158 774 158 766 158 c 128,-1,70
 758 158 758 158 750 162 c 0,71,72
 732 166 732 166 721.5 173 c 128,-1,73
 711 180 711 180 700 188 c 1,58,-1
1235 258 m 0,74,75
 1235 287 1235 287 1245 315.5 c 128,-1,76
 1255 344 1255 344 1278 377 c 2,77,-1
 1649 889 l 1,78,-1
 1831 889 l 1,79,-1
 1831 332 l 1,80,-1
 1972 332 l 1,81,82
 1976 320 1976 320 1978 298 c 128,-1,83
 1980 276 1980 276 1980 254 c 0,84,85
 1980 213 1980 213 1964 195.5 c 128,-1,86
 1948 178 1948 178 1919 178 c 2,87,-1
 1831 178 l 1,88,-1
 1831 57 l 2,89,90
 1831 28 1831 28 1812.5 8 c 128,-1,91
 1794 -12 1794 -12 1747 -12 c 0,92,93
 1724 -12 1724 -12 1699.5 -10 c 128,-1,94
 1675 -8 1675 -8 1663 -4 c 1,95,-1
 1663 178 l 1,96,-1
 1245 178 l 1,97,98
 1235 209 1235 209 1235 258 c 0,74,75
1425 330 m 1,99,-1
 1665 330 l 1,100,-1
 1665 666 l 1,101,-1
 1425 330 l 1,99,-1
EndSplineSet
EndChar

StartChar: questiondown
Encoding: 191 191 129
Width: 944
GlyphClass: 2
Flags: W
LayerCount: 2
Fore
SplineSet
49 332 m 0,0,1
 49 387 49 387 64.5 433 c 128,-1,2
 80 479 80 479 105.5 515 c 128,-1,3
 131 551 131 551 165 578.5 c 128,-1,4
 199 606 199 606 233 625 c 0,5,6
 288 656 288 656 330.5 679 c 128,-1,7
 373 702 373 702 403.5 727 c 128,-1,8
 434 752 434 752 452.5 782.5 c 128,-1,9
 471 813 471 813 477 856 c 0,10,11
 481 874 481 874 499.5 892.5 c 128,-1,12
 518 911 518 911 559 911 c 0,13,14
 596 911 596 911 637 897 c 1,15,16
 639 881 639 881 640 865.5 c 128,-1,17
 641 850 641 850 641 836 c 0,18,19
 641 758 641 758 614.5 705.5 c 128,-1,20
 588 653 588 653 547 615.5 c 128,-1,21
 506 578 506 578 459 549 c 128,-1,22
 412 520 412 520 371 492.5 c 128,-1,23
 330 465 330 465 303 433 c 128,-1,24
 276 401 276 401 276 356 c 0,25,26
 276 284 276 284 330.5 240.5 c 128,-1,27
 385 197 385 197 483 197 c 0,28,29
 551 197 551 197 599 208 c 128,-1,30
 647 219 647 219 683 232.5 c 128,-1,31
 719 246 719 246 746.5 257 c 128,-1,32
 774 268 774 268 803 268 c 0,33,34
 848 268 848 268 875.5 227 c 128,-1,35
 903 186 903 186 905 111 c 1,36,37
 868 86 868 86 820 64.5 c 128,-1,38
 772 43 772 43 717 26.5 c 128,-1,39
 662 10 662 10 602 0 c 128,-1,40
 542 -10 542 -10 483 -10 c 0,41,42
 379 -10 379 -10 298 15.5 c 128,-1,43
 217 41 217 41 161.5 87 c 128,-1,44
 106 133 106 133 77.5 195.5 c 128,-1,45
 49 258 49 258 49 332 c 0,0,1
428 1225 m 0,46,47
 428 1278 428 1278 468 1317 c 128,-1,48
 508 1356 508 1356 563 1356 c 0,49,50
 616 1356 616 1356 655 1317 c 128,-1,51
 694 1278 694 1278 694 1225 c 0,52,53
 694 1170 694 1170 655 1131 c 128,-1,54
 616 1092 616 1092 563 1092 c 0,55,56
 508 1092 508 1092 468 1130.5 c 128,-1,57
 428 1169 428 1169 428 1225 c 0,46,47
EndSplineSet
EndChar

StartChar: Agrave
Encoding: 192 192 130
Width: 1234
GlyphClass: 2
Flags: W
LayerCount: 2
Fore
SplineSet
12 12 m 1,0,-1
 465 1321 l 1,1,2
 504 1331 504 1331 542 1335 c 128,-1,3
 580 1339 580 1339 614 1339 c 0,4,5
 663 1339 663 1339 695 1332 c 128,-1,6
 727 1325 727 1325 748.5 1309.5 c 128,-1,7
 770 1294 770 1294 784.5 1270.5 c 128,-1,8
 799 1247 799 1247 811 1212 c 2,9,-1
 1223 14 l 1,10,11
 1198 4 1198 4 1166.5 -4 c 128,-1,12
 1135 -12 1135 -12 1108 -12 c 0,13,14
 1061 -12 1061 -12 1026 -1 c 128,-1,15
 991 10 991 10 975 57 c 2,16,-1
 877 350 l 1,17,-1
 352 350 l 1,18,-1
 256 57 l 2,19,20
 240 12 240 12 209 0 c 128,-1,21
 178 -12 178 -12 133 -12 c 0,22,23
 104 -12 104 -12 68.5 -6 c 128,-1,24
 33 0 33 0 12 12 c 1,0,-1
346 1645 m 0,25,26
 346 1684 346 1684 367.5 1715.5 c 128,-1,27
 389 1747 389 1747 430 1759 c 1,28,-1
 758 1454 l 1,29,30
 713 1397 713 1397 645 1397 c 0,31,32
 594 1397 594 1397 543 1432 c 2,33,-1
 412 1524 l 2,34,35
 377 1549 377 1549 360.5 1579.5 c 128,-1,36
 344 1610 344 1610 346 1645 c 0,25,26
418 547 m 1,37,-1
 813 547 l 1,38,-1
 616 1141 l 1,39,-1
 418 547 l 1,37,-1
EndSplineSet
EndChar

StartChar: Aacute
Encoding: 193 193 131
Width: 1234
GlyphClass: 2
Flags: W
LayerCount: 2
Fore
SplineSet
12 12 m 1,0,-1
 465 1321 l 1,1,2
 504 1331 504 1331 542 1335 c 128,-1,3
 580 1339 580 1339 614 1339 c 0,4,5
 663 1339 663 1339 695 1332 c 128,-1,6
 727 1325 727 1325 748.5 1309.5 c 128,-1,7
 770 1294 770 1294 784.5 1270.5 c 128,-1,8
 799 1247 799 1247 811 1212 c 2,9,-1
 1223 14 l 1,10,11
 1198 4 1198 4 1166.5 -4 c 128,-1,12
 1135 -12 1135 -12 1108 -12 c 0,13,14
 1061 -12 1061 -12 1026 -1 c 128,-1,15
 991 10 991 10 975 57 c 2,16,-1
 877 350 l 1,17,-1
 352 350 l 1,18,-1
 256 57 l 2,19,20
 240 12 240 12 209 0 c 128,-1,21
 178 -12 178 -12 133 -12 c 0,22,23
 104 -12 104 -12 68.5 -6 c 128,-1,24
 33 0 33 0 12 12 c 1,0,-1
418 547 m 1,25,-1
 813 547 l 1,26,-1
 616 1141 l 1,27,-1
 418 547 l 1,25,-1
422 1454 m 1,28,-1
 749 1759 l 1,29,30
 790 1747 790 1747 811.5 1715 c 128,-1,31
 833 1683 833 1683 833 1645 c 0,32,33
 833 1610 833 1610 817.5 1579 c 128,-1,34
 802 1548 802 1548 768 1524 c 2,35,-1
 637 1432 l 2,36,37
 585 1397 585 1397 536 1397 c 0,38,39
 466 1397 466 1397 422 1454 c 1,28,-1
EndSplineSet
EndChar

StartChar: Acircumflex
Encoding: 194 194 132
Width: 1234
GlyphClass: 2
Flags: W
LayerCount: 2
Fore
SplineSet
12 12 m 1,0,-1
 465 1321 l 1,1,2
 504 1331 504 1331 542 1335 c 128,-1,3
 580 1339 580 1339 614 1339 c 0,4,5
 663 1339 663 1339 695 1332 c 128,-1,6
 727 1325 727 1325 748.5 1309.5 c 128,-1,7
 770 1294 770 1294 784.5 1270.5 c 128,-1,8
 799 1247 799 1247 811 1212 c 2,9,-1
 1223 14 l 1,10,11
 1198 4 1198 4 1166.5 -4 c 128,-1,12
 1135 -12 1135 -12 1108 -12 c 0,13,14
 1061 -12 1061 -12 1026 -1 c 128,-1,15
 991 10 991 10 975 57 c 2,16,-1
 877 350 l 1,17,-1
 352 350 l 1,18,-1
 256 57 l 2,19,20
 240 12 240 12 209 0 c 128,-1,21
 178 -12 178 -12 133 -12 c 0,22,23
 104 -12 104 -12 68.5 -6 c 128,-1,24
 33 0 33 0 12 12 c 1,0,-1
301 1407 m 1,25,-1
 506 1724 l 1,26,27
 531 1734 531 1734 559.5 1741.5 c 128,-1,28
 588 1749 588 1749 617 1749 c 0,29,30
 676 1749 676 1749 704.5 1732.5 c 128,-1,31
 733 1716 733 1716 756 1685 c 2,32,-1
 934 1409 l 1,33,34
 914 1399 914 1399 887 1392.5 c 128,-1,35
 860 1386 860 1386 838 1386 c 0,36,37
 797 1386 797 1386 770.5 1397.5 c 128,-1,38
 744 1409 744 1409 727 1437 c 2,39,-1
 619 1622 l 1,40,-1
 502 1429 l 2,41,42
 474 1386 474 1386 400 1386 c 0,43,44
 373 1386 373 1386 346.5 1392.5 c 128,-1,45
 320 1399 320 1399 301 1407 c 1,25,-1
418 547 m 1,46,-1
 813 547 l 1,47,-1
 616 1141 l 1,48,-1
 418 547 l 1,46,-1
EndSplineSet
EndChar

StartChar: Atilde
Encoding: 195 195 133
Width: 1234
GlyphClass: 2
Flags: W
LayerCount: 2
Fore
SplineSet
12 12 m 1,0,-1
 465 1321 l 1,1,2
 504 1331 504 1331 542 1335 c 128,-1,3
 580 1339 580 1339 614 1339 c 0,4,5
 663 1339 663 1339 695 1332 c 128,-1,6
 727 1325 727 1325 748.5 1309.5 c 128,-1,7
 770 1294 770 1294 784.5 1270.5 c 128,-1,8
 799 1247 799 1247 811 1212 c 2,9,-1
 1223 14 l 1,10,11
 1198 4 1198 4 1166.5 -4 c 128,-1,12
 1135 -12 1135 -12 1108 -12 c 0,13,14
 1061 -12 1061 -12 1026 -1 c 128,-1,15
 991 10 991 10 975 57 c 2,16,-1
 877 350 l 1,17,-1
 352 350 l 1,18,-1
 256 57 l 2,19,20
 240 12 240 12 209 0 c 128,-1,21
 178 -12 178 -12 133 -12 c 0,22,23
 104 -12 104 -12 68.5 -6 c 128,-1,24
 33 0 33 0 12 12 c 1,0,-1
272 1482 m 1,25,26
 297 1586 297 1586 342 1646 c 128,-1,27
 387 1706 387 1706 473 1706 c 0,28,29
 516 1706 516 1706 551 1690.5 c 128,-1,30
 586 1675 586 1675 615.5 1656.5 c 128,-1,31
 645 1638 645 1638 671.5 1622.5 c 128,-1,32
 698 1607 698 1607 723 1607 c 0,33,34
 746 1607 746 1607 758 1620.5 c 128,-1,35
 770 1634 770 1634 781 1650.5 c 128,-1,36
 792 1667 792 1667 806.5 1680 c 128,-1,37
 821 1693 821 1693 848 1693 c 256,38,39
 875 1693 875 1693 891 1684 c 128,-1,40
 907 1675 907 1675 926 1654 c 1,41,42
 891 1545 891 1545 850 1488 c 128,-1,43
 809 1431 809 1431 725 1431 c 0,44,45
 686 1431 686 1431 651 1446.5 c 128,-1,46
 616 1462 616 1462 585.5 1480.5 c 128,-1,47
 555 1499 555 1499 527.5 1514 c 128,-1,48
 500 1529 500 1529 475 1529 c 0,49,50
 452 1529 452 1529 440 1516 c 128,-1,51
 428 1503 428 1503 416.5 1486.5 c 128,-1,52
 405 1470 405 1470 391 1456.5 c 128,-1,53
 377 1443 377 1443 350 1443 c 256,54,55
 323 1443 323 1443 307 1452.5 c 128,-1,56
 291 1462 291 1462 272 1482 c 1,25,26
418 547 m 1,57,-1
 813 547 l 1,58,-1
 616 1141 l 1,59,-1
 418 547 l 1,57,-1
EndSplineSet
EndChar

StartChar: Adieresis
Encoding: 196 196 134
Width: 1234
GlyphClass: 2
Flags: W
LayerCount: 2
Fore
SplineSet
12 12 m 1,0,-1
 465 1321 l 1,1,2
 504 1331 504 1331 542 1335 c 128,-1,3
 580 1339 580 1339 614 1339 c 0,4,5
 663 1339 663 1339 695 1332 c 128,-1,6
 727 1325 727 1325 748.5 1309.5 c 128,-1,7
 770 1294 770 1294 784.5 1270.5 c 128,-1,8
 799 1247 799 1247 811 1212 c 2,9,-1
 1223 14 l 1,10,11
 1198 4 1198 4 1166.5 -4 c 128,-1,12
 1135 -12 1135 -12 1108 -12 c 0,13,14
 1061 -12 1061 -12 1026 -1 c 128,-1,15
 991 10 991 10 975 57 c 2,16,-1
 877 350 l 1,17,-1
 352 350 l 1,18,-1
 256 57 l 2,19,20
 240 12 240 12 209 0 c 128,-1,21
 178 -12 178 -12 133 -12 c 0,22,23
 104 -12 104 -12 68.5 -6 c 128,-1,24
 33 0 33 0 12 12 c 1,0,-1
307 1539 m 0,25,26
 307 1592 307 1592 343 1627.5 c 128,-1,27
 379 1663 379 1663 430 1663 c 256,28,29
 481 1663 481 1663 517 1627.5 c 128,-1,30
 553 1592 553 1592 553 1539 c 0,31,32
 553 1490 553 1490 517 1454 c 128,-1,33
 481 1418 481 1418 430 1418 c 256,34,35
 379 1418 379 1418 343 1453.5 c 128,-1,36
 307 1489 307 1489 307 1539 c 0,25,26
418 547 m 1,37,-1
 813 547 l 1,38,-1
 616 1141 l 1,39,-1
 418 547 l 1,37,-1
682 1539 m 0,40,41
 682 1592 682 1592 718 1627.5 c 128,-1,42
 754 1663 754 1663 805 1663 c 256,43,44
 856 1663 856 1663 892 1627.5 c 128,-1,45
 928 1592 928 1592 928 1539 c 0,46,47
 928 1490 928 1490 892 1454 c 128,-1,48
 856 1418 856 1418 805 1418 c 256,49,50
 754 1418 754 1418 718 1453.5 c 128,-1,51
 682 1489 682 1489 682 1539 c 0,40,41
EndSplineSet
EndChar

StartChar: Aring
Encoding: 197 197 135
Width: 1234
GlyphClass: 2
Flags: W
LayerCount: 2
Fore
SplineSet
12 12 m 1,0,-1
 465 1321 l 1,1,2
 504 1331 504 1331 542 1335 c 128,-1,3
 580 1339 580 1339 614 1339 c 0,4,5
 663 1339 663 1339 695 1332 c 128,-1,6
 727 1325 727 1325 748.5 1309.5 c 128,-1,7
 770 1294 770 1294 784.5 1270.5 c 128,-1,8
 799 1247 799 1247 811 1212 c 2,9,-1
 1223 14 l 1,10,11
 1198 4 1198 4 1166.5 -4 c 128,-1,12
 1135 -12 1135 -12 1108 -12 c 0,13,14
 1061 -12 1061 -12 1026 -1 c 128,-1,15
 991 10 991 10 975 57 c 2,16,-1
 877 350 l 1,17,-1
 352 350 l 1,18,-1
 256 57 l 2,19,20
 240 12 240 12 209 0 c 128,-1,21
 178 -12 178 -12 133 -12 c 0,22,23
 104 -12 104 -12 68.5 -6 c 128,-1,24
 33 0 33 0 12 12 c 1,0,-1
397 1608 m 0,25,26
 397 1653 397 1653 414.5 1691 c 128,-1,27
 432 1729 432 1729 462 1757.5 c 128,-1,28
 492 1786 492 1786 532.5 1802.5 c 128,-1,29
 573 1819 573 1819 621 1819 c 0,30,31
 666 1819 666 1819 707 1802.5 c 128,-1,32
 748 1786 748 1786 776.5 1757.5 c 128,-1,33
 805 1729 805 1729 822.5 1691 c 128,-1,34
 840 1653 840 1653 840 1608 c 0,35,36
 840 1561 840 1561 822.5 1523 c 128,-1,37
 805 1485 805 1485 774 1456 c 128,-1,38
 743 1427 743 1427 702 1412 c 128,-1,39
 661 1397 661 1397 616 1397 c 0,40,41
 524 1397 524 1397 460.5 1456.5 c 128,-1,42
 397 1516 397 1516 397 1608 c 0,25,26
418 547 m 1,43,-1
 813 547 l 1,44,-1
 616 1141 l 1,45,-1
 418 547 l 1,43,-1
514 1608 m 256,46,47
 514 1561 514 1561 544.5 1530 c 128,-1,48
 575 1499 575 1499 618 1499 c 0,49,50
 659 1499 659 1499 691 1530 c 128,-1,51
 723 1561 723 1561 723 1608 c 256,52,53
 723 1655 723 1655 691 1685.5 c 128,-1,54
 659 1716 659 1716 618 1716 c 0,55,56
 575 1716 575 1716 544.5 1685.5 c 128,-1,57
 514 1655 514 1655 514 1608 c 256,46,47
EndSplineSet
EndChar

StartChar: AE
Encoding: 198 198 136
Width: 1665
GlyphClass: 2
Flags: W
LayerCount: 2
Fore
SplineSet
16 14 m 1,0,-1
 516 1329 l 1,1,-1
 1567 1331 l 1,2,3
 1571 1315 1571 1315 1573 1288.5 c 128,-1,4
 1575 1262 1575 1262 1575 1233 c 0,5,6
 1575 1174 1575 1174 1550.5 1148 c 128,-1,7
 1526 1122 1526 1122 1489 1122 c 2,8,-1
 893 1122 l 1,9,-1
 983 774 l 1,10,-1
 1528 774 l 1,11,12
 1530 758 1530 758 1533 734.5 c 128,-1,13
 1536 711 1536 711 1536 682 c 0,14,15
 1536 623 1536 623 1512.5 602.5 c 128,-1,16
 1489 582 1489 582 1454 582 c 2,17,-1
 1032 582 l 1,18,-1
 1130 209 l 1,19,-1
 1581 209 l 1,20,21
 1585 193 1585 193 1588 164 c 128,-1,22
 1591 135 1591 135 1591 106 c 0,23,24
 1591 45 1591 45 1566.5 22.5 c 128,-1,25
 1542 0 1542 0 1505 0 c 2,26,-1
 1063 0 l 2,27,28
 1040 0 1040 0 1018.5 3 c 128,-1,29
 997 6 997 6 980 16.5 c 128,-1,30
 963 27 963 27 948.5 47.5 c 128,-1,31
 934 68 934 68 926 102 c 2,32,-1
 850 399 l 1,33,-1
 395 399 l 1,34,-1
 270 59 l 2,35,36
 250 14 250 14 219 1 c 128,-1,37
 188 -12 188 -12 141 -12 c 0,38,39
 112 -12 112 -12 75.5 -6 c 128,-1,40
 39 0 39 0 16 14 c 1,0,-1
469 596 m 1,41,-1
 801 596 l 1,42,-1
 668 1126 l 1,43,-1
 469 596 l 1,41,-1
EndSplineSet
EndChar

StartChar: Ccedilla
Encoding: 199 199 137
Width: 1150
GlyphClass: 2
Flags: W
LayerCount: 2
Fore
SplineSet
59 659 m 0,0,1
 59 802 59 802 108.5 927.5 c 128,-1,2
 158 1053 158 1053 245 1145 c 128,-1,3
 332 1237 332 1237 450.5 1289 c 128,-1,4
 569 1341 569 1341 709 1341 c 0,5,6
 813 1341 813 1341 908.5 1317.5 c 128,-1,7
 1004 1294 1004 1294 1090 1260 c 1,8,9
 1090 1250 1090 1250 1091 1240.5 c 128,-1,10
 1092 1231 1092 1231 1092 1221 c 0,11,12
 1092 1143 1092 1143 1065 1107 c 128,-1,13
 1038 1071 1038 1071 993 1071 c 0,14,15
 973 1071 973 1071 948.5 1079 c 128,-1,16
 924 1087 924 1087 892 1097.5 c 128,-1,17
 860 1108 860 1108 817 1116 c 128,-1,18
 774 1124 774 1124 717 1124 c 0,19,20
 629 1124 629 1124 552 1091.5 c 128,-1,21
 475 1059 475 1059 418.5 999.5 c 128,-1,22
 362 940 362 940 329.5 853 c 128,-1,23
 297 766 297 766 297 659 c 0,24,25
 297 548 297 548 329.5 461.5 c 128,-1,26
 362 375 362 375 418.5 314.5 c 128,-1,27
 475 254 475 254 552 223.5 c 128,-1,28
 629 193 629 193 717 193 c 0,29,30
 774 193 774 193 818 201 c 128,-1,31
 862 209 862 209 896 219 c 128,-1,32
 930 229 930 229 954.5 237.5 c 128,-1,33
 979 246 979 246 1001 246 c 0,34,35
 1046 246 1046 246 1071 208 c 128,-1,36
 1096 170 1096 170 1096 86 c 2,37,-1
 1096 57 l 1,38,39
 1010 22 1010 22 910.5 -1.5 c 128,-1,40
 811 -25 811 -25 700 -25 c 1,41,-1
 686 -66 l 1,42,43
 739 -68 739 -68 777 -84 c 128,-1,44
 815 -100 815 -100 838.5 -125 c 128,-1,45
 862 -150 862 -150 872.5 -179.5 c 128,-1,46
 883 -209 883 -209 883 -240 c 0,47,48
 883 -338 883 -338 815 -389 c 128,-1,49
 747 -440 747 -440 643 -440 c 0,50,51
 592 -440 592 -440 538.5 -425 c 128,-1,52
 485 -410 485 -410 444 -387 c 1,53,54
 444 -346 444 -346 461.5 -318.5 c 128,-1,55
 479 -291 479 -291 508 -291 c 256,56,57
 537 -291 537 -291 565.5 -304 c 128,-1,58
 594 -317 594 -317 643 -317 c 0,59,60
 684 -317 684 -317 712.5 -296.5 c 128,-1,61
 741 -276 741 -276 741 -238 c 0,62,63
 741 -209 741 -209 715.5 -187.5 c 128,-1,64
 690 -166 690 -166 625 -166 c 2,65,-1
 612 -166 l 2,66,67
 583 -166 583 -166 567 -151.5 c 128,-1,68
 551 -137 551 -137 551 -113 c 0,69,70
 551 -101 551 -101 557 -84 c 2,71,-1
 584 -12 l 1,72,73
 469 8 469 8 372.5 66.5 c 128,-1,74
 276 125 276 125 206.5 213 c 128,-1,75
 137 301 137 301 98 414.5 c 128,-1,76
 59 528 59 528 59 659 c 0,0,1
EndSplineSet
EndChar

StartChar: Egrave
Encoding: 200 200 138
Width: 1032
GlyphClass: 2
Flags: W
LayerCount: 2
Fore
SplineSet
125 106 m 2,0,-1
 125 1225 l 2,1,2
 125 1272 125 1272 146.5 1301.5 c 128,-1,3
 168 1331 168 1331 244 1331 c 2,4,-1
 932 1331 l 1,5,6
 936 1315 936 1315 939 1286 c 128,-1,7
 942 1257 942 1257 942 1229 c 0,8,9
 942 1170 942 1170 916.5 1146 c 128,-1,10
 891 1122 891 1122 854 1122 c 2,11,-1
 354 1122 l 1,12,-1
 354 766 l 1,13,-1
 883 766 l 1,14,15
 885 750 885 750 888 724 c 128,-1,16
 891 698 891 698 891 670 c 0,17,18
 891 613 891 613 867.5 590 c 128,-1,19
 844 567 844 567 809 567 c 2,20,-1
 354 567 l 1,21,-1
 354 209 l 1,22,-1
 950 209 l 1,23,24
 952 193 952 193 955 167 c 128,-1,25
 958 141 958 141 958 113 c 0,26,27
 958 52 958 52 933.5 26 c 128,-1,28
 909 0 909 0 872 0 c 2,29,-1
 244 0 l 2,30,31
 168 0 168 0 146.5 29.5 c 128,-1,32
 125 59 125 59 125 106 c 2,0,-1
330 1645 m 0,33,34
 330 1684 330 1684 351.5 1715.5 c 128,-1,35
 373 1747 373 1747 414 1759 c 1,36,-1
 742 1454 l 1,37,38
 697 1397 697 1397 629 1397 c 0,39,40
 578 1397 578 1397 527 1432 c 2,41,-1
 396 1524 l 2,42,43
 361 1549 361 1549 344.5 1579.5 c 128,-1,44
 328 1610 328 1610 330 1645 c 0,33,34
EndSplineSet
EndChar

StartChar: Eacute
Encoding: 201 201 139
Width: 1032
GlyphClass: 2
Flags: W
LayerCount: 2
Fore
SplineSet
125 106 m 2,0,-1
 125 1225 l 2,1,2
 125 1272 125 1272 146.5 1301.5 c 128,-1,3
 168 1331 168 1331 244 1331 c 2,4,-1
 932 1331 l 1,5,6
 936 1315 936 1315 939 1286 c 128,-1,7
 942 1257 942 1257 942 1229 c 0,8,9
 942 1170 942 1170 916.5 1146 c 128,-1,10
 891 1122 891 1122 854 1122 c 2,11,-1
 354 1122 l 1,12,-1
 354 766 l 1,13,-1
 883 766 l 1,14,15
 885 750 885 750 888 724 c 128,-1,16
 891 698 891 698 891 670 c 0,17,18
 891 613 891 613 867.5 590 c 128,-1,19
 844 567 844 567 809 567 c 2,20,-1
 354 567 l 1,21,-1
 354 209 l 1,22,-1
 950 209 l 1,23,24
 952 193 952 193 955 167 c 128,-1,25
 958 141 958 141 958 113 c 0,26,27
 958 52 958 52 933.5 26 c 128,-1,28
 909 0 909 0 872 0 c 2,29,-1
 244 0 l 2,30,31
 168 0 168 0 146.5 29.5 c 128,-1,32
 125 59 125 59 125 106 c 2,0,-1
334 1454 m 1,33,-1
 661 1759 l 1,34,35
 702 1747 702 1747 723.5 1715 c 128,-1,36
 745 1683 745 1683 745 1645 c 0,37,38
 745 1610 745 1610 729.5 1579 c 128,-1,39
 714 1548 714 1548 680 1524 c 2,40,-1
 549 1432 l 2,41,42
 497 1397 497 1397 448 1397 c 0,43,44
 378 1397 378 1397 334 1454 c 1,33,-1
EndSplineSet
EndChar

StartChar: Ecircumflex
Encoding: 202 202 140
Width: 1032
GlyphClass: 2
Flags: W
LayerCount: 2
Fore
SplineSet
125 106 m 2,0,-1
 125 1225 l 2,1,2
 125 1272 125 1272 146.5 1301.5 c 128,-1,3
 168 1331 168 1331 244 1331 c 2,4,-1
 932 1331 l 1,5,6
 936 1315 936 1315 939 1286 c 128,-1,7
 942 1257 942 1257 942 1229 c 0,8,9
 942 1170 942 1170 916.5 1146 c 128,-1,10
 891 1122 891 1122 854 1122 c 2,11,-1
 354 1122 l 1,12,-1
 354 766 l 1,13,-1
 883 766 l 1,14,15
 885 750 885 750 888 724 c 128,-1,16
 891 698 891 698 891 670 c 0,17,18
 891 613 891 613 867.5 590 c 128,-1,19
 844 567 844 567 809 567 c 2,20,-1
 354 567 l 1,21,-1
 354 209 l 1,22,-1
 950 209 l 1,23,24
 952 193 952 193 955 167 c 128,-1,25
 958 141 958 141 958 113 c 0,26,27
 958 52 958 52 933.5 26 c 128,-1,28
 909 0 909 0 872 0 c 2,29,-1
 244 0 l 2,30,31
 168 0 168 0 146.5 29.5 c 128,-1,32
 125 59 125 59 125 106 c 2,0,-1
200 1407 m 1,33,-1
 405 1724 l 1,34,35
 430 1734 430 1734 458.5 1741.5 c 128,-1,36
 487 1749 487 1749 516 1749 c 0,37,38
 575 1749 575 1749 603.5 1732.5 c 128,-1,39
 632 1716 632 1716 655 1685 c 2,40,-1
 833 1409 l 1,41,42
 813 1399 813 1399 786 1392.5 c 128,-1,43
 759 1386 759 1386 737 1386 c 0,44,45
 696 1386 696 1386 669.5 1397.5 c 128,-1,46
 643 1409 643 1409 626 1437 c 2,47,-1
 518 1622 l 1,48,-1
 401 1429 l 2,49,50
 373 1386 373 1386 299 1386 c 0,51,52
 272 1386 272 1386 245.5 1392.5 c 128,-1,53
 219 1399 219 1399 200 1407 c 1,33,-1
EndSplineSet
EndChar

StartChar: Edieresis
Encoding: 203 203 141
Width: 1032
GlyphClass: 2
Flags: W
LayerCount: 2
Fore
SplineSet
125 106 m 2,0,-1
 125 1225 l 2,1,2
 125 1272 125 1272 146.5 1301.5 c 128,-1,3
 168 1331 168 1331 244 1331 c 2,4,-1
 932 1331 l 1,5,6
 936 1315 936 1315 939 1286 c 128,-1,7
 942 1257 942 1257 942 1229 c 0,8,9
 942 1170 942 1170 916.5 1146 c 128,-1,10
 891 1122 891 1122 854 1122 c 2,11,-1
 354 1122 l 1,12,-1
 354 766 l 1,13,-1
 883 766 l 1,14,15
 885 750 885 750 888 724 c 128,-1,16
 891 698 891 698 891 670 c 0,17,18
 891 613 891 613 867.5 590 c 128,-1,19
 844 567 844 567 809 567 c 2,20,-1
 354 567 l 1,21,-1
 354 209 l 1,22,-1
 950 209 l 1,23,24
 952 193 952 193 955 167 c 128,-1,25
 958 141 958 141 958 113 c 0,26,27
 958 52 958 52 933.5 26 c 128,-1,28
 909 0 909 0 872 0 c 2,29,-1
 244 0 l 2,30,31
 168 0 168 0 146.5 29.5 c 128,-1,32
 125 59 125 59 125 106 c 2,0,-1
223 1551 m 0,33,34
 223 1604 223 1604 259 1639.5 c 128,-1,35
 295 1675 295 1675 346 1675 c 256,36,37
 397 1675 397 1675 433 1639.5 c 128,-1,38
 469 1604 469 1604 469 1551 c 0,39,40
 469 1502 469 1502 433 1466 c 128,-1,41
 397 1430 397 1430 346 1430 c 256,42,43
 295 1430 295 1430 259 1465.5 c 128,-1,44
 223 1501 223 1501 223 1551 c 0,33,34
598 1551 m 0,45,46
 598 1604 598 1604 634 1639.5 c 128,-1,47
 670 1675 670 1675 721 1675 c 256,48,49
 772 1675 772 1675 808 1639.5 c 128,-1,50
 844 1604 844 1604 844 1551 c 0,51,52
 844 1502 844 1502 808 1466 c 128,-1,53
 772 1430 772 1430 721 1430 c 256,54,55
 670 1430 670 1430 634 1465.5 c 128,-1,56
 598 1501 598 1501 598 1551 c 0,45,46
EndSplineSet
EndChar

StartChar: Igrave
Encoding: 204 204 142
Width: 499
GlyphClass: 2
Flags: W
LayerCount: 2
Fore
SplineSet
-10 1643 m 0,0,1
 -10 1682 -10 1682 11.5 1713.5 c 128,-1,2
 33 1745 33 1745 74 1757 c 1,3,-1
 402 1452 l 1,4,5
 357 1395 357 1395 289 1395 c 0,6,7
 238 1395 238 1395 187 1430 c 2,8,-1
 56 1522 l 2,9,10
 21 1547 21 1547 4.5 1577.5 c 128,-1,11
 -12 1608 -12 1608 -10 1643 c 0,0,1
135 -2 m 1,12,-1
 135 1239 l 2,13,14
 135 1280 135 1280 160.5 1307.5 c 128,-1,15
 186 1335 186 1335 252 1335 c 0,16,17
 285 1335 285 1335 316.5 1332 c 128,-1,18
 348 1329 348 1329 365 1325 c 1,19,-1
 365 84 l 2,20,21
 365 43 365 43 339.5 15.5 c 128,-1,22
 314 -12 314 -12 248 -12 c 0,23,24
 215 -12 215 -12 183.5 -9 c 128,-1,25
 152 -6 152 -6 135 -2 c 1,12,-1
EndSplineSet
EndChar

StartChar: Iacute
Encoding: 205 205 143
Width: 499
GlyphClass: 2
Flags: W
LayerCount: 2
Fore
SplineSet
121 1452 m 1,0,-1
 448 1757 l 1,1,2
 489 1745 489 1745 510.5 1713 c 128,-1,3
 532 1681 532 1681 532 1643 c 0,4,5
 532 1608 532 1608 516.5 1577 c 128,-1,6
 501 1546 501 1546 467 1522 c 2,7,-1
 336 1430 l 2,8,9
 284 1395 284 1395 235 1395 c 0,10,11
 165 1395 165 1395 121 1452 c 1,0,-1
135 -2 m 1,12,-1
 135 1239 l 2,13,14
 135 1280 135 1280 160.5 1307.5 c 128,-1,15
 186 1335 186 1335 252 1335 c 0,16,17
 285 1335 285 1335 316.5 1332 c 128,-1,18
 348 1329 348 1329 365 1325 c 1,19,-1
 365 84 l 2,20,21
 365 43 365 43 339.5 15.5 c 128,-1,22
 314 -12 314 -12 248 -12 c 0,23,24
 215 -12 215 -12 183.5 -9 c 128,-1,25
 152 -6 152 -6 135 -2 c 1,12,-1
EndSplineSet
EndChar

StartChar: Icircumflex
Encoding: 206 206 144
Width: 499
GlyphClass: 2
Flags: W
LayerCount: 2
Fore
SplineSet
-62 1407 m 1,0,-1
 143 1724 l 1,1,2
 168 1734 168 1734 196.5 1741.5 c 128,-1,3
 225 1749 225 1749 254 1749 c 0,4,5
 313 1749 313 1749 341.5 1732.5 c 128,-1,6
 370 1716 370 1716 393 1685 c 2,7,-1
 571 1409 l 1,8,9
 551 1399 551 1399 524 1392.5 c 128,-1,10
 497 1386 497 1386 475 1386 c 0,11,12
 434 1386 434 1386 407.5 1397.5 c 128,-1,13
 381 1409 381 1409 364 1437 c 2,14,-1
 256 1622 l 1,15,-1
 139 1429 l 2,16,17
 111 1386 111 1386 37 1386 c 0,18,19
 10 1386 10 1386 -16.5 1392.5 c 128,-1,20
 -43 1399 -43 1399 -62 1407 c 1,0,-1
135 -2 m 1,21,-1
 135 1239 l 2,22,23
 135 1280 135 1280 160.5 1307.5 c 128,-1,24
 186 1335 186 1335 252 1335 c 0,25,26
 285 1335 285 1335 316.5 1332 c 128,-1,27
 348 1329 348 1329 365 1325 c 1,28,-1
 365 84 l 2,29,30
 365 43 365 43 339.5 15.5 c 128,-1,31
 314 -12 314 -12 248 -12 c 0,32,33
 215 -12 215 -12 183.5 -9 c 128,-1,34
 152 -6 152 -6 135 -2 c 1,21,-1
EndSplineSet
EndChar

StartChar: Idieresis
Encoding: 207 207 145
Width: 499
GlyphClass: 2
Flags: W
LayerCount: 2
Fore
SplineSet
-54 1551 m 0,0,1
 -54 1604 -54 1604 -18 1639.5 c 128,-1,2
 18 1675 18 1675 69 1675 c 256,3,4
 120 1675 120 1675 156 1639.5 c 128,-1,5
 192 1604 192 1604 192 1551 c 0,6,7
 192 1502 192 1502 156 1466 c 128,-1,8
 120 1430 120 1430 69 1430 c 256,9,10
 18 1430 18 1430 -18 1465.5 c 128,-1,11
 -54 1501 -54 1501 -54 1551 c 0,0,1
135 -2 m 1,12,-1
 135 1239 l 2,13,14
 135 1280 135 1280 160.5 1307.5 c 128,-1,15
 186 1335 186 1335 252 1335 c 0,16,17
 285 1335 285 1335 316.5 1332 c 128,-1,18
 348 1329 348 1329 365 1325 c 1,19,-1
 365 84 l 2,20,21
 365 43 365 43 339.5 15.5 c 128,-1,22
 314 -12 314 -12 248 -12 c 0,23,24
 215 -12 215 -12 183.5 -9 c 128,-1,25
 152 -6 152 -6 135 -2 c 1,12,-1
321 1551 m 0,26,27
 321 1604 321 1604 357 1639.5 c 128,-1,28
 393 1675 393 1675 444 1675 c 256,29,30
 495 1675 495 1675 531 1639.5 c 128,-1,31
 567 1604 567 1604 567 1551 c 0,32,33
 567 1502 567 1502 531 1466 c 128,-1,34
 495 1430 495 1430 444 1430 c 256,35,36
 393 1430 393 1430 357 1465.5 c 128,-1,37
 321 1501 321 1501 321 1551 c 0,26,27
EndSplineSet
EndChar

StartChar: Eth
Encoding: 208 208 146
Width: 1298
GlyphClass: 2
Flags: W
LayerCount: 2
Fore
SplineSet
-39 668 m 0,0,1
 -39 721 -39 721 -16.5 743.5 c 128,-1,2
 6 766 6 766 41 766 c 2,3,-1
 125 766 l 1,4,-1
 125 1225 l 2,5,6
 125 1272 125 1272 146.5 1301.5 c 128,-1,7
 168 1331 168 1331 244 1331 c 2,8,-1
 526 1331 l 2,9,10
 692 1331 692 1331 825 1285 c 128,-1,11
 958 1239 958 1239 1050.5 1153 c 128,-1,12
 1143 1067 1143 1067 1193 946 c 128,-1,13
 1243 825 1243 825 1243 676 c 0,14,15
 1243 535 1243 535 1194 412 c 128,-1,16
 1145 289 1145 289 1050.5 197.5 c 128,-1,17
 956 106 956 106 822 53 c 128,-1,18
 688 0 688 0 520 0 c 2,19,-1
 244 0 l 2,20,21
 168 0 168 0 146.5 29.5 c 128,-1,22
 125 59 125 59 125 106 c 2,23,-1
 125 580 l 1,24,-1
 -29 580 l 1,25,26
 -33 594 -33 594 -36 618.5 c 128,-1,27
 -39 643 -39 643 -39 668 c 0,0,1
356 201 m 1,28,-1
 537 201 l 2,29,30
 635 201 635 201 720 231.5 c 128,-1,31
 805 262 805 262 869.5 322.5 c 128,-1,32
 934 383 934 383 971 472 c 128,-1,33
 1008 561 1008 561 1008 680 c 256,34,35
 1008 799 1008 799 966 885 c 128,-1,36
 924 971 924 971 853 1025 c 128,-1,37
 782 1079 782 1079 688 1104.5 c 128,-1,38
 594 1130 594 1130 487 1130 c 2,39,-1
 356 1130 l 1,40,-1
 356 766 l 1,41,-1
 633 766 l 1,42,43
 637 752 637 752 639 727 c 128,-1,44
 641 702 641 702 641 678 c 0,45,46
 641 643 641 643 628.5 622.5 c 128,-1,47
 616 602 616 602 597 593 c 128,-1,48
 578 584 578 584 553 582 c 128,-1,49
 528 580 528 580 506 580 c 2,50,-1
 356 580 l 1,51,-1
 356 201 l 1,28,-1
EndSplineSet
EndChar

StartChar: Ntilde
Encoding: 209 209 147
Width: 1366
GlyphClass: 2
Flags: W
LayerCount: 2
Fore
SplineSet
135 -4 m 1,0,-1
 135 1315 l 1,1,2
 158 1325 158 1325 192.5 1330 c 128,-1,3
 227 1335 227 1335 256 1335 c 0,4,5
 338 1335 338 1335 374 1313.5 c 128,-1,6
 410 1292 410 1292 436 1251 c 2,7,-1
 1032 330 l 1,8,-1
 1020 1245 l 2,9,10
 1020 1282 1020 1282 1043.5 1308.5 c 128,-1,11
 1067 1335 1067 1335 1128 1335 c 0,12,13
 1157 1335 1157 1335 1187 1332 c 128,-1,14
 1217 1329 1217 1329 1233 1325 c 1,15,-1
 1233 6 l 1,16,17
 1186 -12 1186 -12 1122 -12 c 0,18,19
 1048 -12 1048 -12 1013.5 9.5 c 128,-1,20
 979 31 979 31 956 66 c 2,21,-1
 340 1026 l 1,22,-1
 352 78 l 2,23,24
 352 39 352 39 328.5 13.5 c 128,-1,25
 305 -12 305 -12 242 -12 c 0,26,27
 211 -12 211 -12 181.5 -10 c 128,-1,28
 152 -8 152 -8 135 -4 c 1,0,-1
379 1497 m 1,29,30
 404 1601 404 1601 449 1661 c 128,-1,31
 494 1721 494 1721 580 1721 c 0,32,33
 623 1721 623 1721 658 1705.5 c 128,-1,34
 693 1690 693 1690 722.5 1671.5 c 128,-1,35
 752 1653 752 1653 778.5 1637.5 c 128,-1,36
 805 1622 805 1622 830 1622 c 0,37,38
 853 1622 853 1622 865 1635.5 c 128,-1,39
 877 1649 877 1649 888 1665.5 c 128,-1,40
 899 1682 899 1682 913.5 1695 c 128,-1,41
 928 1708 928 1708 955 1708 c 256,42,43
 982 1708 982 1708 998 1699 c 128,-1,44
 1014 1690 1014 1690 1033 1669 c 1,45,46
 998 1560 998 1560 957 1503 c 128,-1,47
 916 1446 916 1446 832 1446 c 0,48,49
 793 1446 793 1446 758 1461.5 c 128,-1,50
 723 1477 723 1477 692.5 1495.5 c 128,-1,51
 662 1514 662 1514 634.5 1529 c 128,-1,52
 607 1544 607 1544 582 1544 c 0,53,54
 559 1544 559 1544 547 1531 c 128,-1,55
 535 1518 535 1518 523.5 1501.5 c 128,-1,56
 512 1485 512 1485 498 1471.5 c 128,-1,57
 484 1458 484 1458 457 1458 c 256,58,59
 430 1458 430 1458 414 1467.5 c 128,-1,60
 398 1477 398 1477 379 1497 c 1,29,30
EndSplineSet
EndChar

StartChar: Ograve
Encoding: 210 210 148
Width: 1421
GlyphClass: 2
Flags: W
LayerCount: 2
Fore
SplineSet
55 670 m 0,0,1
 55 813 55 813 103.5 939 c 128,-1,2
 152 1065 152 1065 238 1157 c 128,-1,3
 324 1249 324 1249 444.5 1302.5 c 128,-1,4
 565 1356 565 1356 711 1356 c 0,5,6
 856 1356 856 1356 977 1302.5 c 128,-1,7
 1098 1249 1098 1249 1184 1157 c 128,-1,8
 1270 1065 1270 1065 1318 940 c 128,-1,9
 1366 815 1366 815 1366 670 c 256,10,11
 1366 525 1366 525 1318 398.5 c 128,-1,12
 1270 272 1270 272 1184 177 c 128,-1,13
 1098 82 1098 82 977 27.5 c 128,-1,14
 856 -27 856 -27 711 -27 c 256,15,16
 566 -27 566 -27 445 27.5 c 128,-1,17
 324 82 324 82 238 177 c 128,-1,18
 152 272 152 272 103.5 398 c 128,-1,19
 55 524 55 524 55 670 c 0,0,1
295 670 m 0,20,21
 295 564 295 564 326.5 473.5 c 128,-1,22
 358 383 358 383 414.5 317.5 c 128,-1,23
 471 252 471 252 547 215 c 128,-1,24
 623 178 623 178 709 178 c 256,25,26
 795 178 795 178 870.5 216 c 128,-1,27
 946 254 946 254 1003.5 319.5 c 128,-1,28
 1061 385 1061 385 1093.5 475 c 128,-1,29
 1126 565 1126 565 1126 668 c 0,30,31
 1126 770 1126 770 1094.5 859 c 128,-1,32
 1063 948 1063 948 1006.5 1012.5 c 128,-1,33
 950 1077 950 1077 874.5 1114 c 128,-1,34
 799 1151 799 1151 711 1151 c 0,35,36
 625 1151 625 1151 549 1115 c 128,-1,37
 473 1079 473 1079 416.5 1014.5 c 128,-1,38
 360 950 360 950 327.5 862 c 128,-1,39
 295 774 295 774 295 670 c 0,20,21
481 1645 m 0,40,41
 481 1684 481 1684 502.5 1715.5 c 128,-1,42
 524 1747 524 1747 565 1759 c 1,43,-1
 893 1454 l 1,44,45
 848 1397 848 1397 780 1397 c 0,46,47
 729 1397 729 1397 678 1432 c 2,48,-1
 547 1524 l 2,49,50
 512 1549 512 1549 495.5 1579.5 c 128,-1,51
 479 1610 479 1610 481 1645 c 0,40,41
EndSplineSet
EndChar

StartChar: Oacute
Encoding: 211 211 149
Width: 1421
GlyphClass: 2
Flags: W
LayerCount: 2
Fore
SplineSet
55 670 m 0,0,1
 55 813 55 813 103.5 939 c 128,-1,2
 152 1065 152 1065 238 1157 c 128,-1,3
 324 1249 324 1249 444.5 1302.5 c 128,-1,4
 565 1356 565 1356 711 1356 c 0,5,6
 856 1356 856 1356 977 1302.5 c 128,-1,7
 1098 1249 1098 1249 1184 1157 c 128,-1,8
 1270 1065 1270 1065 1318 940 c 128,-1,9
 1366 815 1366 815 1366 670 c 256,10,11
 1366 525 1366 525 1318 398.5 c 128,-1,12
 1270 272 1270 272 1184 177 c 128,-1,13
 1098 82 1098 82 977 27.5 c 128,-1,14
 856 -27 856 -27 711 -27 c 256,15,16
 566 -27 566 -27 445 27.5 c 128,-1,17
 324 82 324 82 238 177 c 128,-1,18
 152 272 152 272 103.5 398 c 128,-1,19
 55 524 55 524 55 670 c 0,0,1
295 670 m 0,20,21
 295 564 295 564 326.5 473.5 c 128,-1,22
 358 383 358 383 414.5 317.5 c 128,-1,23
 471 252 471 252 547 215 c 128,-1,24
 623 178 623 178 709 178 c 256,25,26
 795 178 795 178 870.5 216 c 128,-1,27
 946 254 946 254 1003.5 319.5 c 128,-1,28
 1061 385 1061 385 1093.5 475 c 128,-1,29
 1126 565 1126 565 1126 668 c 0,30,31
 1126 770 1126 770 1094.5 859 c 128,-1,32
 1063 948 1063 948 1006.5 1012.5 c 128,-1,33
 950 1077 950 1077 874.5 1114 c 128,-1,34
 799 1151 799 1151 711 1151 c 0,35,36
 625 1151 625 1151 549 1115 c 128,-1,37
 473 1079 473 1079 416.5 1014.5 c 128,-1,38
 360 950 360 950 327.5 862 c 128,-1,39
 295 774 295 774 295 670 c 0,20,21
463 1454 m 1,40,-1
 790 1759 l 1,41,42
 831 1747 831 1747 852.5 1715 c 128,-1,43
 874 1683 874 1683 874 1645 c 0,44,45
 874 1610 874 1610 858.5 1579 c 128,-1,46
 843 1548 843 1548 809 1524 c 2,47,-1
 678 1432 l 2,48,49
 626 1397 626 1397 577 1397 c 0,50,51
 507 1397 507 1397 463 1454 c 1,40,-1
EndSplineSet
EndChar

StartChar: Ocircumflex
Encoding: 212 212 150
Width: 1421
GlyphClass: 2
Flags: W
LayerCount: 2
Fore
SplineSet
55 670 m 0,0,1
 55 813 55 813 103.5 939 c 128,-1,2
 152 1065 152 1065 238 1157 c 128,-1,3
 324 1249 324 1249 444.5 1302.5 c 128,-1,4
 565 1356 565 1356 711 1356 c 0,5,6
 856 1356 856 1356 977 1302.5 c 128,-1,7
 1098 1249 1098 1249 1184 1157 c 128,-1,8
 1270 1065 1270 1065 1318 940 c 128,-1,9
 1366 815 1366 815 1366 670 c 256,10,11
 1366 525 1366 525 1318 398.5 c 128,-1,12
 1270 272 1270 272 1184 177 c 128,-1,13
 1098 82 1098 82 977 27.5 c 128,-1,14
 856 -27 856 -27 711 -27 c 256,15,16
 566 -27 566 -27 445 27.5 c 128,-1,17
 324 82 324 82 238 177 c 128,-1,18
 152 272 152 272 103.5 398 c 128,-1,19
 55 524 55 524 55 670 c 0,0,1
295 670 m 0,20,21
 295 564 295 564 326.5 473.5 c 128,-1,22
 358 383 358 383 414.5 317.5 c 128,-1,23
 471 252 471 252 547 215 c 128,-1,24
 623 178 623 178 709 178 c 256,25,26
 795 178 795 178 870.5 216 c 128,-1,27
 946 254 946 254 1003.5 319.5 c 128,-1,28
 1061 385 1061 385 1093.5 475 c 128,-1,29
 1126 565 1126 565 1126 668 c 0,30,31
 1126 770 1126 770 1094.5 859 c 128,-1,32
 1063 948 1063 948 1006.5 1012.5 c 128,-1,33
 950 1077 950 1077 874.5 1114 c 128,-1,34
 799 1151 799 1151 711 1151 c 0,35,36
 625 1151 625 1151 549 1115 c 128,-1,37
 473 1079 473 1079 416.5 1014.5 c 128,-1,38
 360 950 360 950 327.5 862 c 128,-1,39
 295 774 295 774 295 670 c 0,20,21
393 1407 m 1,40,-1
 598 1724 l 1,41,42
 623 1734 623 1734 651.5 1741.5 c 128,-1,43
 680 1749 680 1749 709 1749 c 0,44,45
 768 1749 768 1749 796.5 1732.5 c 128,-1,46
 825 1716 825 1716 848 1685 c 2,47,-1
 1026 1409 l 1,48,49
 1006 1399 1006 1399 979 1392.5 c 128,-1,50
 952 1386 952 1386 930 1386 c 0,51,52
 889 1386 889 1386 862.5 1397.5 c 128,-1,53
 836 1409 836 1409 819 1437 c 2,54,-1
 711 1622 l 1,55,-1
 594 1429 l 2,56,57
 566 1386 566 1386 492 1386 c 0,58,59
 465 1386 465 1386 438.5 1392.5 c 128,-1,60
 412 1399 412 1399 393 1407 c 1,40,-1
EndSplineSet
EndChar

StartChar: Otilde
Encoding: 213 213 151
Width: 1421
GlyphClass: 2
Flags: W
LayerCount: 2
Fore
SplineSet
55 670 m 0,0,1
 55 813 55 813 103.5 939 c 128,-1,2
 152 1065 152 1065 238 1157 c 128,-1,3
 324 1249 324 1249 444.5 1302.5 c 128,-1,4
 565 1356 565 1356 711 1356 c 0,5,6
 856 1356 856 1356 977 1302.5 c 128,-1,7
 1098 1249 1098 1249 1184 1157 c 128,-1,8
 1270 1065 1270 1065 1318 940 c 128,-1,9
 1366 815 1366 815 1366 670 c 256,10,11
 1366 525 1366 525 1318 398.5 c 128,-1,12
 1270 272 1270 272 1184 177 c 128,-1,13
 1098 82 1098 82 977 27.5 c 128,-1,14
 856 -27 856 -27 711 -27 c 256,15,16
 566 -27 566 -27 445 27.5 c 128,-1,17
 324 82 324 82 238 177 c 128,-1,18
 152 272 152 272 103.5 398 c 128,-1,19
 55 524 55 524 55 670 c 0,0,1
295 670 m 0,20,21
 295 564 295 564 326.5 473.5 c 128,-1,22
 358 383 358 383 414.5 317.5 c 128,-1,23
 471 252 471 252 547 215 c 128,-1,24
 623 178 623 178 709 178 c 256,25,26
 795 178 795 178 870.5 216 c 128,-1,27
 946 254 946 254 1003.5 319.5 c 128,-1,28
 1061 385 1061 385 1093.5 475 c 128,-1,29
 1126 565 1126 565 1126 668 c 0,30,31
 1126 770 1126 770 1094.5 859 c 128,-1,32
 1063 948 1063 948 1006.5 1012.5 c 128,-1,33
 950 1077 950 1077 874.5 1114 c 128,-1,34
 799 1151 799 1151 711 1151 c 0,35,36
 625 1151 625 1151 549 1115 c 128,-1,37
 473 1079 473 1079 416.5 1014.5 c 128,-1,38
 360 950 360 950 327.5 862 c 128,-1,39
 295 774 295 774 295 670 c 0,20,21
389 1491 m 1,40,41
 414 1595 414 1595 459 1655 c 128,-1,42
 504 1715 504 1715 590 1715 c 0,43,44
 633 1715 633 1715 668 1699.5 c 128,-1,45
 703 1684 703 1684 732.5 1665.5 c 128,-1,46
 762 1647 762 1647 788.5 1631.5 c 128,-1,47
 815 1616 815 1616 840 1616 c 0,48,49
 863 1616 863 1616 875 1629.5 c 128,-1,50
 887 1643 887 1643 898 1659.5 c 128,-1,51
 909 1676 909 1676 923.5 1689 c 128,-1,52
 938 1702 938 1702 965 1702 c 256,53,54
 992 1702 992 1702 1008 1693 c 128,-1,55
 1024 1684 1024 1684 1043 1663 c 1,56,57
 1008 1554 1008 1554 967 1497 c 128,-1,58
 926 1440 926 1440 842 1440 c 0,59,60
 803 1440 803 1440 768 1455.5 c 128,-1,61
 733 1471 733 1471 702.5 1489.5 c 128,-1,62
 672 1508 672 1508 644.5 1523 c 128,-1,63
 617 1538 617 1538 592 1538 c 0,64,65
 569 1538 569 1538 557 1525 c 128,-1,66
 545 1512 545 1512 533.5 1495.5 c 128,-1,67
 522 1479 522 1479 508 1465.5 c 128,-1,68
 494 1452 494 1452 467 1452 c 256,69,70
 440 1452 440 1452 424 1461.5 c 128,-1,71
 408 1471 408 1471 389 1491 c 1,40,41
EndSplineSet
EndChar

StartChar: Odieresis
Encoding: 214 214 152
Width: 1421
GlyphClass: 2
Flags: W
LayerCount: 2
Fore
SplineSet
55 670 m 0,0,1
 55 813 55 813 103.5 939 c 128,-1,2
 152 1065 152 1065 238 1157 c 128,-1,3
 324 1249 324 1249 444.5 1302.5 c 128,-1,4
 565 1356 565 1356 711 1356 c 0,5,6
 856 1356 856 1356 977 1302.5 c 128,-1,7
 1098 1249 1098 1249 1184 1157 c 128,-1,8
 1270 1065 1270 1065 1318 940 c 128,-1,9
 1366 815 1366 815 1366 670 c 256,10,11
 1366 525 1366 525 1318 398.5 c 128,-1,12
 1270 272 1270 272 1184 177 c 128,-1,13
 1098 82 1098 82 977 27.5 c 128,-1,14
 856 -27 856 -27 711 -27 c 256,15,16
 566 -27 566 -27 445 27.5 c 128,-1,17
 324 82 324 82 238 177 c 128,-1,18
 152 272 152 272 103.5 398 c 128,-1,19
 55 524 55 524 55 670 c 0,0,1
295 670 m 0,20,21
 295 564 295 564 326.5 473.5 c 128,-1,22
 358 383 358 383 414.5 317.5 c 128,-1,23
 471 252 471 252 547 215 c 128,-1,24
 623 178 623 178 709 178 c 256,25,26
 795 178 795 178 870.5 216 c 128,-1,27
 946 254 946 254 1003.5 319.5 c 128,-1,28
 1061 385 1061 385 1093.5 475 c 128,-1,29
 1126 565 1126 565 1126 668 c 0,30,31
 1126 770 1126 770 1094.5 859 c 128,-1,32
 1063 948 1063 948 1006.5 1012.5 c 128,-1,33
 950 1077 950 1077 874.5 1114 c 128,-1,34
 799 1151 799 1151 711 1151 c 0,35,36
 625 1151 625 1151 549 1115 c 128,-1,37
 473 1079 473 1079 416.5 1014.5 c 128,-1,38
 360 950 360 950 327.5 862 c 128,-1,39
 295 774 295 774 295 670 c 0,20,21
399 1551 m 0,40,41
 399 1604 399 1604 435 1639.5 c 128,-1,42
 471 1675 471 1675 522 1675 c 256,43,44
 573 1675 573 1675 609 1639.5 c 128,-1,45
 645 1604 645 1604 645 1551 c 0,46,47
 645 1502 645 1502 609 1466 c 128,-1,48
 573 1430 573 1430 522 1430 c 256,49,50
 471 1430 471 1430 435 1465.5 c 128,-1,51
 399 1501 399 1501 399 1551 c 0,40,41
774 1551 m 0,52,53
 774 1604 774 1604 810 1639.5 c 128,-1,54
 846 1675 846 1675 897 1675 c 256,55,56
 948 1675 948 1675 984 1639.5 c 128,-1,57
 1020 1604 1020 1604 1020 1551 c 0,58,59
 1020 1502 1020 1502 984 1466 c 128,-1,60
 948 1430 948 1430 897 1430 c 256,61,62
 846 1430 846 1430 810 1465.5 c 128,-1,63
 774 1501 774 1501 774 1551 c 0,52,53
EndSplineSet
EndChar

StartChar: multiply
Encoding: 215 215 153
Width: 1241
GlyphClass: 2
Flags: W
LayerCount: 2
Fore
SplineSet
168 180 m 1,0,-1
 489 500 l 1,1,-1
 209 780 l 2,2,3
 182 807 182 807 182 836 c 0,4,5
 182 856 182 856 193.5 874.5 c 128,-1,6
 205 893 205 893 222.5 909.5 c 128,-1,7
 240 926 240 926 258 940 c 128,-1,8
 276 954 276 954 291 965 c 1,9,-1
 623 633 l 1,10,-1
 903 911 l 2,11,12
 930 938 930 938 958 938 c 0,13,14
 976 938 976 938 995 926.5 c 128,-1,15
 1014 915 1014 915 1030.5 898 c 128,-1,16
 1047 881 1047 881 1059 860.5 c 128,-1,17
 1071 840 1071 840 1075 823 c 1,18,-1
 754 504 l 1,19,-1
 1032 225 l 2,20,21
 1059 198 1059 198 1059 170 c 0,22,23
 1059 152 1059 152 1046.5 133.5 c 128,-1,24
 1034 115 1034 115 1016.5 97.5 c 128,-1,25
 999 80 999 80 981 65.5 c 128,-1,26
 963 51 963 51 948 43 c 1,27,-1
 621 371 l 1,28,-1
 340 92 l 2,29,30
 313 65 313 65 285 66 c 0,31,32
 267 66 267 66 248 77 c 128,-1,33
 229 88 229 88 214 105.5 c 128,-1,34
 199 123 199 123 186.5 142.5 c 128,-1,35
 174 162 174 162 168 180 c 1,0,-1
EndSplineSet
EndChar

StartChar: Oslash
Encoding: 216 216 154
Width: 1435
GlyphClass: 2
Flags: W
LayerCount: 2
Fore
SplineSet
61 670 m 0,0,1
 61 813 61 813 109.5 938 c 128,-1,2
 158 1063 158 1063 245 1155 c 128,-1,3
 332 1247 332 1247 451.5 1300.5 c 128,-1,4
 571 1354 571 1354 717 1354 c 0,5,6
 815 1354 815 1354 897 1330.5 c 128,-1,7
 979 1307 979 1307 1051 1264 c 1,8,-1
 1100 1333 l 2,9,10
 1116 1356 1116 1356 1138.5 1373.5 c 128,-1,11
 1161 1391 1161 1391 1204 1391 c 0,12,13
 1274 1391 1274 1391 1317 1370 c 1,14,-1
 1174 1169 l 1,15,16
 1268 1077 1268 1077 1320 950 c 128,-1,17
 1372 823 1372 823 1372 670 c 0,18,19
 1372 525 1372 525 1324 398.5 c 128,-1,20
 1276 272 1276 272 1189 179 c 128,-1,21
 1102 86 1102 86 981 31.5 c 128,-1,22
 860 -23 860 -23 717 -23 c 0,23,24
 625 -23 625 -23 542 1 c 128,-1,25
 459 25 459 25 387 68 c 1,26,-1
 330 -4 l 2,27,28
 312 -27 312 -27 289 -41 c 128,-1,29
 266 -55 266 -55 225 -55 c 0,30,31
 192 -55 192 -55 166.5 -50 c 128,-1,32
 141 -45 141 -45 119 -37 c 1,33,-1
 262 160 l 1,34,35
 164 258 164 258 112.5 387 c 128,-1,36
 61 516 61 516 61 670 c 0,0,1
301 670 m 0,37,38
 301 572 301 572 328.5 493 c 128,-1,39
 356 414 356 414 403 354 c 1,40,-1
 920 1087 l 1,41,42
 875 1116 875 1116 823.5 1132.5 c 128,-1,43
 772 1149 772 1149 717 1149 c 0,44,45
 631 1149 631 1149 555 1113 c 128,-1,46
 479 1077 479 1077 423 1012.5 c 128,-1,47
 367 948 367 948 334 861 c 128,-1,48
 301 774 301 774 301 670 c 0,37,38
516 242 m 1,49,50
 604 180 604 180 717 180 c 0,51,52
 799 180 799 180 874.5 217 c 128,-1,53
 950 254 950 254 1008.5 318.5 c 128,-1,54
 1067 383 1067 383 1101 473 c 128,-1,55
 1135 563 1135 563 1135 668 c 0,56,57
 1135 754 1135 754 1108 833.5 c 128,-1,58
 1081 913 1081 913 1028 973 c 1,59,-1
 516 242 l 1,49,50
EndSplineSet
EndChar

StartChar: Ugrave
Encoding: 217 217 155
Width: 1325
GlyphClass: 2
Flags: W
LayerCount: 2
Fore
SplineSet
111 551 m 2,0,-1
 111 1239 l 2,1,2
 111 1280 111 1280 136.5 1307.5 c 128,-1,3
 162 1335 162 1335 227 1335 c 0,4,5
 260 1335 260 1335 292 1332 c 128,-1,6
 324 1329 324 1329 340 1325 c 1,7,-1
 340 545 l 2,8,9
 340 379 340 379 423 279.5 c 128,-1,10
 506 180 506 180 659 180 c 0,11,12
 806 180 806 180 893.5 279.5 c 128,-1,13
 981 379 981 379 981 545 c 2,14,-1
 981 1239 l 2,15,16
 981 1280 981 1280 1006.5 1307.5 c 128,-1,17
 1032 1335 1032 1335 1098 1335 c 0,18,19
 1131 1335 1131 1335 1161.5 1332 c 128,-1,20
 1192 1329 1192 1329 1208 1325 c 1,21,-1
 1208 551 l 2,22,23
 1208 430 1208 430 1171.5 325.5 c 128,-1,24
 1135 221 1135 221 1065 142 c 128,-1,25
 995 63 995 63 891.5 18 c 128,-1,26
 788 -27 788 -27 657 -27 c 0,27,28
 524 -27 524 -27 423 18 c 128,-1,29
 322 63 322 63 252 142 c 128,-1,30
 182 221 182 221 146.5 325.5 c 128,-1,31
 111 430 111 430 111 551 c 2,0,-1
473 1645 m 0,32,33
 473 1684 473 1684 494.5 1715.5 c 128,-1,34
 516 1747 516 1747 557 1759 c 1,35,-1
 885 1454 l 1,36,37
 840 1397 840 1397 772 1397 c 0,38,39
 721 1397 721 1397 670 1432 c 2,40,-1
 539 1524 l 2,41,42
 504 1549 504 1549 487.5 1579.5 c 128,-1,43
 471 1610 471 1610 473 1645 c 0,32,33
EndSplineSet
EndChar

StartChar: Uacute
Encoding: 218 218 156
Width: 1325
GlyphClass: 2
Flags: W
LayerCount: 2
Fore
SplineSet
111 551 m 2,0,-1
 111 1239 l 2,1,2
 111 1280 111 1280 136.5 1307.5 c 128,-1,3
 162 1335 162 1335 227 1335 c 0,4,5
 260 1335 260 1335 292 1332 c 128,-1,6
 324 1329 324 1329 340 1325 c 1,7,-1
 340 545 l 2,8,9
 340 379 340 379 423 279.5 c 128,-1,10
 506 180 506 180 659 180 c 0,11,12
 806 180 806 180 893.5 279.5 c 128,-1,13
 981 379 981 379 981 545 c 2,14,-1
 981 1239 l 2,15,16
 981 1280 981 1280 1006.5 1307.5 c 128,-1,17
 1032 1335 1032 1335 1098 1335 c 0,18,19
 1131 1335 1131 1335 1161.5 1332 c 128,-1,20
 1192 1329 1192 1329 1208 1325 c 1,21,-1
 1208 551 l 2,22,23
 1208 430 1208 430 1171.5 325.5 c 128,-1,24
 1135 221 1135 221 1065 142 c 128,-1,25
 995 63 995 63 891.5 18 c 128,-1,26
 788 -27 788 -27 657 -27 c 0,27,28
 524 -27 524 -27 423 18 c 128,-1,29
 322 63 322 63 252 142 c 128,-1,30
 182 221 182 221 146.5 325.5 c 128,-1,31
 111 430 111 430 111 551 c 2,0,-1
469 1454 m 1,32,-1
 796 1759 l 1,33,34
 837 1747 837 1747 858.5 1715 c 128,-1,35
 880 1683 880 1683 880 1645 c 0,36,37
 880 1610 880 1610 864.5 1579 c 128,-1,38
 849 1548 849 1548 815 1524 c 2,39,-1
 684 1432 l 2,40,41
 632 1397 632 1397 583 1397 c 0,42,43
 513 1397 513 1397 469 1454 c 1,32,-1
EndSplineSet
EndChar

StartChar: Ucircumflex
Encoding: 219 219 157
Width: 1325
GlyphClass: 2
Flags: W
LayerCount: 2
Fore
SplineSet
111 551 m 2,0,-1
 111 1239 l 2,1,2
 111 1280 111 1280 136.5 1307.5 c 128,-1,3
 162 1335 162 1335 227 1335 c 0,4,5
 260 1335 260 1335 292 1332 c 128,-1,6
 324 1329 324 1329 340 1325 c 1,7,-1
 340 545 l 2,8,9
 340 379 340 379 423 279.5 c 128,-1,10
 506 180 506 180 659 180 c 0,11,12
 806 180 806 180 893.5 279.5 c 128,-1,13
 981 379 981 379 981 545 c 2,14,-1
 981 1239 l 2,15,16
 981 1280 981 1280 1006.5 1307.5 c 128,-1,17
 1032 1335 1032 1335 1098 1335 c 0,18,19
 1131 1335 1131 1335 1161.5 1332 c 128,-1,20
 1192 1329 1192 1329 1208 1325 c 1,21,-1
 1208 551 l 2,22,23
 1208 430 1208 430 1171.5 325.5 c 128,-1,24
 1135 221 1135 221 1065 142 c 128,-1,25
 995 63 995 63 891.5 18 c 128,-1,26
 788 -27 788 -27 657 -27 c 0,27,28
 524 -27 524 -27 423 18 c 128,-1,29
 322 63 322 63 252 142 c 128,-1,30
 182 221 182 221 146.5 325.5 c 128,-1,31
 111 430 111 430 111 551 c 2,0,-1
354 1407 m 1,32,-1
 559 1724 l 1,33,34
 584 1734 584 1734 612.5 1741.5 c 128,-1,35
 641 1749 641 1749 670 1749 c 0,36,37
 729 1749 729 1749 757.5 1732.5 c 128,-1,38
 786 1716 786 1716 809 1685 c 2,39,-1
 987 1409 l 1,40,41
 967 1399 967 1399 940 1392.5 c 128,-1,42
 913 1386 913 1386 891 1386 c 0,43,44
 850 1386 850 1386 823.5 1397.5 c 128,-1,45
 797 1409 797 1409 780 1437 c 2,46,-1
 672 1622 l 1,47,-1
 555 1429 l 2,48,49
 527 1386 527 1386 453 1386 c 0,50,51
 426 1386 426 1386 399.5 1392.5 c 128,-1,52
 373 1399 373 1399 354 1407 c 1,32,-1
EndSplineSet
EndChar

StartChar: Udieresis
Encoding: 220 220 158
Width: 1325
GlyphClass: 2
Flags: W
LayerCount: 2
Fore
SplineSet
111 551 m 2,0,-1
 111 1239 l 2,1,2
 111 1280 111 1280 136.5 1307.5 c 128,-1,3
 162 1335 162 1335 227 1335 c 0,4,5
 260 1335 260 1335 292 1332 c 128,-1,6
 324 1329 324 1329 340 1325 c 1,7,-1
 340 545 l 2,8,9
 340 379 340 379 423 279.5 c 128,-1,10
 506 180 506 180 659 180 c 0,11,12
 806 180 806 180 893.5 279.5 c 128,-1,13
 981 379 981 379 981 545 c 2,14,-1
 981 1239 l 2,15,16
 981 1280 981 1280 1006.5 1307.5 c 128,-1,17
 1032 1335 1032 1335 1098 1335 c 0,18,19
 1131 1335 1131 1335 1161.5 1332 c 128,-1,20
 1192 1329 1192 1329 1208 1325 c 1,21,-1
 1208 551 l 2,22,23
 1208 430 1208 430 1171.5 325.5 c 128,-1,24
 1135 221 1135 221 1065 142 c 128,-1,25
 995 63 995 63 891.5 18 c 128,-1,26
 788 -27 788 -27 657 -27 c 0,27,28
 524 -27 524 -27 423 18 c 128,-1,29
 322 63 322 63 252 142 c 128,-1,30
 182 221 182 221 146.5 325.5 c 128,-1,31
 111 430 111 430 111 551 c 2,0,-1
358 1551 m 0,32,33
 358 1604 358 1604 394 1639.5 c 128,-1,34
 430 1675 430 1675 481 1675 c 256,35,36
 532 1675 532 1675 568 1639.5 c 128,-1,37
 604 1604 604 1604 604 1551 c 0,38,39
 604 1502 604 1502 568 1466 c 128,-1,40
 532 1430 532 1430 481 1430 c 256,41,42
 430 1430 430 1430 394 1465.5 c 128,-1,43
 358 1501 358 1501 358 1551 c 0,32,33
733 1551 m 0,44,45
 733 1604 733 1604 769 1639.5 c 128,-1,46
 805 1675 805 1675 856 1675 c 256,47,48
 907 1675 907 1675 943 1639.5 c 128,-1,49
 979 1604 979 1604 979 1551 c 0,50,51
 979 1502 979 1502 943 1466 c 128,-1,52
 907 1430 907 1430 856 1430 c 256,53,54
 805 1430 805 1430 769 1465.5 c 128,-1,55
 733 1501 733 1501 733 1551 c 0,44,45
EndSplineSet
EndChar

StartChar: Yacute
Encoding: 221 221 159
Width: 1181
GlyphClass: 2
Flags: W
LayerCount: 2
Fore
SplineSet
-2 1303 m 1,0,1
 27 1319 27 1319 65.5 1327 c 128,-1,2
 104 1335 104 1335 135 1335 c 0,3,4
 188 1335 188 1335 224 1322 c 128,-1,5
 260 1309 260 1309 285 1270 c 2,6,-1
 604 756 l 1,7,-1
 922 1268 l 2,8,9
 945 1307 945 1307 975.5 1321 c 128,-1,10
 1006 1335 1006 1335 1055 1335 c 0,11,12
 1084 1335 1084 1335 1122.5 1328 c 128,-1,13
 1161 1321 1161 1321 1186 1305 c 1,14,-1
 711 565 l 1,15,-1
 711 84 l 2,16,17
 711 43 711 43 685.5 15.5 c 128,-1,18
 660 -12 660 -12 594 -12 c 0,19,20
 561 -12 561 -12 529.5 -9 c 128,-1,21
 498 -6 498 -6 481 -2 c 1,22,-1
 481 563 l 1,23,-1
 -2 1303 l 1,0,1
451 1454 m 1,24,-1
 778 1759 l 1,25,26
 819 1747 819 1747 840.5 1715 c 128,-1,27
 862 1683 862 1683 862 1645 c 0,28,29
 862 1610 862 1610 846.5 1579 c 128,-1,30
 831 1548 831 1548 797 1524 c 2,31,-1
 666 1432 l 2,32,33
 614 1397 614 1397 565 1397 c 0,34,35
 495 1397 495 1397 451 1454 c 1,24,-1
EndSplineSet
EndChar

StartChar: Thorn
Encoding: 222 222 160
Width: 1124
GlyphClass: 2
Flags: W
LayerCount: 2
Fore
SplineSet
135 -2 m 1,0,-1
 135 1239 l 2,1,2
 135 1280 135 1280 160.5 1307.5 c 128,-1,3
 186 1335 186 1335 252 1335 c 0,4,5
 285 1335 285 1335 316.5 1332 c 128,-1,6
 348 1329 348 1329 365 1325 c 1,7,-1
 365 1137 l 1,8,-1
 555 1137 l 2,9,10
 688 1137 688 1137 787.5 1101 c 128,-1,11
 887 1065 887 1065 953.5 1003.5 c 128,-1,12
 1020 942 1020 942 1052.5 860 c 128,-1,13
 1085 778 1085 778 1085 684 c 0,14,15
 1085 584 1085 584 1048.5 500 c 128,-1,16
 1012 416 1012 416 945.5 355.5 c 128,-1,17
 879 295 879 295 784.5 261 c 128,-1,18
 690 227 690 227 575 227 c 2,19,-1
 365 227 l 1,20,-1
 365 84 l 2,21,22
 365 43 365 43 339.5 15.5 c 128,-1,23
 314 -12 314 -12 248 -12 c 0,24,25
 215 -12 215 -12 183.5 -9 c 128,-1,26
 152 -6 152 -6 135 -2 c 1,0,-1
365 428 m 1,27,-1
 539 428 l 2,28,29
 699 428 699 428 773.5 496.5 c 128,-1,30
 848 565 848 565 848 682 c 0,31,32
 848 801 848 801 773 867.5 c 128,-1,33
 698 934 698 934 557 934 c 2,34,-1
 365 934 l 1,35,-1
 365 428 l 1,27,-1
EndSplineSet
EndChar

StartChar: germandbls
Encoding: 223 223 161
Width: 1273
GlyphClass: 2
Flags: W
LayerCount: 2
Fore
SplineSet
117 -2 m 1,0,-1
 117 1036 l 2,1,2
 117 1136 117 1136 151.5 1210 c 128,-1,3
 186 1284 186 1284 246.5 1331 c 128,-1,4
 307 1378 307 1378 387 1400.5 c 128,-1,5
 467 1423 467 1423 559 1423 c 0,6,7
 678 1423 678 1423 767 1392.5 c 128,-1,8
 856 1362 856 1362 915.5 1308.5 c 128,-1,9
 975 1255 975 1255 1004.5 1181.5 c 128,-1,10
 1034 1108 1034 1108 1034 1020 c 0,11,12
 1034 973 1034 973 1026 927 c 128,-1,13
 1018 881 1018 881 1001 852 c 1,14,15
 895 850 895 850 847 817 c 128,-1,16
 799 784 799 784 799 737 c 256,17,18
 799 690 799 690 830.5 658.5 c 128,-1,19
 862 627 862 627 908 601 c 128,-1,20
 954 575 954 575 1009.5 551.5 c 128,-1,21
 1065 528 1065 528 1111 493.5 c 128,-1,22
 1157 459 1157 459 1189 409.5 c 128,-1,23
 1221 360 1221 360 1221 287 c 0,24,25
 1221 226 1221 226 1196 171.5 c 128,-1,26
 1171 117 1171 117 1120 75 c 128,-1,27
 1069 33 1069 33 991 9.5 c 128,-1,28
 913 -14 913 -14 807 -14 c 0,29,30
 713 -14 713 -14 628 2 c 128,-1,31
 543 18 543 18 471 47 c 1,32,33
 469 61 469 61 468 73.5 c 128,-1,34
 467 86 467 86 467 98 c 0,35,36
 467 149 467 149 486.5 181 c 128,-1,37
 506 213 506 213 551 213 c 0,38,39
 576 213 576 213 601.5 206 c 128,-1,40
 627 199 627 199 657.5 190.5 c 128,-1,41
 688 182 688 182 725 175 c 128,-1,42
 762 168 762 168 811 168 c 0,43,44
 909 168 909 168 952 196.5 c 128,-1,45
 995 225 995 225 995 279 c 0,46,47
 995 318 995 318 964.5 345.5 c 128,-1,48
 934 373 934 373 887 397.5 c 128,-1,49
 840 422 840 422 785.5 447.5 c 128,-1,50
 731 473 731 473 684 509 c 128,-1,51
 637 545 637 545 606 596 c 128,-1,52
 575 647 575 647 575 723 c 0,53,54
 575 827 575 827 644 899 c 128,-1,55
 713 971 713 971 829 993 c 1,56,57
 833 1003 833 1003 833.5 1015.5 c 128,-1,58
 834 1028 834 1028 834 1038 c 0,59,60
 834 1124 834 1124 766 1181.5 c 128,-1,61
 698 1239 698 1239 575 1239 c 0,62,63
 446 1239 446 1239 393 1179.5 c 128,-1,64
 340 1120 340 1120 340 1004 c 2,65,-1
 340 82 l 2,66,67
 340 41 340 41 316.5 14.5 c 128,-1,68
 293 -12 293 -12 227 -12 c 0,69,70
 196 -12 196 -12 164.5 -9 c 128,-1,71
 133 -6 133 -6 117 -2 c 1,0,-1
EndSplineSet
EndChar

StartChar: agrave
Encoding: 224 224 162
Width: 1056
GlyphClass: 2
Flags: W
LayerCount: 2
Fore
SplineSet
59 283 m 0,0,1
 59 357 59 357 85 418 c 128,-1,2
 111 479 111 479 164 523 c 128,-1,3
 217 567 217 567 298 591.5 c 128,-1,4
 379 616 379 616 492 616 c 0,5,6
 598 616 598 616 733 592 c 1,7,-1
 733 643 l 2,8,9
 733 743 733 743 688 785 c 128,-1,10
 643 827 643 827 526 827 c 0,11,12
 467 827 467 827 422 820 c 128,-1,13
 377 813 377 813 341 804 c 128,-1,14
 305 795 305 795 277.5 787.5 c 128,-1,15
 250 780 250 780 225 780 c 0,16,17
 182 780 182 780 161.5 817 c 128,-1,18
 141 854 141 854 141 907 c 0,19,20
 141 917 141 917 141 926.5 c 128,-1,21
 141 936 141 936 143 946 c 1,22,23
 211 969 211 969 311.5 988.5 c 128,-1,24
 412 1008 412 1008 535 1008 c 0,25,26
 654 1008 654 1008 732.5 981 c 128,-1,27
 811 954 811 954 859 902 c 128,-1,28
 907 850 907 850 926.5 775 c 128,-1,29
 946 700 946 700 946 602 c 2,30,-1
 946 387 l 2,31,32
 946 326 946 326 947 276.5 c 128,-1,33
 948 227 948 227 953 184 c 128,-1,34
 958 141 958 141 966.5 99 c 128,-1,35
 975 57 975 57 989 8 c 1,36,37
 971 0 971 0 943 -6 c 128,-1,38
 915 -12 915 -12 879 -12 c 0,39,40
 838 -12 838 -12 812 3 c 128,-1,41
 786 18 786 18 772 44 c 128,-1,42
 758 70 758 70 753 104.5 c 128,-1,43
 748 139 748 139 745 178 c 1,44,-1
 743 178 l 1,45,46
 718 139 718 139 686.5 103.5 c 128,-1,47
 655 68 655 68 612 41 c 128,-1,48
 569 14 569 14 515 -1 c 128,-1,49
 461 -16 461 -16 391 -16 c 0,50,51
 311 -16 311 -16 248.5 7.5 c 128,-1,52
 186 31 186 31 144 72 c 128,-1,53
 102 113 102 113 80.5 167 c 128,-1,54
 59 221 59 221 59 283 c 0,0,1
281 299 m 0,55,56
 281 233 281 233 328 198.5 c 128,-1,57
 375 164 375 164 451 164 c 0,58,59
 549 164 549 164 621.5 221.5 c 128,-1,60
 694 279 694 279 735 365 c 1,61,-1
 735 451 l 1,62,63
 631 469 631 469 549 469 c 0,64,65
 414 469 414 469 347.5 425 c 128,-1,66
 281 381 281 381 281 299 c 0,55,56
311 1348 m 0,67,68
 311 1387 311 1387 332.5 1418.5 c 128,-1,69
 354 1450 354 1450 395 1462 c 1,70,-1
 723 1157 l 1,71,72
 678 1100 678 1100 610 1100 c 0,73,74
 559 1100 559 1100 508 1135 c 2,75,-1
 377 1227 l 2,76,77
 342 1252 342 1252 325.5 1282.5 c 128,-1,78
 309 1313 309 1313 311 1348 c 0,67,68
EndSplineSet
EndChar

StartChar: aacute
Encoding: 225 225 163
Width: 1056
GlyphClass: 2
Flags: W
LayerCount: 2
Fore
SplineSet
59 283 m 0,0,1
 59 357 59 357 85 418 c 128,-1,2
 111 479 111 479 164 523 c 128,-1,3
 217 567 217 567 298 591.5 c 128,-1,4
 379 616 379 616 492 616 c 0,5,6
 598 616 598 616 733 592 c 1,7,-1
 733 643 l 2,8,9
 733 743 733 743 688 785 c 128,-1,10
 643 827 643 827 526 827 c 0,11,12
 467 827 467 827 422 820 c 128,-1,13
 377 813 377 813 341 804 c 128,-1,14
 305 795 305 795 277.5 787.5 c 128,-1,15
 250 780 250 780 225 780 c 0,16,17
 182 780 182 780 161.5 817 c 128,-1,18
 141 854 141 854 141 907 c 0,19,20
 141 917 141 917 141 926.5 c 128,-1,21
 141 936 141 936 143 946 c 1,22,23
 211 969 211 969 311.5 988.5 c 128,-1,24
 412 1008 412 1008 535 1008 c 0,25,26
 654 1008 654 1008 732.5 981 c 128,-1,27
 811 954 811 954 859 902 c 128,-1,28
 907 850 907 850 926.5 775 c 128,-1,29
 946 700 946 700 946 602 c 2,30,-1
 946 387 l 2,31,32
 946 326 946 326 947 276.5 c 128,-1,33
 948 227 948 227 953 184 c 128,-1,34
 958 141 958 141 966.5 99 c 128,-1,35
 975 57 975 57 989 8 c 1,36,37
 971 0 971 0 943 -6 c 128,-1,38
 915 -12 915 -12 879 -12 c 0,39,40
 838 -12 838 -12 812 3 c 128,-1,41
 786 18 786 18 772 44 c 128,-1,42
 758 70 758 70 753 104.5 c 128,-1,43
 748 139 748 139 745 178 c 1,44,-1
 743 178 l 1,45,46
 718 139 718 139 686.5 103.5 c 128,-1,47
 655 68 655 68 612 41 c 128,-1,48
 569 14 569 14 515 -1 c 128,-1,49
 461 -16 461 -16 391 -16 c 0,50,51
 311 -16 311 -16 248.5 7.5 c 128,-1,52
 186 31 186 31 144 72 c 128,-1,53
 102 113 102 113 80.5 167 c 128,-1,54
 59 221 59 221 59 283 c 0,0,1
281 299 m 0,55,56
 281 233 281 233 328 198.5 c 128,-1,57
 375 164 375 164 451 164 c 0,58,59
 549 164 549 164 621.5 221.5 c 128,-1,60
 694 279 694 279 735 365 c 1,61,-1
 735 451 l 1,62,63
 631 469 631 469 549 469 c 0,64,65
 414 469 414 469 347.5 425 c 128,-1,66
 281 381 281 381 281 299 c 0,55,56
328 1157 m 1,67,-1
 655 1462 l 1,68,69
 696 1450 696 1450 717.5 1418 c 128,-1,70
 739 1386 739 1386 739 1348 c 0,71,72
 739 1313 739 1313 723.5 1282 c 128,-1,73
 708 1251 708 1251 674 1227 c 2,74,-1
 543 1135 l 2,75,76
 491 1100 491 1100 442 1100 c 0,77,78
 372 1100 372 1100 328 1157 c 1,67,-1
EndSplineSet
EndChar

StartChar: acircumflex
Encoding: 226 226 164
Width: 1056
GlyphClass: 2
Flags: W
LayerCount: 2
Fore
SplineSet
59 283 m 0,0,1
 59 357 59 357 85 418 c 128,-1,2
 111 479 111 479 164 523 c 128,-1,3
 217 567 217 567 298 591.5 c 128,-1,4
 379 616 379 616 492 616 c 0,5,6
 598 616 598 616 733 592 c 1,7,-1
 733 643 l 2,8,9
 733 743 733 743 688 785 c 128,-1,10
 643 827 643 827 526 827 c 0,11,12
 467 827 467 827 422 820 c 128,-1,13
 377 813 377 813 341 804 c 128,-1,14
 305 795 305 795 277.5 787.5 c 128,-1,15
 250 780 250 780 225 780 c 0,16,17
 182 780 182 780 161.5 817 c 128,-1,18
 141 854 141 854 141 907 c 0,19,20
 141 917 141 917 141 926.5 c 128,-1,21
 141 936 141 936 143 946 c 1,22,23
 211 969 211 969 311.5 988.5 c 128,-1,24
 412 1008 412 1008 535 1008 c 0,25,26
 654 1008 654 1008 732.5 981 c 128,-1,27
 811 954 811 954 859 902 c 128,-1,28
 907 850 907 850 926.5 775 c 128,-1,29
 946 700 946 700 946 602 c 2,30,-1
 946 387 l 2,31,32
 946 326 946 326 947 276.5 c 128,-1,33
 948 227 948 227 953 184 c 128,-1,34
 958 141 958 141 966.5 99 c 128,-1,35
 975 57 975 57 989 8 c 1,36,37
 971 0 971 0 943 -6 c 128,-1,38
 915 -12 915 -12 879 -12 c 0,39,40
 838 -12 838 -12 812 3 c 128,-1,41
 786 18 786 18 772 44 c 128,-1,42
 758 70 758 70 753 104.5 c 128,-1,43
 748 139 748 139 745 178 c 1,44,-1
 743 178 l 1,45,46
 718 139 718 139 686.5 103.5 c 128,-1,47
 655 68 655 68 612 41 c 128,-1,48
 569 14 569 14 515 -1 c 128,-1,49
 461 -16 461 -16 391 -16 c 0,50,51
 311 -16 311 -16 248.5 7.5 c 128,-1,52
 186 31 186 31 144 72 c 128,-1,53
 102 113 102 113 80.5 167 c 128,-1,54
 59 221 59 221 59 283 c 0,0,1
209 1098 m 1,55,-1
 414 1415 l 1,56,57
 439 1425 439 1425 467.5 1432.5 c 128,-1,58
 496 1440 496 1440 525 1440 c 0,59,60
 584 1440 584 1440 612.5 1423.5 c 128,-1,61
 641 1407 641 1407 664 1376 c 2,62,-1
 842 1100 l 1,63,64
 822 1090 822 1090 795 1083.5 c 128,-1,65
 768 1077 768 1077 746 1077 c 0,66,67
 705 1077 705 1077 678.5 1088.5 c 128,-1,68
 652 1100 652 1100 635 1128 c 2,69,-1
 527 1313 l 1,70,-1
 410 1120 l 2,71,72
 382 1077 382 1077 308 1077 c 0,73,74
 281 1077 281 1077 254.5 1083.5 c 128,-1,75
 228 1090 228 1090 209 1098 c 1,55,-1
281 299 m 0,76,77
 281 233 281 233 328 198.5 c 128,-1,78
 375 164 375 164 451 164 c 0,79,80
 549 164 549 164 621.5 221.5 c 128,-1,81
 694 279 694 279 735 365 c 1,82,-1
 735 451 l 1,83,84
 631 469 631 469 549 469 c 0,85,86
 414 469 414 469 347.5 425 c 128,-1,87
 281 381 281 381 281 299 c 0,76,77
EndSplineSet
EndChar

